%TF.GenerationSoftware,KiCad,Pcbnew,9.0.6*%
%TF.CreationDate,2026-02-23T14:44:13+01:00*%
%TF.ProjectId,DigitalSynthSchematics,44696769-7461-46c5-9379-6e7468536368,rev?*%
%TF.SameCoordinates,Original*%
%TF.FileFunction,Profile,NP*%
%FSLAX46Y46*%
G04 Gerber Fmt 4.6, Leading zero omitted, Abs format (unit mm)*
G04 Created by KiCad (PCBNEW 9.0.6) date 2026-02-23 14:44:13*
%MOMM*%
%LPD*%
G01*
G04 APERTURE LIST*
%TA.AperFunction,Profile*%
%ADD10C,0.050000*%
%TD*%
G04 APERTURE END LIST*
D10*
X277450000Y-244500000D02*
X277450000Y-226000000D01*
X151500000Y-152000000D02*
X170000000Y-152000000D01*
X142000000Y-167500000D02*
G75*
G02*
X140000000Y-169500000I-2000000J0D01*
G01*
X170000000Y-220300000D02*
X151500000Y-220300000D01*
X179500000Y-192900000D02*
X179500000Y-179400000D01*
X170000000Y-152000000D02*
G75*
G02*
X172000000Y-154000000I0J-2000000D01*
G01*
X121500000Y-194900000D02*
G75*
G02*
X119500000Y-192900000I0J2000000D01*
G01*
X137050000Y-247350000D02*
G75*
G02*
X139050000Y-249350000I0J-2000000D01*
G01*
X495250000Y-213950000D02*
X495250000Y-280350000D01*
X121050000Y-287350000D02*
G75*
G02*
X119050000Y-285350000I0J2000000D01*
G01*
X493250000Y-282350000D02*
X477250000Y-282350000D01*
X139050000Y-285350000D02*
G75*
G02*
X137050000Y-287350000I-2000000J0D01*
G01*
X140000000Y-220300000D02*
X121500000Y-220300000D01*
X248650000Y-271100000D02*
G75*
G02*
X246650000Y-269100000I0J2000000D01*
G01*
X119500000Y-192900000D02*
X119500000Y-179400000D01*
X218950000Y-246500000D02*
G75*
G02*
X216950000Y-244500000I0J2000000D01*
G01*
X121500000Y-245700000D02*
G75*
G02*
X119500000Y-243700000I0J2000000D01*
G01*
X137050000Y-287350000D02*
X121050000Y-287350000D01*
X142000000Y-204800000D02*
X142000000Y-218300000D01*
X149500000Y-192900000D02*
X149500000Y-179400000D01*
X247450000Y-244500000D02*
X247450000Y-226000000D01*
X116550000Y-140000000D02*
X503850000Y-140000000D01*
X200000000Y-194900000D02*
X181500000Y-194900000D01*
X492800000Y-152000000D02*
G75*
G02*
X494800000Y-154000000I0J-2000000D01*
G01*
X172000000Y-218300000D02*
G75*
G02*
X170000000Y-220300000I-2000000J0D01*
G01*
X172000000Y-230200000D02*
X172000000Y-243700000D01*
X121500000Y-177400000D02*
X140000000Y-177400000D01*
X269150000Y-269100000D02*
G75*
G02*
X267150000Y-271100000I-2000000J0D01*
G01*
X142000000Y-179400000D02*
X142000000Y-192900000D01*
X142000000Y-243700000D02*
G75*
G02*
X140000000Y-245700000I-2000000J0D01*
G01*
X151500000Y-169500000D02*
G75*
G02*
X149500000Y-167500000I0J2000000D01*
G01*
X475250000Y-280350000D02*
X475250000Y-213950000D01*
X269150000Y-255600000D02*
X269150000Y-269100000D01*
X200000000Y-177400000D02*
G75*
G02*
X202000000Y-179400000I0J-2000000D01*
G01*
X151500000Y-220300000D02*
G75*
G02*
X149500000Y-218300000I0J2000000D01*
G01*
X140000000Y-228200000D02*
G75*
G02*
X142000000Y-230200000I0J-2000000D01*
G01*
X278650000Y-253600000D02*
X297150000Y-253600000D01*
X202000000Y-179400000D02*
X202000000Y-192900000D01*
X472300000Y-167500000D02*
X472300000Y-154000000D01*
X202000000Y-167500000D02*
G75*
G02*
X200000000Y-169500000I-2000000J0D01*
G01*
X216950000Y-244500000D02*
X216950000Y-226000000D01*
X232450000Y-224000000D02*
G75*
G02*
X234450000Y-226000000I0J-2000000D01*
G01*
X170000000Y-194900000D02*
X151500000Y-194900000D01*
X299150000Y-255600000D02*
X299150000Y-269100000D01*
X181500000Y-245700000D02*
G75*
G02*
X179500000Y-243700000I0J2000000D01*
G01*
X494800000Y-154000000D02*
X494800000Y-167500000D01*
X297150000Y-271100000D02*
X278650000Y-271100000D01*
X142000000Y-154000000D02*
X142000000Y-167500000D01*
X151050000Y-247350000D02*
X167050000Y-247350000D01*
X292950000Y-224000000D02*
G75*
G02*
X294950000Y-226000000I0J-2000000D01*
G01*
X121500000Y-228200000D02*
X140000000Y-228200000D01*
X200000000Y-220300000D02*
X181500000Y-220300000D01*
X140000000Y-194900000D02*
X121500000Y-194900000D01*
X439200000Y-251950000D02*
G75*
G02*
X437200000Y-249950000I0J2000000D01*
G01*
X172000000Y-204800000D02*
X172000000Y-218300000D01*
X170000000Y-245700000D02*
X151500000Y-245700000D01*
X277450000Y-226000000D02*
G75*
G02*
X279450000Y-224000000I2000000J0D01*
G01*
X149500000Y-167500000D02*
X149500000Y-154000000D01*
X121500000Y-220300000D02*
G75*
G02*
X119500000Y-218300000I0J2000000D01*
G01*
X202000000Y-154000000D02*
X202000000Y-167500000D01*
X140000000Y-152000000D02*
G75*
G02*
X142000000Y-154000000I0J-2000000D01*
G01*
X455200000Y-251950000D02*
X439200000Y-251950000D01*
X119500000Y-218300000D02*
X119500000Y-204800000D01*
X172000000Y-179400000D02*
X172000000Y-192900000D01*
X248650000Y-253600000D02*
X267150000Y-253600000D01*
X202000000Y-243700000D02*
G75*
G02*
X200000000Y-245700000I-2000000J0D01*
G01*
X505850000Y-142000000D02*
X505850000Y-293000000D01*
X179500000Y-243700000D02*
X179500000Y-230200000D01*
X140000000Y-202800000D02*
G75*
G02*
X142000000Y-204800000I0J-2000000D01*
G01*
X119500000Y-243700000D02*
X119500000Y-230200000D01*
X474300000Y-169500000D02*
G75*
G02*
X472300000Y-167500000I0J2000000D01*
G01*
X140000000Y-245700000D02*
X121500000Y-245700000D01*
X200000000Y-228200000D02*
G75*
G02*
X202000000Y-230200000I0J-2000000D01*
G01*
X149050000Y-249350000D02*
G75*
G02*
X151050000Y-247350000I2000000J0D01*
G01*
X119500000Y-204800000D02*
G75*
G02*
X121500000Y-202800000I2000000J0D01*
G01*
X474300000Y-152000000D02*
X492800000Y-152000000D01*
X139050000Y-249350000D02*
X139050000Y-285350000D01*
X181500000Y-228200000D02*
X200000000Y-228200000D01*
X170000000Y-169500000D02*
X151500000Y-169500000D01*
X179500000Y-204800000D02*
G75*
G02*
X181500000Y-202800000I2000000J0D01*
G01*
X455200000Y-211950000D02*
G75*
G02*
X457200000Y-213950000I0J-2000000D01*
G01*
X181500000Y-169500000D02*
G75*
G02*
X179500000Y-167500000I0J2000000D01*
G01*
X172000000Y-243700000D02*
G75*
G02*
X170000000Y-245700000I-2000000J0D01*
G01*
X149500000Y-218300000D02*
X149500000Y-204800000D01*
X181500000Y-276100000D02*
G75*
G02*
X179500000Y-274100000I0J2000000D01*
G01*
X149500000Y-204800000D02*
G75*
G02*
X151500000Y-202800000I2000000J0D01*
G01*
X149500000Y-154000000D02*
G75*
G02*
X151500000Y-152000000I2000000J0D01*
G01*
X181500000Y-194900000D02*
G75*
G02*
X179500000Y-192900000I0J2000000D01*
G01*
X179500000Y-218300000D02*
X179500000Y-204800000D01*
X276650000Y-255600000D02*
G75*
G02*
X278650000Y-253600000I2000000J0D01*
G01*
X267150000Y-253600000D02*
G75*
G02*
X269150000Y-255600000I0J-2000000D01*
G01*
X140000000Y-169500000D02*
X121500000Y-169500000D01*
X202000000Y-204800000D02*
X202000000Y-218300000D01*
X119050000Y-249350000D02*
G75*
G02*
X121050000Y-247350000I2000000J0D01*
G01*
X114550000Y-142000000D02*
G75*
G02*
X116550000Y-140000000I2000000J0D01*
G01*
X495250000Y-280350000D02*
G75*
G02*
X493250000Y-282350000I-2000000J0D01*
G01*
X262950000Y-224000000D02*
G75*
G02*
X264950000Y-226000000I0J-2000000D01*
G01*
X202000000Y-260600000D02*
X202000000Y-274100000D01*
X234450000Y-226000000D02*
X234450000Y-244500000D01*
X142000000Y-192900000D02*
G75*
G02*
X140000000Y-194900000I-2000000J0D01*
G01*
X172000000Y-167500000D02*
G75*
G02*
X170000000Y-169500000I-2000000J0D01*
G01*
X149500000Y-230200000D02*
G75*
G02*
X151500000Y-228200000I2000000J0D01*
G01*
X149500000Y-179400000D02*
G75*
G02*
X151500000Y-177400000I2000000J0D01*
G01*
X179500000Y-179400000D02*
G75*
G02*
X181500000Y-177400000I2000000J0D01*
G01*
X149050000Y-285350000D02*
X149050000Y-249350000D01*
X142000000Y-230200000D02*
X142000000Y-243700000D01*
X151500000Y-194900000D02*
G75*
G02*
X149500000Y-192900000I0J2000000D01*
G01*
X200000000Y-245700000D02*
X181500000Y-245700000D01*
X179500000Y-230200000D02*
G75*
G02*
X181500000Y-228200000I2000000J0D01*
G01*
X437200000Y-249950000D02*
X437200000Y-213950000D01*
X202000000Y-230200000D02*
X202000000Y-243700000D01*
X151500000Y-245700000D02*
G75*
G02*
X149500000Y-243700000I0J2000000D01*
G01*
X119500000Y-179400000D02*
G75*
G02*
X121500000Y-177400000I2000000J0D01*
G01*
X181500000Y-220300000D02*
G75*
G02*
X179500000Y-218300000I0J2000000D01*
G01*
X151500000Y-228200000D02*
X170000000Y-228200000D01*
X121500000Y-169500000D02*
G75*
G02*
X119500000Y-167500000I0J2000000D01*
G01*
X167050000Y-287350000D02*
X151050000Y-287350000D01*
X169050000Y-285350000D02*
G75*
G02*
X167050000Y-287350000I-2000000J0D01*
G01*
X216950000Y-226000000D02*
G75*
G02*
X218950000Y-224000000I2000000J0D01*
G01*
X294950000Y-226000000D02*
X294950000Y-244500000D01*
X167050000Y-247350000D02*
G75*
G02*
X169050000Y-249350000I0J-2000000D01*
G01*
X142000000Y-218300000D02*
G75*
G02*
X140000000Y-220300000I-2000000J0D01*
G01*
X202000000Y-274100000D02*
G75*
G02*
X200000000Y-276100000I-2000000J0D01*
G01*
X457200000Y-213950000D02*
X457200000Y-249950000D01*
X492800000Y-169500000D02*
X474300000Y-169500000D01*
X121500000Y-202800000D02*
X140000000Y-202800000D01*
X279450000Y-224000000D02*
X292950000Y-224000000D01*
X457200000Y-249950000D02*
G75*
G02*
X455200000Y-251950000I-2000000J0D01*
G01*
X181500000Y-152000000D02*
X200000000Y-152000000D01*
X170000000Y-202800000D02*
G75*
G02*
X172000000Y-204800000I0J-2000000D01*
G01*
X119500000Y-167500000D02*
X119500000Y-154000000D01*
X181500000Y-258600000D02*
X200000000Y-258600000D01*
X503850000Y-295000000D02*
X116550000Y-295000000D01*
X505850000Y-293000000D02*
G75*
G02*
X503850000Y-295000000I-2000000J0D01*
G01*
X116550000Y-295000000D02*
G75*
G02*
X114550000Y-293000000I0J2000000D01*
G01*
X119050000Y-285350000D02*
X119050000Y-249350000D01*
X267150000Y-271100000D02*
X248650000Y-271100000D01*
X246650000Y-269100000D02*
X246650000Y-255600000D01*
X149500000Y-243700000D02*
X149500000Y-230200000D01*
X264950000Y-244500000D02*
G75*
G02*
X262950000Y-246500000I-2000000J0D01*
G01*
X202000000Y-218300000D02*
G75*
G02*
X200000000Y-220300000I-2000000J0D01*
G01*
X119500000Y-230200000D02*
G75*
G02*
X121500000Y-228200000I2000000J0D01*
G01*
X202000000Y-192900000D02*
G75*
G02*
X200000000Y-194900000I-2000000J0D01*
G01*
X121500000Y-152000000D02*
X140000000Y-152000000D01*
X232450000Y-246500000D02*
X218950000Y-246500000D01*
X246650000Y-255600000D02*
G75*
G02*
X248650000Y-253600000I2000000J0D01*
G01*
X119500000Y-154000000D02*
G75*
G02*
X121500000Y-152000000I2000000J0D01*
G01*
X169050000Y-249350000D02*
X169050000Y-285350000D01*
X292950000Y-246500000D02*
X279450000Y-246500000D01*
X218950000Y-224000000D02*
X232450000Y-224000000D01*
X294950000Y-244500000D02*
G75*
G02*
X292950000Y-246500000I-2000000J0D01*
G01*
X299150000Y-269100000D02*
G75*
G02*
X297150000Y-271100000I-2000000J0D01*
G01*
X114550000Y-293000000D02*
X114550000Y-142000000D01*
X249450000Y-224000000D02*
X262950000Y-224000000D01*
X151500000Y-202800000D02*
X170000000Y-202800000D01*
X437200000Y-213950000D02*
G75*
G02*
X439200000Y-211950000I2000000J0D01*
G01*
X151050000Y-287350000D02*
G75*
G02*
X149050000Y-285350000I0J2000000D01*
G01*
X475250000Y-213950000D02*
G75*
G02*
X477250000Y-211950000I2000000J0D01*
G01*
X477250000Y-282350000D02*
G75*
G02*
X475250000Y-280350000I0J2000000D01*
G01*
X264950000Y-226000000D02*
X264950000Y-244500000D01*
X200000000Y-202800000D02*
G75*
G02*
X202000000Y-204800000I0J-2000000D01*
G01*
X278650000Y-271100000D02*
G75*
G02*
X276650000Y-269100000I0J2000000D01*
G01*
X200000000Y-276100000D02*
X181500000Y-276100000D01*
X181500000Y-177400000D02*
X200000000Y-177400000D01*
X170000000Y-228200000D02*
G75*
G02*
X172000000Y-230200000I0J-2000000D01*
G01*
X172000000Y-154000000D02*
X172000000Y-167500000D01*
X179500000Y-260600000D02*
G75*
G02*
X181500000Y-258600000I2000000J0D01*
G01*
X179500000Y-167500000D02*
X179500000Y-154000000D01*
X439200000Y-211950000D02*
X455200000Y-211950000D01*
X247450000Y-226000000D02*
G75*
G02*
X249450000Y-224000000I2000000J0D01*
G01*
X200000000Y-169500000D02*
X181500000Y-169500000D01*
X493250000Y-211950000D02*
G75*
G02*
X495250000Y-213950000I0J-2000000D01*
G01*
X503850000Y-140000000D02*
G75*
G02*
X505850000Y-142000000I0J-2000000D01*
G01*
X494800000Y-167500000D02*
G75*
G02*
X492800000Y-169500000I-2000000J0D01*
G01*
X234450000Y-244500000D02*
G75*
G02*
X232450000Y-246500000I-2000000J0D01*
G01*
X179500000Y-154000000D02*
G75*
G02*
X181500000Y-152000000I2000000J0D01*
G01*
X249450000Y-246500000D02*
G75*
G02*
X247450000Y-244500000I0J2000000D01*
G01*
X172000000Y-192900000D02*
G75*
G02*
X170000000Y-194900000I-2000000J0D01*
G01*
X472300000Y-154000000D02*
G75*
G02*
X474300000Y-152000000I2000000J0D01*
G01*
X200000000Y-258600000D02*
G75*
G02*
X202000000Y-260600000I0J-2000000D01*
G01*
X170000000Y-177400000D02*
G75*
G02*
X172000000Y-179400000I0J-2000000D01*
G01*
X121050000Y-247350000D02*
X137050000Y-247350000D01*
X276650000Y-269100000D02*
X276650000Y-255600000D01*
X200000000Y-152000000D02*
G75*
G02*
X202000000Y-154000000I0J-2000000D01*
G01*
X181500000Y-202800000D02*
X200000000Y-202800000D01*
X297150000Y-253600000D02*
G75*
G02*
X299150000Y-255600000I0J-2000000D01*
G01*
X140000000Y-177400000D02*
G75*
G02*
X142000000Y-179400000I0J-2000000D01*
G01*
X477250000Y-211950000D02*
X493250000Y-211950000D01*
X262950000Y-246500000D02*
X249450000Y-246500000D01*
X179500000Y-274100000D02*
X179500000Y-260600000D01*
X279450000Y-246500000D02*
G75*
G02*
X277450000Y-244500000I0J2000000D01*
G01*
X151500000Y-177400000D02*
X170000000Y-177400000D01*
M02*
