M48
; DRILL file {KiCad 9.0.6} date 2026-02-23T14:46:03+0100
; FORMAT={-:-/ absolute / metric / decimal}
; #@! TF.CreationDate,2026-02-23T14:46:03+01:00
; #@! TF.GenerationSoftware,Kicad,Pcbnew,9.0.6
; #@! TF.FileFunction,Plated,1,2,PTH
FMAT,2
METRIC
; #@! TA.AperFunction,Plated,PTH,ViaDrill
T1C0.300
; #@! TA.AperFunction,Plated,PTH,ComponentDrill
T2C0.800
; #@! TA.AperFunction,Plated,PTH,ComponentDrill
T3C0.900
; #@! TA.AperFunction,Plated,PTH,ComponentDrill
T4C1.000
; #@! TA.AperFunction,Plated,PTH,ComponentDrill
T5C1.016
; #@! TA.AperFunction,Plated,PTH,ComponentDrill
T6C1.020
; #@! TA.AperFunction,Plated,PTH,ComponentDrill
T7C1.100
; #@! TA.AperFunction,Plated,PTH,ComponentDrill
T8C1.200
; #@! TA.AperFunction,Plated,PTH,ComponentDrill
T9C1.500
; #@! TA.AperFunction,Plated,PTH,ComponentDrill
T10C1.700
%
G90
G05
T1
X210.0Y-219.0
X211.0Y-249.0
X211.0Y-251.0
X214.0Y-273.0
X215.0Y-219.0
X216.0Y-217.0
X224.0Y-269.0
X227.0Y-270.0
X230.0Y-271.0
X233.0Y-272.0
X238.0Y-218.0
X239.0Y-218.0
X240.0Y-218.0
X241.0Y-218.0
X251.0Y-212.0
X251.0Y-213.0
X251.0Y-214.0
X251.0Y-215.0
X262.0Y-212.0
X262.0Y-213.0
X262.0Y-214.0
X262.0Y-215.0
X267.0Y-208.0
X270.324Y-253.496
X271.0Y-209.0
X271.0Y-212.0
X271.0Y-223.0
X272.0Y-200.0
X272.0Y-212.0
X272.0Y-223.0
X273.0Y-208.0
X274.0Y-208.0
X274.0Y-251.0
X274.0Y-252.0
X275.0Y-208.0
X276.0Y-208.0
X276.549Y-197.549
X276.835Y-281.0
X276.843Y-282.021
X277.0Y-284.0
X278.0Y-284.0
X278.5Y-197.5
X279.0Y-281.0
X279.0Y-284.0
X280.0Y-280.0
X280.0Y-281.0
X281.0Y-281.0
X282.0Y-281.0
X283.0Y-281.0
X284.0Y-281.0
X284.0Y-292.0
X284.924Y-288.0
X284.924Y-289.0
X284.933Y-290.0
X285.0Y-196.0
X285.0Y-292.0
X285.398Y-144.602
X286.0Y-195.0
X286.0Y-275.0
X286.0Y-278.0
X286.0Y-290.0
X286.0Y-292.076
X286.413Y-145.451
X287.0Y-290.0
X288.0Y-275.0
X289.0Y-275.0
X289.0Y-291.0
X290.0Y-275.0
X291.0Y-275.0
X292.0Y-275.0
X293.0Y-145.0
X293.0Y-147.0
X293.0Y-148.0
X294.0Y-181.0
X295.0Y-203.0
X295.549Y-183.0
X297.0Y-185.0
X298.0Y-215.0
X298.0Y-217.0
X298.0Y-219.0
X298.0Y-221.0
X298.0Y-223.0
X298.0Y-281.0
X301.0Y-281.0
X304.939Y-274.417
X310.0Y-153.0
X312.0Y-154.0
X319.0Y-257.0
X322.142Y-257.0
X326.44Y-291.0
X344.0Y-224.0
X344.0Y-261.0
X345.0Y-224.0
X345.0Y-261.0
X346.0Y-224.0
X346.0Y-261.0
X347.0Y-224.0
X347.0Y-261.0
X348.0Y-224.0
X348.0Y-261.0
X352.0Y-274.0
X353.0Y-272.0
X354.0Y-228.498
X355.0Y-227.0
X356.0Y-230.0
X361.0Y-185.0
X362.0Y-190.0
X370.0Y-192.0
X372.0Y-208.0
X375.0Y-249.0
X379.0Y-244.0
X387.5Y-241.5
X390.0Y-241.0
X391.0Y-164.0
X409.004Y-240.707
X412.0Y-240.924
X416.0Y-238.0
X418.0Y-163.0
X420.0Y-163.0
X423.0Y-190.0
X426.0Y-256.0
X426.0Y-268.0
X427.0Y-268.0
X443.0Y-196.0
X444.0Y-196.0
X444.902Y-196.0
X446.0Y-196.0
X447.0Y-196.0
X448.0Y-196.0
X452.0Y-284.0
X462.0Y-188.0
X464.0Y-188.0
X465.0Y-154.0
X466.0Y-188.0
T2
X169.05Y-222.98
X176.67Y-222.98
X199.05Y-249.61
X199.05Y-254.69
X206.67Y-249.61
X206.67Y-254.69
X248.57Y-169.26
X248.57Y-171.76
X270.33Y-184.54
X270.33Y-187.04
X320.99Y-222.45
X320.99Y-226.45
X320.99Y-230.45
X320.99Y-234.45
X320.99Y-238.45
X320.99Y-242.45
X320.99Y-246.45
X320.99Y-250.45
X320.99Y-254.45
X320.99Y-258.45
X320.99Y-262.45
X328.61Y-222.45
X328.61Y-226.45
X328.61Y-230.45
X328.61Y-234.45
X328.61Y-238.45
X328.61Y-242.45
X328.61Y-246.45
X328.61Y-250.45
X328.61Y-254.45
X328.61Y-258.45
X328.61Y-262.45
X343.49Y-271.0
X351.11Y-271.0
X355.05Y-274.04
X355.05Y-281.66
X359.05Y-274.04
X359.05Y-281.66
X370.17Y-233.56
X370.17Y-236.06
X370.5Y-274.04
X370.5Y-281.66
X374.5Y-274.04
X374.5Y-281.66
X378.5Y-274.04
X378.5Y-281.66
X385.0Y-173.86
X385.0Y-181.48
X389.4Y-267.35
X389.4Y-274.97
X394.2Y-245.84
X394.2Y-253.46
X396.2Y-212.38
X396.2Y-220.0
X398.2Y-245.84
X398.2Y-253.46
X398.32Y-165.1
X398.32Y-169.91
X400.2Y-212.38
X400.2Y-220.0
X400.86Y-165.1
X400.86Y-169.91
X402.2Y-245.84
X402.2Y-253.46
X403.4Y-165.1
X403.4Y-169.91
X404.2Y-212.38
X404.2Y-220.0
X405.94Y-165.1
X405.94Y-169.91
X406.2Y-245.84
X406.2Y-253.46
X408.2Y-212.38
X408.2Y-220.0
X410.2Y-245.84
X410.2Y-253.46
X415.0Y-224.33
X415.0Y-231.95
X415.0Y-267.35
X415.0Y-274.97
X423.25Y-174.72
X423.25Y-177.26
X423.25Y-179.8
X423.25Y-182.34
X423.4Y-267.35
X423.4Y-274.97
X427.25Y-174.76
X427.25Y-177.26
X430.42Y-284.04
X430.42Y-291.66
X434.42Y-284.04
X434.42Y-291.66
X438.42Y-284.04
X438.42Y-291.66
X442.42Y-284.04
X442.42Y-291.66
X443.32Y-165.1
X443.32Y-169.91
X445.86Y-165.1
X445.86Y-169.91
X446.42Y-284.04
X446.42Y-291.66
X448.4Y-165.1
X448.4Y-169.91
X450.94Y-165.1
X450.94Y-169.91
X460.0Y-267.35
X460.0Y-274.97
X468.25Y-174.72
X468.25Y-177.26
X468.25Y-179.8
X468.25Y-182.34
X472.25Y-174.76
X472.25Y-177.26
T3
X379.73Y-287.85
X382.27Y-287.85
X383.93Y-231.95
X383.93Y-267.35
X386.47Y-231.95
X386.47Y-267.35
X390.33Y-287.85
X392.87Y-287.85
X400.93Y-287.85
X403.47Y-287.85
X411.53Y-287.85
X414.07Y-287.85
X417.93Y-231.95
X417.93Y-267.35
X420.47Y-231.95
X420.47Y-267.35
X422.13Y-287.85
X424.67Y-287.85
X452.18Y-287.85
X454.72Y-287.85
X462.78Y-287.85
X465.32Y-287.85
X473.38Y-287.85
X475.92Y-287.85
X483.98Y-287.85
X486.52Y-287.85
X494.58Y-287.85
X497.12Y-287.85
T4
X381.5Y-181.48
X381.55Y-158.62
X381.55Y-161.16
X381.55Y-163.7
X381.55Y-166.24
X381.55Y-168.78
X381.55Y-171.32
X381.55Y-173.86
X381.55Y-176.4
X381.55Y-178.94
X381.55Y-184.02
X381.55Y-186.56
X381.55Y-189.1
X381.55Y-191.64
T5
X480.17Y-206.15
X482.71Y-206.15
X485.25Y-206.15
X487.79Y-206.15
X490.33Y-206.15
T6
X229.33Y-159.1
X229.33Y-161.64
X229.33Y-164.18
X229.33Y-166.72
X229.33Y-169.26
X229.33Y-171.8
X229.33Y-174.34
X229.33Y-176.88
X229.33Y-179.42
X229.33Y-181.96
X229.33Y-184.5
X229.33Y-187.04
X229.33Y-189.58
X229.33Y-192.12
X229.33Y-194.66
X229.33Y-197.2
X244.57Y-169.26
X244.57Y-171.8
X244.57Y-174.34
X244.57Y-176.88
X244.57Y-179.42
X244.57Y-181.96
X244.57Y-184.5
X244.57Y-187.04
X274.33Y-169.26
X274.33Y-171.8
X274.33Y-174.34
X274.33Y-176.88
X274.33Y-179.42
X274.33Y-181.96
X274.33Y-184.5
X274.33Y-187.04
X289.57Y-159.1
X289.57Y-161.64
X289.57Y-164.18
X289.57Y-166.72
X289.57Y-169.26
X289.57Y-171.8
X289.57Y-174.34
X289.57Y-176.88
X289.57Y-179.42
X289.57Y-181.96
X289.57Y-184.5
X289.57Y-187.04
X289.57Y-189.58
X289.57Y-192.12
X289.57Y-194.66
X289.57Y-197.2
X350.93Y-223.4
X350.93Y-225.94
X350.93Y-228.48
X350.93Y-231.02
X350.93Y-233.56
X350.93Y-236.1
X350.93Y-238.64
X350.93Y-241.18
X350.93Y-243.72
X350.93Y-246.26
X350.93Y-248.8
X350.93Y-251.34
X350.93Y-253.88
X350.93Y-256.42
X350.93Y-258.96
X350.93Y-261.5
X366.17Y-233.56
X366.17Y-236.1
X366.17Y-238.64
X366.17Y-241.18
X366.17Y-243.72
X366.17Y-246.26
X366.17Y-248.8
X366.17Y-251.34
T7
X215.79Y-275.38
X215.79Y-290.62
X218.33Y-275.38
X218.33Y-290.62
X220.87Y-275.38
X220.87Y-290.62
X223.41Y-275.38
X223.41Y-290.62
X225.95Y-275.38
X225.95Y-290.62
X228.49Y-275.38
X228.49Y-290.62
X231.03Y-275.38
X231.03Y-290.62
X233.57Y-275.38
X233.57Y-290.62
X236.11Y-275.38
X236.11Y-290.62
X238.65Y-275.38
X238.65Y-290.62
X241.19Y-275.38
X241.19Y-290.62
X243.73Y-275.38
X243.73Y-290.62
X246.27Y-275.38
X246.27Y-290.62
X248.81Y-275.38
X248.81Y-290.62
X251.35Y-275.38
X251.35Y-290.62
X253.89Y-275.38
X253.89Y-290.62
X256.43Y-275.38
X256.43Y-290.62
X258.97Y-275.38
X258.97Y-290.62
X261.51Y-275.38
X261.51Y-290.62
X264.05Y-275.38
X264.05Y-290.62
X266.59Y-275.38
X266.59Y-290.62
X269.13Y-275.38
X269.13Y-290.62
X271.67Y-275.38
X271.67Y-290.62
X274.21Y-275.38
X274.21Y-290.62
T8
X146.05Y-158.21
X146.05Y-160.75
X146.05Y-163.29
X146.05Y-183.61
X146.05Y-186.15
X146.05Y-188.69
X146.05Y-209.01
X146.05Y-211.55
X146.05Y-214.09
X146.05Y-234.41
X146.05Y-236.95
X146.05Y-239.49
X159.05Y-222.98
X159.05Y-225.52
X176.05Y-158.21
X176.05Y-160.75
X176.05Y-163.29
X176.05Y-183.61
X176.05Y-186.15
X176.05Y-188.69
X176.05Y-209.01
X176.05Y-211.55
X176.05Y-214.09
X176.05Y-234.41
X176.05Y-236.95
X176.05Y-239.49
X189.05Y-249.61
X189.05Y-252.15
X189.05Y-254.69
X206.05Y-158.21
X206.05Y-160.75
X206.05Y-163.29
X206.05Y-183.61
X206.05Y-186.15
X206.05Y-188.69
X206.05Y-209.01
X206.05Y-211.55
X206.05Y-214.09
X206.05Y-234.41
X206.05Y-236.95
X206.05Y-239.49
X206.05Y-264.81
X206.05Y-267.35
X206.05Y-269.89
X212.7Y-148.9
X216.2Y-148.9
X216.2Y-207.4
X223.16Y-218.45
X225.7Y-218.45
X228.24Y-218.45
X235.2Y-148.9
X238.7Y-148.9
X238.7Y-207.4
X253.66Y-218.45
X256.2Y-218.45
X257.7Y-148.9
X258.74Y-218.45
X261.2Y-148.9
X261.2Y-207.4
X273.2Y-259.81
X273.2Y-262.35
X273.2Y-264.89
X280.2Y-148.9
X283.66Y-218.45
X283.7Y-148.9
X283.7Y-207.4
X286.2Y-218.45
X288.74Y-218.45
X288.96Y-287.85
X291.5Y-287.85
X294.04Y-287.85
X297.06Y-277.85
X299.6Y-277.85
X302.14Y-277.85
X303.2Y-259.81
X303.2Y-262.35
X303.2Y-264.89
X305.16Y-287.85
X307.7Y-287.85
X310.24Y-287.85
X311.8Y-213.2
X313.26Y-277.85
X315.3Y-213.2
X315.3Y-271.7
X315.8Y-277.85
X318.34Y-277.85
X321.36Y-287.85
X323.9Y-287.85
X326.44Y-287.85
X329.46Y-277.85
X332.0Y-277.85
X334.3Y-213.2
X334.54Y-277.85
X337.56Y-287.85
X337.8Y-213.2
X337.8Y-271.7
X340.1Y-287.85
X342.64Y-287.85
X345.66Y-277.85
X348.2Y-277.85
X350.74Y-277.85
X353.76Y-287.85
X356.3Y-287.85
X356.8Y-213.2
X358.84Y-287.85
X360.3Y-213.2
X360.3Y-271.7
X363.13Y-277.85
X365.67Y-277.85
X369.96Y-287.85
X372.5Y-287.85
X375.04Y-287.85
X389.2Y-148.9
X392.7Y-148.9
X392.7Y-207.4
X411.7Y-148.9
X415.2Y-148.9
X415.2Y-207.4
X419.2Y-238.26
X419.2Y-240.8
X419.2Y-243.34
X419.2Y-248.38
X419.2Y-250.92
X419.2Y-257.23
X419.2Y-259.77
X434.2Y-148.9
X437.7Y-148.9
X437.7Y-207.4
X456.7Y-148.9
X460.2Y-148.9
X460.2Y-207.4
X466.75Y-158.21
X466.75Y-160.75
X466.75Y-163.29
T9
X399.66Y-237.03
X399.66Y-272.43
X406.01Y-234.49
X406.01Y-269.89
X444.66Y-272.43
X451.01Y-269.89
T10
X210.25Y-153.05
X210.25Y-203.25
X218.65Y-154.25
X218.65Y-202.05
X232.75Y-153.05
X232.75Y-203.25
X241.15Y-154.25
X241.15Y-202.05
X255.25Y-153.05
X255.25Y-203.25
X263.65Y-154.25
X263.65Y-202.05
X277.75Y-153.05
X277.75Y-203.25
X286.15Y-154.25
X286.15Y-202.05
X309.35Y-217.35
X309.35Y-267.55
X317.75Y-218.55
X317.75Y-266.35
X331.85Y-217.35
X331.85Y-267.55
X340.25Y-218.55
X340.25Y-266.35
X354.35Y-217.35
X354.35Y-267.55
X362.75Y-218.55
X362.75Y-266.35
X386.75Y-153.05
X386.75Y-203.25
X395.15Y-154.25
X395.15Y-202.05
X409.25Y-153.05
X409.25Y-203.25
X417.65Y-154.25
X417.65Y-202.05
X431.75Y-153.05
X431.75Y-203.25
X440.15Y-154.25
X440.15Y-202.05
X454.25Y-153.05
X454.25Y-203.25
X462.65Y-154.25
X462.65Y-202.05
M30
