%TF.GenerationSoftware,KiCad,Pcbnew,9.0.6*%
%TF.CreationDate,2026-02-23T17:20:57+01:00*%
%TF.ProjectId,DigitalSynthSchematics,44696769-7461-46c5-9379-6e7468536368,rev?*%
%TF.SameCoordinates,Original*%
%TF.FileFunction,Soldermask,Top*%
%TF.FilePolarity,Negative*%
%FSLAX46Y46*%
G04 Gerber Fmt 4.6, Leading zero omitted, Abs format (unit mm)*
G04 Created by KiCad (PCBNEW 9.0.6) date 2026-02-23 17:20:57*
%MOMM*%
%LPD*%
G01*
G04 APERTURE LIST*
G04 Aperture macros list*
%AMRoundRect*
0 Rectangle with rounded corners*
0 $1 Rounding radius*
0 $2 $3 $4 $5 $6 $7 $8 $9 X,Y pos of 4 corners*
0 Add a 4 corners polygon primitive as box body*
4,1,4,$2,$3,$4,$5,$6,$7,$8,$9,$2,$3,0*
0 Add four circle primitives for the rounded corners*
1,1,$1+$1,$2,$3*
1,1,$1+$1,$4,$5*
1,1,$1+$1,$6,$7*
1,1,$1+$1,$8,$9*
0 Add four rect primitives between the rounded corners*
20,1,$1+$1,$2,$3,$4,$5,0*
20,1,$1+$1,$4,$5,$6,$7,0*
20,1,$1+$1,$6,$7,$8,$9,0*
20,1,$1+$1,$8,$9,$2,$3,0*%
G04 Aperture macros list end*
%ADD10C,4.000000*%
%ADD11C,2.200000*%
%ADD12R,1.800000X1.800000*%
%ADD13C,1.800000*%
%ADD14RoundRect,0.250000X-0.550000X-0.550000X0.550000X-0.550000X0.550000X0.550000X-0.550000X0.550000X0*%
%ADD15C,1.600000*%
%ADD16RoundRect,0.250000X-0.750000X-0.750000X0.750000X-0.750000X0.750000X0.750000X-0.750000X0.750000X0*%
%ADD17C,2.000000*%
%ADD18RoundRect,0.250000X0.750000X0.750000X-0.750000X0.750000X-0.750000X-0.750000X0.750000X-0.750000X0*%
%ADD19RoundRect,0.250000X0.750000X-0.750000X0.750000X0.750000X-0.750000X0.750000X-0.750000X-0.750000X0*%
G04 APERTURE END LIST*
D10*
%TO.C,SW5*%
X387150000Y-213400000D03*
D11*
X384610000Y-218480000D03*
X390960000Y-215940000D03*
%TD*%
D10*
%TO.C,SW24*%
X177600000Y-271000000D03*
D11*
X175060000Y-276080000D03*
X181410000Y-273540000D03*
%TD*%
D10*
%TO.C,SW32*%
X330000000Y-271000000D03*
D11*
X327460000Y-276080000D03*
X333810000Y-273540000D03*
%TD*%
D10*
%TO.C,SW31*%
X310950000Y-271000000D03*
D11*
X308410000Y-276080000D03*
X314760000Y-273540000D03*
%TD*%
D12*
%TO.C,D3*%
X258380000Y-213400000D03*
D13*
X260920000Y-213400000D03*
%TD*%
D10*
%TO.C,SW17*%
X377620000Y-242200000D03*
D11*
X375080000Y-247280000D03*
X381430000Y-244740000D03*
%TD*%
D10*
%TO.C,SW25*%
X196650000Y-271000000D03*
D11*
X194110000Y-276080000D03*
X200460000Y-273540000D03*
%TD*%
D10*
%TO.C,SW35*%
X387150000Y-271000000D03*
D11*
X384610000Y-276080000D03*
X390960000Y-273540000D03*
%TD*%
D10*
%TO.C,SW29*%
X291900000Y-271000000D03*
D11*
X289360000Y-276080000D03*
X295710000Y-273540000D03*
%TD*%
D10*
%TO.C,SW14*%
X282370000Y-242200000D03*
D11*
X279830000Y-247280000D03*
X286180000Y-244740000D03*
%TD*%
D10*
%TO.C,SW19*%
X415720000Y-242200000D03*
D11*
X413180000Y-247280000D03*
X419530000Y-244740000D03*
%TD*%
D10*
%TO.C,SW16*%
X339520000Y-242200000D03*
D11*
X336980000Y-247280000D03*
X343330000Y-244740000D03*
%TD*%
D10*
%TO.C,SW21*%
X472870000Y-242200000D03*
D11*
X470330000Y-247280000D03*
X476680000Y-244740000D03*
%TD*%
D10*
%TO.C,SW15*%
X320470000Y-242200000D03*
D11*
X317930000Y-247280000D03*
X324280000Y-244740000D03*
%TD*%
D12*
%TO.C,D1*%
X236980000Y-213400000D03*
D13*
X239520000Y-213400000D03*
%TD*%
D10*
%TO.C,SW39*%
X463350000Y-271000000D03*
D11*
X460810000Y-276080000D03*
X467160000Y-273540000D03*
%TD*%
D10*
%TO.C,SW18*%
X396670000Y-242200000D03*
D11*
X394130000Y-247280000D03*
X400480000Y-244740000D03*
%TD*%
D10*
%TO.C,SW6*%
X406200000Y-213400000D03*
D11*
X403660000Y-218480000D03*
X410010000Y-215940000D03*
%TD*%
D10*
%TO.C,SW20*%
X453820000Y-242200000D03*
D11*
X451280000Y-247280000D03*
X457630000Y-244740000D03*
%TD*%
D12*
%TO.C,D16*%
X152960000Y-253500000D03*
D13*
X155500000Y-253500000D03*
%TD*%
D10*
%TO.C,SW27*%
X234750000Y-271000000D03*
D11*
X232210000Y-276080000D03*
X238560000Y-273540000D03*
%TD*%
D10*
%TO.C,SW12*%
X244270000Y-242200000D03*
D11*
X241730000Y-247280000D03*
X248080000Y-244740000D03*
%TD*%
D10*
%TO.C,SW36*%
X406200000Y-271000000D03*
D11*
X403660000Y-276080000D03*
X410010000Y-273540000D03*
%TD*%
D10*
%TO.C,SW38*%
X444300000Y-271000000D03*
D11*
X441760000Y-276080000D03*
X448110000Y-273540000D03*
%TD*%
D10*
%TO.C,SW9*%
X463350000Y-213400000D03*
D11*
X460810000Y-218480000D03*
X467160000Y-215940000D03*
%TD*%
D10*
%TO.C,SW28*%
X253800000Y-271000000D03*
D11*
X251260000Y-276080000D03*
X257610000Y-273540000D03*
%TD*%
D10*
%TO.C,SW23*%
X158550000Y-278000000D03*
D11*
X156010000Y-283080000D03*
X162360000Y-280540000D03*
%TD*%
D10*
%TO.C,SW11*%
X206170000Y-242200000D03*
D11*
X203630000Y-247280000D03*
X209980000Y-244740000D03*
%TD*%
D10*
%TO.C,SW10*%
X187120000Y-242200000D03*
D11*
X184580000Y-247280000D03*
X190930000Y-244740000D03*
%TD*%
D10*
%TO.C,SW4*%
X349050000Y-213400000D03*
D11*
X346510000Y-218480000D03*
X352860000Y-215940000D03*
%TD*%
D10*
%TO.C,SW33*%
X368100000Y-271000000D03*
D11*
X365560000Y-276080000D03*
X371910000Y-273540000D03*
%TD*%
D10*
%TO.C,SW40*%
X482400000Y-271000000D03*
D11*
X479860000Y-276080000D03*
X486210000Y-273540000D03*
%TD*%
D10*
%TO.C,SW7*%
X425250000Y-213400000D03*
D11*
X422710000Y-218480000D03*
X429060000Y-215940000D03*
%TD*%
D10*
%TO.C,SW22*%
X139500000Y-278000000D03*
D11*
X136960000Y-283080000D03*
X143310000Y-280540000D03*
%TD*%
D10*
%TO.C,SW3*%
X368100000Y-213400000D03*
D11*
X365560000Y-218480000D03*
X371910000Y-215940000D03*
%TD*%
D10*
%TO.C,SW37*%
X425250000Y-271000000D03*
D11*
X422710000Y-276080000D03*
X429060000Y-273540000D03*
%TD*%
D10*
%TO.C,SW30*%
X272850000Y-271000000D03*
D11*
X270310000Y-276080000D03*
X276660000Y-273540000D03*
%TD*%
D12*
%TO.C,D17*%
X163760000Y-253500000D03*
D13*
X166300000Y-253500000D03*
%TD*%
D10*
%TO.C,SW34*%
X349050000Y-271000000D03*
D11*
X346510000Y-276080000D03*
X352860000Y-273540000D03*
%TD*%
D12*
%TO.C,D4*%
X247580000Y-213400000D03*
D13*
X250120000Y-213400000D03*
%TD*%
D10*
%TO.C,SW2*%
X330000000Y-213400000D03*
D11*
X327460000Y-218480000D03*
X333810000Y-215940000D03*
%TD*%
D10*
%TO.C,SW8*%
X444300000Y-213400000D03*
D11*
X441760000Y-218480000D03*
X448110000Y-215940000D03*
%TD*%
D12*
%TO.C,D15*%
X142360000Y-253500000D03*
D13*
X144900000Y-253500000D03*
%TD*%
D10*
%TO.C,SW13*%
X263320000Y-242200000D03*
D11*
X260780000Y-247280000D03*
X267130000Y-244740000D03*
%TD*%
D12*
%TO.C,D14*%
X131760000Y-253500000D03*
D13*
X134300000Y-253500000D03*
%TD*%
D12*
%TO.C,D2*%
X226380000Y-213400000D03*
D13*
X228920000Y-213400000D03*
%TD*%
D10*
%TO.C,SW26*%
X215700000Y-271000000D03*
D11*
X213160000Y-276080000D03*
X219510000Y-273540000D03*
%TD*%
D10*
%TO.C,SW1*%
X196650000Y-213400000D03*
D11*
X194110000Y-218480000D03*
X200460000Y-215940000D03*
%TD*%
D14*
%TO.C,D26*%
X392860000Y-254200000D03*
D15*
X400480000Y-254200000D03*
%TD*%
D14*
%TO.C,D20*%
X240460000Y-254200000D03*
D15*
X248080000Y-254200000D03*
%TD*%
D14*
%TO.C,D18*%
X183310000Y-254200000D03*
D15*
X190930000Y-254200000D03*
%TD*%
D14*
%TO.C,D39*%
X307140000Y-283000000D03*
D15*
X314760000Y-283000000D03*
%TD*%
D14*
%TO.C,D9*%
X383340000Y-225400000D03*
D15*
X390960000Y-225400000D03*
%TD*%
D14*
%TO.C,D19*%
X202360000Y-254200000D03*
D15*
X209980000Y-254200000D03*
%TD*%
D14*
%TO.C,D48*%
X478590000Y-283000000D03*
D15*
X486210000Y-283000000D03*
%TD*%
D14*
%TO.C,D43*%
X383340000Y-283000000D03*
D15*
X390960000Y-283000000D03*
%TD*%
D16*
%TO.C,J11*%
X250080000Y-225000000D03*
D17*
X252620000Y-225000000D03*
X255160000Y-225000000D03*
%TD*%
D14*
%TO.C,D25*%
X373810000Y-254200000D03*
D15*
X381430000Y-254200000D03*
%TD*%
D14*
%TO.C,D27*%
X411910000Y-254200000D03*
D15*
X419530000Y-254200000D03*
%TD*%
D14*
%TO.C,D6*%
X326190000Y-225400000D03*
D15*
X333810000Y-225400000D03*
%TD*%
D18*
%TO.C,J6*%
X135570000Y-225450000D03*
D17*
X133030000Y-225450000D03*
X130490000Y-225450000D03*
%TD*%
D14*
%TO.C,D40*%
X326190000Y-283000000D03*
D15*
X333810000Y-283000000D03*
%TD*%
D14*
%TO.C,D22*%
X278560000Y-254200000D03*
D15*
X286180000Y-254200000D03*
%TD*%
D16*
%TO.C,J9*%
X221940000Y-225000000D03*
D17*
X224480000Y-225000000D03*
X227020000Y-225000000D03*
%TD*%
D16*
%TO.C,J14*%
X307630000Y-225450000D03*
D17*
X310170000Y-225450000D03*
%TD*%
D14*
%TO.C,D7*%
X364290000Y-225400000D03*
D15*
X371910000Y-225400000D03*
%TD*%
D14*
%TO.C,D44*%
X402390000Y-283000000D03*
D15*
X410010000Y-283000000D03*
%TD*%
D14*
%TO.C,D36*%
X249990000Y-283000000D03*
D15*
X257610000Y-283000000D03*
%TD*%
D19*
%TO.C,J1*%
X152000000Y-215940000D03*
D17*
X152000000Y-213400000D03*
X152000000Y-210860000D03*
%TD*%
D14*
%TO.C,D31*%
X154740000Y-290000000D03*
D15*
X162360000Y-290000000D03*
%TD*%
D14*
%TO.C,D23*%
X316660000Y-254200000D03*
D15*
X324280000Y-254200000D03*
%TD*%
D14*
%TO.C,D45*%
X440490000Y-283000000D03*
D15*
X448110000Y-283000000D03*
%TD*%
D14*
%TO.C,D47*%
X459540000Y-283000000D03*
D15*
X467160000Y-283000000D03*
%TD*%
D16*
%TO.C,J13*%
X264150000Y-225000000D03*
D17*
X266690000Y-225000000D03*
X269230000Y-225000000D03*
%TD*%
D14*
%TO.C,D38*%
X269040000Y-283000000D03*
D15*
X276660000Y-283000000D03*
%TD*%
D14*
%TO.C,D13*%
X459540000Y-225400000D03*
D15*
X467160000Y-225400000D03*
%TD*%
D16*
%TO.C,J4*%
X299320000Y-213400000D03*
D17*
X301860000Y-213400000D03*
X304400000Y-213400000D03*
%TD*%
D14*
%TO.C,D41*%
X364290000Y-283000000D03*
D15*
X371910000Y-283000000D03*
%TD*%
D14*
%TO.C,D5*%
X192840000Y-225400000D03*
D15*
X200460000Y-225400000D03*
%TD*%
D14*
%TO.C,D35*%
X230940000Y-283000000D03*
D15*
X238560000Y-283000000D03*
%TD*%
D18*
%TO.C,J8*%
X167570000Y-225450000D03*
D17*
X165030000Y-225450000D03*
X162490000Y-225450000D03*
%TD*%
D14*
%TO.C,D37*%
X288090000Y-283000000D03*
D15*
X295710000Y-283000000D03*
%TD*%
D14*
%TO.C,D33*%
X192840000Y-283000000D03*
D15*
X200460000Y-283000000D03*
%TD*%
D16*
%TO.C,J3*%
X271180000Y-213400000D03*
D17*
X273720000Y-213400000D03*
X276260000Y-213400000D03*
%TD*%
D14*
%TO.C,D12*%
X440490000Y-225400000D03*
D15*
X448110000Y-225400000D03*
%TD*%
D18*
%TO.C,J7*%
X151570000Y-225450000D03*
D17*
X149030000Y-225450000D03*
X146490000Y-225450000D03*
%TD*%
D14*
%TO.C,D46*%
X421440000Y-283000000D03*
D15*
X429060000Y-283000000D03*
%TD*%
D14*
%TO.C,D8*%
X345240000Y-225400000D03*
D15*
X352860000Y-225400000D03*
%TD*%
D16*
%TO.C,J15*%
X292290000Y-225450000D03*
D17*
X294830000Y-225450000D03*
X297370000Y-225450000D03*
%TD*%
D14*
%TO.C,D10*%
X402390000Y-225400000D03*
D15*
X410010000Y-225400000D03*
%TD*%
D16*
%TO.C,J16*%
X485630000Y-225450000D03*
D17*
X488170000Y-225450000D03*
%TD*%
D14*
%TO.C,D42*%
X345240000Y-283000000D03*
D15*
X352860000Y-283000000D03*
%TD*%
D14*
%TO.C,D30*%
X135690000Y-290000000D03*
D15*
X143310000Y-290000000D03*
%TD*%
D14*
%TO.C,D32*%
X173790000Y-283000000D03*
D15*
X181410000Y-283000000D03*
%TD*%
D14*
%TO.C,D21*%
X259510000Y-254200000D03*
D15*
X267130000Y-254200000D03*
%TD*%
D16*
%TO.C,J10*%
X236010000Y-225000000D03*
D17*
X238550000Y-225000000D03*
X241090000Y-225000000D03*
%TD*%
D14*
%TO.C,D29*%
X469060000Y-254200000D03*
D15*
X476680000Y-254200000D03*
%TD*%
D14*
%TO.C,D11*%
X421440000Y-225400000D03*
D15*
X429060000Y-225400000D03*
%TD*%
D16*
%TO.C,J12*%
X278220000Y-225450000D03*
D17*
X280760000Y-225450000D03*
X283300000Y-225450000D03*
%TD*%
D14*
%TO.C,D34*%
X211890000Y-283000000D03*
D15*
X219510000Y-283000000D03*
%TD*%
D16*
%TO.C,J2*%
X285250000Y-213400000D03*
D17*
X287790000Y-213400000D03*
X290330000Y-213400000D03*
%TD*%
D14*
%TO.C,D24*%
X335710000Y-254200000D03*
D15*
X343330000Y-254200000D03*
%TD*%
D16*
%TO.C,J5*%
X313390000Y-213400000D03*
D17*
X315930000Y-213400000D03*
X318470000Y-213400000D03*
%TD*%
D14*
%TO.C,D28*%
X450010000Y-254200000D03*
D15*
X457630000Y-254200000D03*
%TD*%
M02*
