%TF.GenerationSoftware,KiCad,Pcbnew,9.0.6*%
%TF.CreationDate,2026-02-23T17:20:57+01:00*%
%TF.ProjectId,DigitalSynthSchematics,44696769-7461-46c5-9379-6e7468536368,rev?*%
%TF.SameCoordinates,Original*%
%TF.FileFunction,Legend,Bot*%
%TF.FilePolarity,Positive*%
%FSLAX46Y46*%
G04 Gerber Fmt 4.6, Leading zero omitted, Abs format (unit mm)*
G04 Created by KiCad (PCBNEW 9.0.6) date 2026-02-23 17:20:57*
%MOMM*%
%LPD*%
G01*
G04 APERTURE LIST*
%ADD10C,0.150000*%
%ADD11C,0.120000*%
G04 APERTURE END LIST*
D10*
X397884285Y-256774819D02*
X397884285Y-255774819D01*
X397884285Y-255774819D02*
X397646190Y-255774819D01*
X397646190Y-255774819D02*
X397503333Y-255822438D01*
X397503333Y-255822438D02*
X397408095Y-255917676D01*
X397408095Y-255917676D02*
X397360476Y-256012914D01*
X397360476Y-256012914D02*
X397312857Y-256203390D01*
X397312857Y-256203390D02*
X397312857Y-256346247D01*
X397312857Y-256346247D02*
X397360476Y-256536723D01*
X397360476Y-256536723D02*
X397408095Y-256631961D01*
X397408095Y-256631961D02*
X397503333Y-256727200D01*
X397503333Y-256727200D02*
X397646190Y-256774819D01*
X397646190Y-256774819D02*
X397884285Y-256774819D01*
X396931904Y-255870057D02*
X396884285Y-255822438D01*
X396884285Y-255822438D02*
X396789047Y-255774819D01*
X396789047Y-255774819D02*
X396550952Y-255774819D01*
X396550952Y-255774819D02*
X396455714Y-255822438D01*
X396455714Y-255822438D02*
X396408095Y-255870057D01*
X396408095Y-255870057D02*
X396360476Y-255965295D01*
X396360476Y-255965295D02*
X396360476Y-256060533D01*
X396360476Y-256060533D02*
X396408095Y-256203390D01*
X396408095Y-256203390D02*
X396979523Y-256774819D01*
X396979523Y-256774819D02*
X396360476Y-256774819D01*
X395503333Y-255774819D02*
X395693809Y-255774819D01*
X395693809Y-255774819D02*
X395789047Y-255822438D01*
X395789047Y-255822438D02*
X395836666Y-255870057D01*
X395836666Y-255870057D02*
X395931904Y-256012914D01*
X395931904Y-256012914D02*
X395979523Y-256203390D01*
X395979523Y-256203390D02*
X395979523Y-256584342D01*
X395979523Y-256584342D02*
X395931904Y-256679580D01*
X395931904Y-256679580D02*
X395884285Y-256727200D01*
X395884285Y-256727200D02*
X395789047Y-256774819D01*
X395789047Y-256774819D02*
X395598571Y-256774819D01*
X395598571Y-256774819D02*
X395503333Y-256727200D01*
X395503333Y-256727200D02*
X395455714Y-256679580D01*
X395455714Y-256679580D02*
X395408095Y-256584342D01*
X395408095Y-256584342D02*
X395408095Y-256346247D01*
X395408095Y-256346247D02*
X395455714Y-256251009D01*
X395455714Y-256251009D02*
X395503333Y-256203390D01*
X395503333Y-256203390D02*
X395598571Y-256155771D01*
X395598571Y-256155771D02*
X395789047Y-256155771D01*
X395789047Y-256155771D02*
X395884285Y-256203390D01*
X395884285Y-256203390D02*
X395931904Y-256251009D01*
X395931904Y-256251009D02*
X395979523Y-256346247D01*
X393121904Y-256454819D02*
X393121904Y-255454819D01*
X392550476Y-256454819D02*
X392979047Y-255883390D01*
X392550476Y-255454819D02*
X393121904Y-256026247D01*
X245484285Y-256774819D02*
X245484285Y-255774819D01*
X245484285Y-255774819D02*
X245246190Y-255774819D01*
X245246190Y-255774819D02*
X245103333Y-255822438D01*
X245103333Y-255822438D02*
X245008095Y-255917676D01*
X245008095Y-255917676D02*
X244960476Y-256012914D01*
X244960476Y-256012914D02*
X244912857Y-256203390D01*
X244912857Y-256203390D02*
X244912857Y-256346247D01*
X244912857Y-256346247D02*
X244960476Y-256536723D01*
X244960476Y-256536723D02*
X245008095Y-256631961D01*
X245008095Y-256631961D02*
X245103333Y-256727200D01*
X245103333Y-256727200D02*
X245246190Y-256774819D01*
X245246190Y-256774819D02*
X245484285Y-256774819D01*
X244531904Y-255870057D02*
X244484285Y-255822438D01*
X244484285Y-255822438D02*
X244389047Y-255774819D01*
X244389047Y-255774819D02*
X244150952Y-255774819D01*
X244150952Y-255774819D02*
X244055714Y-255822438D01*
X244055714Y-255822438D02*
X244008095Y-255870057D01*
X244008095Y-255870057D02*
X243960476Y-255965295D01*
X243960476Y-255965295D02*
X243960476Y-256060533D01*
X243960476Y-256060533D02*
X244008095Y-256203390D01*
X244008095Y-256203390D02*
X244579523Y-256774819D01*
X244579523Y-256774819D02*
X243960476Y-256774819D01*
X243341428Y-255774819D02*
X243246190Y-255774819D01*
X243246190Y-255774819D02*
X243150952Y-255822438D01*
X243150952Y-255822438D02*
X243103333Y-255870057D01*
X243103333Y-255870057D02*
X243055714Y-255965295D01*
X243055714Y-255965295D02*
X243008095Y-256155771D01*
X243008095Y-256155771D02*
X243008095Y-256393866D01*
X243008095Y-256393866D02*
X243055714Y-256584342D01*
X243055714Y-256584342D02*
X243103333Y-256679580D01*
X243103333Y-256679580D02*
X243150952Y-256727200D01*
X243150952Y-256727200D02*
X243246190Y-256774819D01*
X243246190Y-256774819D02*
X243341428Y-256774819D01*
X243341428Y-256774819D02*
X243436666Y-256727200D01*
X243436666Y-256727200D02*
X243484285Y-256679580D01*
X243484285Y-256679580D02*
X243531904Y-256584342D01*
X243531904Y-256584342D02*
X243579523Y-256393866D01*
X243579523Y-256393866D02*
X243579523Y-256155771D01*
X243579523Y-256155771D02*
X243531904Y-255965295D01*
X243531904Y-255965295D02*
X243484285Y-255870057D01*
X243484285Y-255870057D02*
X243436666Y-255822438D01*
X243436666Y-255822438D02*
X243341428Y-255774819D01*
X240721904Y-256454819D02*
X240721904Y-255454819D01*
X240150476Y-256454819D02*
X240579047Y-255883390D01*
X240150476Y-255454819D02*
X240721904Y-256026247D01*
X188334285Y-256774819D02*
X188334285Y-255774819D01*
X188334285Y-255774819D02*
X188096190Y-255774819D01*
X188096190Y-255774819D02*
X187953333Y-255822438D01*
X187953333Y-255822438D02*
X187858095Y-255917676D01*
X187858095Y-255917676D02*
X187810476Y-256012914D01*
X187810476Y-256012914D02*
X187762857Y-256203390D01*
X187762857Y-256203390D02*
X187762857Y-256346247D01*
X187762857Y-256346247D02*
X187810476Y-256536723D01*
X187810476Y-256536723D02*
X187858095Y-256631961D01*
X187858095Y-256631961D02*
X187953333Y-256727200D01*
X187953333Y-256727200D02*
X188096190Y-256774819D01*
X188096190Y-256774819D02*
X188334285Y-256774819D01*
X186810476Y-256774819D02*
X187381904Y-256774819D01*
X187096190Y-256774819D02*
X187096190Y-255774819D01*
X187096190Y-255774819D02*
X187191428Y-255917676D01*
X187191428Y-255917676D02*
X187286666Y-256012914D01*
X187286666Y-256012914D02*
X187381904Y-256060533D01*
X186239047Y-256203390D02*
X186334285Y-256155771D01*
X186334285Y-256155771D02*
X186381904Y-256108152D01*
X186381904Y-256108152D02*
X186429523Y-256012914D01*
X186429523Y-256012914D02*
X186429523Y-255965295D01*
X186429523Y-255965295D02*
X186381904Y-255870057D01*
X186381904Y-255870057D02*
X186334285Y-255822438D01*
X186334285Y-255822438D02*
X186239047Y-255774819D01*
X186239047Y-255774819D02*
X186048571Y-255774819D01*
X186048571Y-255774819D02*
X185953333Y-255822438D01*
X185953333Y-255822438D02*
X185905714Y-255870057D01*
X185905714Y-255870057D02*
X185858095Y-255965295D01*
X185858095Y-255965295D02*
X185858095Y-256012914D01*
X185858095Y-256012914D02*
X185905714Y-256108152D01*
X185905714Y-256108152D02*
X185953333Y-256155771D01*
X185953333Y-256155771D02*
X186048571Y-256203390D01*
X186048571Y-256203390D02*
X186239047Y-256203390D01*
X186239047Y-256203390D02*
X186334285Y-256251009D01*
X186334285Y-256251009D02*
X186381904Y-256298628D01*
X186381904Y-256298628D02*
X186429523Y-256393866D01*
X186429523Y-256393866D02*
X186429523Y-256584342D01*
X186429523Y-256584342D02*
X186381904Y-256679580D01*
X186381904Y-256679580D02*
X186334285Y-256727200D01*
X186334285Y-256727200D02*
X186239047Y-256774819D01*
X186239047Y-256774819D02*
X186048571Y-256774819D01*
X186048571Y-256774819D02*
X185953333Y-256727200D01*
X185953333Y-256727200D02*
X185905714Y-256679580D01*
X185905714Y-256679580D02*
X185858095Y-256584342D01*
X185858095Y-256584342D02*
X185858095Y-256393866D01*
X185858095Y-256393866D02*
X185905714Y-256298628D01*
X185905714Y-256298628D02*
X185953333Y-256251009D01*
X185953333Y-256251009D02*
X186048571Y-256203390D01*
X183571904Y-256454819D02*
X183571904Y-255454819D01*
X183000476Y-256454819D02*
X183429047Y-255883390D01*
X183000476Y-255454819D02*
X183571904Y-256026247D01*
X312164285Y-285574819D02*
X312164285Y-284574819D01*
X312164285Y-284574819D02*
X311926190Y-284574819D01*
X311926190Y-284574819D02*
X311783333Y-284622438D01*
X311783333Y-284622438D02*
X311688095Y-284717676D01*
X311688095Y-284717676D02*
X311640476Y-284812914D01*
X311640476Y-284812914D02*
X311592857Y-285003390D01*
X311592857Y-285003390D02*
X311592857Y-285146247D01*
X311592857Y-285146247D02*
X311640476Y-285336723D01*
X311640476Y-285336723D02*
X311688095Y-285431961D01*
X311688095Y-285431961D02*
X311783333Y-285527200D01*
X311783333Y-285527200D02*
X311926190Y-285574819D01*
X311926190Y-285574819D02*
X312164285Y-285574819D01*
X311259523Y-284574819D02*
X310640476Y-284574819D01*
X310640476Y-284574819D02*
X310973809Y-284955771D01*
X310973809Y-284955771D02*
X310830952Y-284955771D01*
X310830952Y-284955771D02*
X310735714Y-285003390D01*
X310735714Y-285003390D02*
X310688095Y-285051009D01*
X310688095Y-285051009D02*
X310640476Y-285146247D01*
X310640476Y-285146247D02*
X310640476Y-285384342D01*
X310640476Y-285384342D02*
X310688095Y-285479580D01*
X310688095Y-285479580D02*
X310735714Y-285527200D01*
X310735714Y-285527200D02*
X310830952Y-285574819D01*
X310830952Y-285574819D02*
X311116666Y-285574819D01*
X311116666Y-285574819D02*
X311211904Y-285527200D01*
X311211904Y-285527200D02*
X311259523Y-285479580D01*
X310164285Y-285574819D02*
X309973809Y-285574819D01*
X309973809Y-285574819D02*
X309878571Y-285527200D01*
X309878571Y-285527200D02*
X309830952Y-285479580D01*
X309830952Y-285479580D02*
X309735714Y-285336723D01*
X309735714Y-285336723D02*
X309688095Y-285146247D01*
X309688095Y-285146247D02*
X309688095Y-284765295D01*
X309688095Y-284765295D02*
X309735714Y-284670057D01*
X309735714Y-284670057D02*
X309783333Y-284622438D01*
X309783333Y-284622438D02*
X309878571Y-284574819D01*
X309878571Y-284574819D02*
X310069047Y-284574819D01*
X310069047Y-284574819D02*
X310164285Y-284622438D01*
X310164285Y-284622438D02*
X310211904Y-284670057D01*
X310211904Y-284670057D02*
X310259523Y-284765295D01*
X310259523Y-284765295D02*
X310259523Y-285003390D01*
X310259523Y-285003390D02*
X310211904Y-285098628D01*
X310211904Y-285098628D02*
X310164285Y-285146247D01*
X310164285Y-285146247D02*
X310069047Y-285193866D01*
X310069047Y-285193866D02*
X309878571Y-285193866D01*
X309878571Y-285193866D02*
X309783333Y-285146247D01*
X309783333Y-285146247D02*
X309735714Y-285098628D01*
X309735714Y-285098628D02*
X309688095Y-285003390D01*
X307401904Y-285254819D02*
X307401904Y-284254819D01*
X306830476Y-285254819D02*
X307259047Y-284683390D01*
X306830476Y-284254819D02*
X307401904Y-284826247D01*
X387888094Y-227974819D02*
X387888094Y-226974819D01*
X387888094Y-226974819D02*
X387649999Y-226974819D01*
X387649999Y-226974819D02*
X387507142Y-227022438D01*
X387507142Y-227022438D02*
X387411904Y-227117676D01*
X387411904Y-227117676D02*
X387364285Y-227212914D01*
X387364285Y-227212914D02*
X387316666Y-227403390D01*
X387316666Y-227403390D02*
X387316666Y-227546247D01*
X387316666Y-227546247D02*
X387364285Y-227736723D01*
X387364285Y-227736723D02*
X387411904Y-227831961D01*
X387411904Y-227831961D02*
X387507142Y-227927200D01*
X387507142Y-227927200D02*
X387649999Y-227974819D01*
X387649999Y-227974819D02*
X387888094Y-227974819D01*
X386840475Y-227974819D02*
X386649999Y-227974819D01*
X386649999Y-227974819D02*
X386554761Y-227927200D01*
X386554761Y-227927200D02*
X386507142Y-227879580D01*
X386507142Y-227879580D02*
X386411904Y-227736723D01*
X386411904Y-227736723D02*
X386364285Y-227546247D01*
X386364285Y-227546247D02*
X386364285Y-227165295D01*
X386364285Y-227165295D02*
X386411904Y-227070057D01*
X386411904Y-227070057D02*
X386459523Y-227022438D01*
X386459523Y-227022438D02*
X386554761Y-226974819D01*
X386554761Y-226974819D02*
X386745237Y-226974819D01*
X386745237Y-226974819D02*
X386840475Y-227022438D01*
X386840475Y-227022438D02*
X386888094Y-227070057D01*
X386888094Y-227070057D02*
X386935713Y-227165295D01*
X386935713Y-227165295D02*
X386935713Y-227403390D01*
X386935713Y-227403390D02*
X386888094Y-227498628D01*
X386888094Y-227498628D02*
X386840475Y-227546247D01*
X386840475Y-227546247D02*
X386745237Y-227593866D01*
X386745237Y-227593866D02*
X386554761Y-227593866D01*
X386554761Y-227593866D02*
X386459523Y-227546247D01*
X386459523Y-227546247D02*
X386411904Y-227498628D01*
X386411904Y-227498628D02*
X386364285Y-227403390D01*
X383601904Y-227654819D02*
X383601904Y-226654819D01*
X383030476Y-227654819D02*
X383459047Y-227083390D01*
X383030476Y-226654819D02*
X383601904Y-227226247D01*
X207384285Y-256774819D02*
X207384285Y-255774819D01*
X207384285Y-255774819D02*
X207146190Y-255774819D01*
X207146190Y-255774819D02*
X207003333Y-255822438D01*
X207003333Y-255822438D02*
X206908095Y-255917676D01*
X206908095Y-255917676D02*
X206860476Y-256012914D01*
X206860476Y-256012914D02*
X206812857Y-256203390D01*
X206812857Y-256203390D02*
X206812857Y-256346247D01*
X206812857Y-256346247D02*
X206860476Y-256536723D01*
X206860476Y-256536723D02*
X206908095Y-256631961D01*
X206908095Y-256631961D02*
X207003333Y-256727200D01*
X207003333Y-256727200D02*
X207146190Y-256774819D01*
X207146190Y-256774819D02*
X207384285Y-256774819D01*
X205860476Y-256774819D02*
X206431904Y-256774819D01*
X206146190Y-256774819D02*
X206146190Y-255774819D01*
X206146190Y-255774819D02*
X206241428Y-255917676D01*
X206241428Y-255917676D02*
X206336666Y-256012914D01*
X206336666Y-256012914D02*
X206431904Y-256060533D01*
X205384285Y-256774819D02*
X205193809Y-256774819D01*
X205193809Y-256774819D02*
X205098571Y-256727200D01*
X205098571Y-256727200D02*
X205050952Y-256679580D01*
X205050952Y-256679580D02*
X204955714Y-256536723D01*
X204955714Y-256536723D02*
X204908095Y-256346247D01*
X204908095Y-256346247D02*
X204908095Y-255965295D01*
X204908095Y-255965295D02*
X204955714Y-255870057D01*
X204955714Y-255870057D02*
X205003333Y-255822438D01*
X205003333Y-255822438D02*
X205098571Y-255774819D01*
X205098571Y-255774819D02*
X205289047Y-255774819D01*
X205289047Y-255774819D02*
X205384285Y-255822438D01*
X205384285Y-255822438D02*
X205431904Y-255870057D01*
X205431904Y-255870057D02*
X205479523Y-255965295D01*
X205479523Y-255965295D02*
X205479523Y-256203390D01*
X205479523Y-256203390D02*
X205431904Y-256298628D01*
X205431904Y-256298628D02*
X205384285Y-256346247D01*
X205384285Y-256346247D02*
X205289047Y-256393866D01*
X205289047Y-256393866D02*
X205098571Y-256393866D01*
X205098571Y-256393866D02*
X205003333Y-256346247D01*
X205003333Y-256346247D02*
X204955714Y-256298628D01*
X204955714Y-256298628D02*
X204908095Y-256203390D01*
X202621904Y-256454819D02*
X202621904Y-255454819D01*
X202050476Y-256454819D02*
X202479047Y-255883390D01*
X202050476Y-255454819D02*
X202621904Y-256026247D01*
X483614285Y-285574819D02*
X483614285Y-284574819D01*
X483614285Y-284574819D02*
X483376190Y-284574819D01*
X483376190Y-284574819D02*
X483233333Y-284622438D01*
X483233333Y-284622438D02*
X483138095Y-284717676D01*
X483138095Y-284717676D02*
X483090476Y-284812914D01*
X483090476Y-284812914D02*
X483042857Y-285003390D01*
X483042857Y-285003390D02*
X483042857Y-285146247D01*
X483042857Y-285146247D02*
X483090476Y-285336723D01*
X483090476Y-285336723D02*
X483138095Y-285431961D01*
X483138095Y-285431961D02*
X483233333Y-285527200D01*
X483233333Y-285527200D02*
X483376190Y-285574819D01*
X483376190Y-285574819D02*
X483614285Y-285574819D01*
X482185714Y-284908152D02*
X482185714Y-285574819D01*
X482423809Y-284527200D02*
X482661904Y-285241485D01*
X482661904Y-285241485D02*
X482042857Y-285241485D01*
X481519047Y-285003390D02*
X481614285Y-284955771D01*
X481614285Y-284955771D02*
X481661904Y-284908152D01*
X481661904Y-284908152D02*
X481709523Y-284812914D01*
X481709523Y-284812914D02*
X481709523Y-284765295D01*
X481709523Y-284765295D02*
X481661904Y-284670057D01*
X481661904Y-284670057D02*
X481614285Y-284622438D01*
X481614285Y-284622438D02*
X481519047Y-284574819D01*
X481519047Y-284574819D02*
X481328571Y-284574819D01*
X481328571Y-284574819D02*
X481233333Y-284622438D01*
X481233333Y-284622438D02*
X481185714Y-284670057D01*
X481185714Y-284670057D02*
X481138095Y-284765295D01*
X481138095Y-284765295D02*
X481138095Y-284812914D01*
X481138095Y-284812914D02*
X481185714Y-284908152D01*
X481185714Y-284908152D02*
X481233333Y-284955771D01*
X481233333Y-284955771D02*
X481328571Y-285003390D01*
X481328571Y-285003390D02*
X481519047Y-285003390D01*
X481519047Y-285003390D02*
X481614285Y-285051009D01*
X481614285Y-285051009D02*
X481661904Y-285098628D01*
X481661904Y-285098628D02*
X481709523Y-285193866D01*
X481709523Y-285193866D02*
X481709523Y-285384342D01*
X481709523Y-285384342D02*
X481661904Y-285479580D01*
X481661904Y-285479580D02*
X481614285Y-285527200D01*
X481614285Y-285527200D02*
X481519047Y-285574819D01*
X481519047Y-285574819D02*
X481328571Y-285574819D01*
X481328571Y-285574819D02*
X481233333Y-285527200D01*
X481233333Y-285527200D02*
X481185714Y-285479580D01*
X481185714Y-285479580D02*
X481138095Y-285384342D01*
X481138095Y-285384342D02*
X481138095Y-285193866D01*
X481138095Y-285193866D02*
X481185714Y-285098628D01*
X481185714Y-285098628D02*
X481233333Y-285051009D01*
X481233333Y-285051009D02*
X481328571Y-285003390D01*
X478851904Y-285254819D02*
X478851904Y-284254819D01*
X478280476Y-285254819D02*
X478709047Y-284683390D01*
X478280476Y-284254819D02*
X478851904Y-284826247D01*
X388364285Y-285574819D02*
X388364285Y-284574819D01*
X388364285Y-284574819D02*
X388126190Y-284574819D01*
X388126190Y-284574819D02*
X387983333Y-284622438D01*
X387983333Y-284622438D02*
X387888095Y-284717676D01*
X387888095Y-284717676D02*
X387840476Y-284812914D01*
X387840476Y-284812914D02*
X387792857Y-285003390D01*
X387792857Y-285003390D02*
X387792857Y-285146247D01*
X387792857Y-285146247D02*
X387840476Y-285336723D01*
X387840476Y-285336723D02*
X387888095Y-285431961D01*
X387888095Y-285431961D02*
X387983333Y-285527200D01*
X387983333Y-285527200D02*
X388126190Y-285574819D01*
X388126190Y-285574819D02*
X388364285Y-285574819D01*
X386935714Y-284908152D02*
X386935714Y-285574819D01*
X387173809Y-284527200D02*
X387411904Y-285241485D01*
X387411904Y-285241485D02*
X386792857Y-285241485D01*
X386507142Y-284574819D02*
X385888095Y-284574819D01*
X385888095Y-284574819D02*
X386221428Y-284955771D01*
X386221428Y-284955771D02*
X386078571Y-284955771D01*
X386078571Y-284955771D02*
X385983333Y-285003390D01*
X385983333Y-285003390D02*
X385935714Y-285051009D01*
X385935714Y-285051009D02*
X385888095Y-285146247D01*
X385888095Y-285146247D02*
X385888095Y-285384342D01*
X385888095Y-285384342D02*
X385935714Y-285479580D01*
X385935714Y-285479580D02*
X385983333Y-285527200D01*
X385983333Y-285527200D02*
X386078571Y-285574819D01*
X386078571Y-285574819D02*
X386364285Y-285574819D01*
X386364285Y-285574819D02*
X386459523Y-285527200D01*
X386459523Y-285527200D02*
X386507142Y-285479580D01*
X383601904Y-285254819D02*
X383601904Y-284254819D01*
X383030476Y-285254819D02*
X383459047Y-284683390D01*
X383030476Y-284254819D02*
X383601904Y-284826247D01*
X253619523Y-228664819D02*
X253619523Y-229379104D01*
X253619523Y-229379104D02*
X253667142Y-229521961D01*
X253667142Y-229521961D02*
X253762380Y-229617200D01*
X253762380Y-229617200D02*
X253905237Y-229664819D01*
X253905237Y-229664819D02*
X254000475Y-229664819D01*
X252619523Y-229664819D02*
X253190951Y-229664819D01*
X252905237Y-229664819D02*
X252905237Y-228664819D01*
X252905237Y-228664819D02*
X253000475Y-228807676D01*
X253000475Y-228807676D02*
X253095713Y-228902914D01*
X253095713Y-228902914D02*
X253190951Y-228950533D01*
X251667142Y-229664819D02*
X252238570Y-229664819D01*
X251952856Y-229664819D02*
X251952856Y-228664819D01*
X251952856Y-228664819D02*
X252048094Y-228807676D01*
X252048094Y-228807676D02*
X252143332Y-228902914D01*
X252143332Y-228902914D02*
X252238570Y-228950533D01*
X378834285Y-256774819D02*
X378834285Y-255774819D01*
X378834285Y-255774819D02*
X378596190Y-255774819D01*
X378596190Y-255774819D02*
X378453333Y-255822438D01*
X378453333Y-255822438D02*
X378358095Y-255917676D01*
X378358095Y-255917676D02*
X378310476Y-256012914D01*
X378310476Y-256012914D02*
X378262857Y-256203390D01*
X378262857Y-256203390D02*
X378262857Y-256346247D01*
X378262857Y-256346247D02*
X378310476Y-256536723D01*
X378310476Y-256536723D02*
X378358095Y-256631961D01*
X378358095Y-256631961D02*
X378453333Y-256727200D01*
X378453333Y-256727200D02*
X378596190Y-256774819D01*
X378596190Y-256774819D02*
X378834285Y-256774819D01*
X377881904Y-255870057D02*
X377834285Y-255822438D01*
X377834285Y-255822438D02*
X377739047Y-255774819D01*
X377739047Y-255774819D02*
X377500952Y-255774819D01*
X377500952Y-255774819D02*
X377405714Y-255822438D01*
X377405714Y-255822438D02*
X377358095Y-255870057D01*
X377358095Y-255870057D02*
X377310476Y-255965295D01*
X377310476Y-255965295D02*
X377310476Y-256060533D01*
X377310476Y-256060533D02*
X377358095Y-256203390D01*
X377358095Y-256203390D02*
X377929523Y-256774819D01*
X377929523Y-256774819D02*
X377310476Y-256774819D01*
X376405714Y-255774819D02*
X376881904Y-255774819D01*
X376881904Y-255774819D02*
X376929523Y-256251009D01*
X376929523Y-256251009D02*
X376881904Y-256203390D01*
X376881904Y-256203390D02*
X376786666Y-256155771D01*
X376786666Y-256155771D02*
X376548571Y-256155771D01*
X376548571Y-256155771D02*
X376453333Y-256203390D01*
X376453333Y-256203390D02*
X376405714Y-256251009D01*
X376405714Y-256251009D02*
X376358095Y-256346247D01*
X376358095Y-256346247D02*
X376358095Y-256584342D01*
X376358095Y-256584342D02*
X376405714Y-256679580D01*
X376405714Y-256679580D02*
X376453333Y-256727200D01*
X376453333Y-256727200D02*
X376548571Y-256774819D01*
X376548571Y-256774819D02*
X376786666Y-256774819D01*
X376786666Y-256774819D02*
X376881904Y-256727200D01*
X376881904Y-256727200D02*
X376929523Y-256679580D01*
X374071904Y-256454819D02*
X374071904Y-255454819D01*
X373500476Y-256454819D02*
X373929047Y-255883390D01*
X373500476Y-255454819D02*
X374071904Y-256026247D01*
X416934285Y-256774819D02*
X416934285Y-255774819D01*
X416934285Y-255774819D02*
X416696190Y-255774819D01*
X416696190Y-255774819D02*
X416553333Y-255822438D01*
X416553333Y-255822438D02*
X416458095Y-255917676D01*
X416458095Y-255917676D02*
X416410476Y-256012914D01*
X416410476Y-256012914D02*
X416362857Y-256203390D01*
X416362857Y-256203390D02*
X416362857Y-256346247D01*
X416362857Y-256346247D02*
X416410476Y-256536723D01*
X416410476Y-256536723D02*
X416458095Y-256631961D01*
X416458095Y-256631961D02*
X416553333Y-256727200D01*
X416553333Y-256727200D02*
X416696190Y-256774819D01*
X416696190Y-256774819D02*
X416934285Y-256774819D01*
X415981904Y-255870057D02*
X415934285Y-255822438D01*
X415934285Y-255822438D02*
X415839047Y-255774819D01*
X415839047Y-255774819D02*
X415600952Y-255774819D01*
X415600952Y-255774819D02*
X415505714Y-255822438D01*
X415505714Y-255822438D02*
X415458095Y-255870057D01*
X415458095Y-255870057D02*
X415410476Y-255965295D01*
X415410476Y-255965295D02*
X415410476Y-256060533D01*
X415410476Y-256060533D02*
X415458095Y-256203390D01*
X415458095Y-256203390D02*
X416029523Y-256774819D01*
X416029523Y-256774819D02*
X415410476Y-256774819D01*
X415077142Y-255774819D02*
X414410476Y-255774819D01*
X414410476Y-255774819D02*
X414839047Y-256774819D01*
X412171904Y-256454819D02*
X412171904Y-255454819D01*
X411600476Y-256454819D02*
X412029047Y-255883390D01*
X411600476Y-255454819D02*
X412171904Y-256026247D01*
X330738094Y-227974819D02*
X330738094Y-226974819D01*
X330738094Y-226974819D02*
X330499999Y-226974819D01*
X330499999Y-226974819D02*
X330357142Y-227022438D01*
X330357142Y-227022438D02*
X330261904Y-227117676D01*
X330261904Y-227117676D02*
X330214285Y-227212914D01*
X330214285Y-227212914D02*
X330166666Y-227403390D01*
X330166666Y-227403390D02*
X330166666Y-227546247D01*
X330166666Y-227546247D02*
X330214285Y-227736723D01*
X330214285Y-227736723D02*
X330261904Y-227831961D01*
X330261904Y-227831961D02*
X330357142Y-227927200D01*
X330357142Y-227927200D02*
X330499999Y-227974819D01*
X330499999Y-227974819D02*
X330738094Y-227974819D01*
X329309523Y-226974819D02*
X329499999Y-226974819D01*
X329499999Y-226974819D02*
X329595237Y-227022438D01*
X329595237Y-227022438D02*
X329642856Y-227070057D01*
X329642856Y-227070057D02*
X329738094Y-227212914D01*
X329738094Y-227212914D02*
X329785713Y-227403390D01*
X329785713Y-227403390D02*
X329785713Y-227784342D01*
X329785713Y-227784342D02*
X329738094Y-227879580D01*
X329738094Y-227879580D02*
X329690475Y-227927200D01*
X329690475Y-227927200D02*
X329595237Y-227974819D01*
X329595237Y-227974819D02*
X329404761Y-227974819D01*
X329404761Y-227974819D02*
X329309523Y-227927200D01*
X329309523Y-227927200D02*
X329261904Y-227879580D01*
X329261904Y-227879580D02*
X329214285Y-227784342D01*
X329214285Y-227784342D02*
X329214285Y-227546247D01*
X329214285Y-227546247D02*
X329261904Y-227451009D01*
X329261904Y-227451009D02*
X329309523Y-227403390D01*
X329309523Y-227403390D02*
X329404761Y-227355771D01*
X329404761Y-227355771D02*
X329595237Y-227355771D01*
X329595237Y-227355771D02*
X329690475Y-227403390D01*
X329690475Y-227403390D02*
X329738094Y-227451009D01*
X329738094Y-227451009D02*
X329785713Y-227546247D01*
X326451904Y-227654819D02*
X326451904Y-226654819D01*
X325880476Y-227654819D02*
X326309047Y-227083390D01*
X325880476Y-226654819D02*
X326451904Y-227226247D01*
X133363333Y-227454819D02*
X133363333Y-228169104D01*
X133363333Y-228169104D02*
X133410952Y-228311961D01*
X133410952Y-228311961D02*
X133506190Y-228407200D01*
X133506190Y-228407200D02*
X133649047Y-228454819D01*
X133649047Y-228454819D02*
X133744285Y-228454819D01*
X132458571Y-227454819D02*
X132649047Y-227454819D01*
X132649047Y-227454819D02*
X132744285Y-227502438D01*
X132744285Y-227502438D02*
X132791904Y-227550057D01*
X132791904Y-227550057D02*
X132887142Y-227692914D01*
X132887142Y-227692914D02*
X132934761Y-227883390D01*
X132934761Y-227883390D02*
X132934761Y-228264342D01*
X132934761Y-228264342D02*
X132887142Y-228359580D01*
X132887142Y-228359580D02*
X132839523Y-228407200D01*
X132839523Y-228407200D02*
X132744285Y-228454819D01*
X132744285Y-228454819D02*
X132553809Y-228454819D01*
X132553809Y-228454819D02*
X132458571Y-228407200D01*
X132458571Y-228407200D02*
X132410952Y-228359580D01*
X132410952Y-228359580D02*
X132363333Y-228264342D01*
X132363333Y-228264342D02*
X132363333Y-228026247D01*
X132363333Y-228026247D02*
X132410952Y-227931009D01*
X132410952Y-227931009D02*
X132458571Y-227883390D01*
X132458571Y-227883390D02*
X132553809Y-227835771D01*
X132553809Y-227835771D02*
X132744285Y-227835771D01*
X132744285Y-227835771D02*
X132839523Y-227883390D01*
X132839523Y-227883390D02*
X132887142Y-227931009D01*
X132887142Y-227931009D02*
X132934761Y-228026247D01*
X331214285Y-285574819D02*
X331214285Y-284574819D01*
X331214285Y-284574819D02*
X330976190Y-284574819D01*
X330976190Y-284574819D02*
X330833333Y-284622438D01*
X330833333Y-284622438D02*
X330738095Y-284717676D01*
X330738095Y-284717676D02*
X330690476Y-284812914D01*
X330690476Y-284812914D02*
X330642857Y-285003390D01*
X330642857Y-285003390D02*
X330642857Y-285146247D01*
X330642857Y-285146247D02*
X330690476Y-285336723D01*
X330690476Y-285336723D02*
X330738095Y-285431961D01*
X330738095Y-285431961D02*
X330833333Y-285527200D01*
X330833333Y-285527200D02*
X330976190Y-285574819D01*
X330976190Y-285574819D02*
X331214285Y-285574819D01*
X329785714Y-284908152D02*
X329785714Y-285574819D01*
X330023809Y-284527200D02*
X330261904Y-285241485D01*
X330261904Y-285241485D02*
X329642857Y-285241485D01*
X329071428Y-284574819D02*
X328976190Y-284574819D01*
X328976190Y-284574819D02*
X328880952Y-284622438D01*
X328880952Y-284622438D02*
X328833333Y-284670057D01*
X328833333Y-284670057D02*
X328785714Y-284765295D01*
X328785714Y-284765295D02*
X328738095Y-284955771D01*
X328738095Y-284955771D02*
X328738095Y-285193866D01*
X328738095Y-285193866D02*
X328785714Y-285384342D01*
X328785714Y-285384342D02*
X328833333Y-285479580D01*
X328833333Y-285479580D02*
X328880952Y-285527200D01*
X328880952Y-285527200D02*
X328976190Y-285574819D01*
X328976190Y-285574819D02*
X329071428Y-285574819D01*
X329071428Y-285574819D02*
X329166666Y-285527200D01*
X329166666Y-285527200D02*
X329214285Y-285479580D01*
X329214285Y-285479580D02*
X329261904Y-285384342D01*
X329261904Y-285384342D02*
X329309523Y-285193866D01*
X329309523Y-285193866D02*
X329309523Y-284955771D01*
X329309523Y-284955771D02*
X329261904Y-284765295D01*
X329261904Y-284765295D02*
X329214285Y-284670057D01*
X329214285Y-284670057D02*
X329166666Y-284622438D01*
X329166666Y-284622438D02*
X329071428Y-284574819D01*
X326451904Y-285254819D02*
X326451904Y-284254819D01*
X325880476Y-285254819D02*
X326309047Y-284683390D01*
X325880476Y-284254819D02*
X326451904Y-284826247D01*
X283584285Y-256774819D02*
X283584285Y-255774819D01*
X283584285Y-255774819D02*
X283346190Y-255774819D01*
X283346190Y-255774819D02*
X283203333Y-255822438D01*
X283203333Y-255822438D02*
X283108095Y-255917676D01*
X283108095Y-255917676D02*
X283060476Y-256012914D01*
X283060476Y-256012914D02*
X283012857Y-256203390D01*
X283012857Y-256203390D02*
X283012857Y-256346247D01*
X283012857Y-256346247D02*
X283060476Y-256536723D01*
X283060476Y-256536723D02*
X283108095Y-256631961D01*
X283108095Y-256631961D02*
X283203333Y-256727200D01*
X283203333Y-256727200D02*
X283346190Y-256774819D01*
X283346190Y-256774819D02*
X283584285Y-256774819D01*
X282631904Y-255870057D02*
X282584285Y-255822438D01*
X282584285Y-255822438D02*
X282489047Y-255774819D01*
X282489047Y-255774819D02*
X282250952Y-255774819D01*
X282250952Y-255774819D02*
X282155714Y-255822438D01*
X282155714Y-255822438D02*
X282108095Y-255870057D01*
X282108095Y-255870057D02*
X282060476Y-255965295D01*
X282060476Y-255965295D02*
X282060476Y-256060533D01*
X282060476Y-256060533D02*
X282108095Y-256203390D01*
X282108095Y-256203390D02*
X282679523Y-256774819D01*
X282679523Y-256774819D02*
X282060476Y-256774819D01*
X281679523Y-255870057D02*
X281631904Y-255822438D01*
X281631904Y-255822438D02*
X281536666Y-255774819D01*
X281536666Y-255774819D02*
X281298571Y-255774819D01*
X281298571Y-255774819D02*
X281203333Y-255822438D01*
X281203333Y-255822438D02*
X281155714Y-255870057D01*
X281155714Y-255870057D02*
X281108095Y-255965295D01*
X281108095Y-255965295D02*
X281108095Y-256060533D01*
X281108095Y-256060533D02*
X281155714Y-256203390D01*
X281155714Y-256203390D02*
X281727142Y-256774819D01*
X281727142Y-256774819D02*
X281108095Y-256774819D01*
X278821904Y-256454819D02*
X278821904Y-255454819D01*
X278250476Y-256454819D02*
X278679047Y-255883390D01*
X278250476Y-255454819D02*
X278821904Y-256026247D01*
X224813333Y-228674819D02*
X224813333Y-229389104D01*
X224813333Y-229389104D02*
X224860952Y-229531961D01*
X224860952Y-229531961D02*
X224956190Y-229627200D01*
X224956190Y-229627200D02*
X225099047Y-229674819D01*
X225099047Y-229674819D02*
X225194285Y-229674819D01*
X224289523Y-229674819D02*
X224099047Y-229674819D01*
X224099047Y-229674819D02*
X224003809Y-229627200D01*
X224003809Y-229627200D02*
X223956190Y-229579580D01*
X223956190Y-229579580D02*
X223860952Y-229436723D01*
X223860952Y-229436723D02*
X223813333Y-229246247D01*
X223813333Y-229246247D02*
X223813333Y-228865295D01*
X223813333Y-228865295D02*
X223860952Y-228770057D01*
X223860952Y-228770057D02*
X223908571Y-228722438D01*
X223908571Y-228722438D02*
X224003809Y-228674819D01*
X224003809Y-228674819D02*
X224194285Y-228674819D01*
X224194285Y-228674819D02*
X224289523Y-228722438D01*
X224289523Y-228722438D02*
X224337142Y-228770057D01*
X224337142Y-228770057D02*
X224384761Y-228865295D01*
X224384761Y-228865295D02*
X224384761Y-229103390D01*
X224384761Y-229103390D02*
X224337142Y-229198628D01*
X224337142Y-229198628D02*
X224289523Y-229246247D01*
X224289523Y-229246247D02*
X224194285Y-229293866D01*
X224194285Y-229293866D02*
X224003809Y-229293866D01*
X224003809Y-229293866D02*
X223908571Y-229246247D01*
X223908571Y-229246247D02*
X223860952Y-229198628D01*
X223860952Y-229198628D02*
X223813333Y-229103390D01*
X309709523Y-229124819D02*
X309709523Y-229839104D01*
X309709523Y-229839104D02*
X309757142Y-229981961D01*
X309757142Y-229981961D02*
X309852380Y-230077200D01*
X309852380Y-230077200D02*
X309995237Y-230124819D01*
X309995237Y-230124819D02*
X310090475Y-230124819D01*
X308709523Y-230124819D02*
X309280951Y-230124819D01*
X308995237Y-230124819D02*
X308995237Y-229124819D01*
X308995237Y-229124819D02*
X309090475Y-229267676D01*
X309090475Y-229267676D02*
X309185713Y-229362914D01*
X309185713Y-229362914D02*
X309280951Y-229410533D01*
X307852380Y-229458152D02*
X307852380Y-230124819D01*
X308090475Y-229077200D02*
X308328570Y-229791485D01*
X308328570Y-229791485D02*
X307709523Y-229791485D01*
X368838094Y-227974819D02*
X368838094Y-226974819D01*
X368838094Y-226974819D02*
X368599999Y-226974819D01*
X368599999Y-226974819D02*
X368457142Y-227022438D01*
X368457142Y-227022438D02*
X368361904Y-227117676D01*
X368361904Y-227117676D02*
X368314285Y-227212914D01*
X368314285Y-227212914D02*
X368266666Y-227403390D01*
X368266666Y-227403390D02*
X368266666Y-227546247D01*
X368266666Y-227546247D02*
X368314285Y-227736723D01*
X368314285Y-227736723D02*
X368361904Y-227831961D01*
X368361904Y-227831961D02*
X368457142Y-227927200D01*
X368457142Y-227927200D02*
X368599999Y-227974819D01*
X368599999Y-227974819D02*
X368838094Y-227974819D01*
X367933332Y-226974819D02*
X367266666Y-226974819D01*
X367266666Y-226974819D02*
X367695237Y-227974819D01*
X364551904Y-227654819D02*
X364551904Y-226654819D01*
X363980476Y-227654819D02*
X364409047Y-227083390D01*
X363980476Y-226654819D02*
X364551904Y-227226247D01*
X407414285Y-285574819D02*
X407414285Y-284574819D01*
X407414285Y-284574819D02*
X407176190Y-284574819D01*
X407176190Y-284574819D02*
X407033333Y-284622438D01*
X407033333Y-284622438D02*
X406938095Y-284717676D01*
X406938095Y-284717676D02*
X406890476Y-284812914D01*
X406890476Y-284812914D02*
X406842857Y-285003390D01*
X406842857Y-285003390D02*
X406842857Y-285146247D01*
X406842857Y-285146247D02*
X406890476Y-285336723D01*
X406890476Y-285336723D02*
X406938095Y-285431961D01*
X406938095Y-285431961D02*
X407033333Y-285527200D01*
X407033333Y-285527200D02*
X407176190Y-285574819D01*
X407176190Y-285574819D02*
X407414285Y-285574819D01*
X405985714Y-284908152D02*
X405985714Y-285574819D01*
X406223809Y-284527200D02*
X406461904Y-285241485D01*
X406461904Y-285241485D02*
X405842857Y-285241485D01*
X405033333Y-284908152D02*
X405033333Y-285574819D01*
X405271428Y-284527200D02*
X405509523Y-285241485D01*
X405509523Y-285241485D02*
X404890476Y-285241485D01*
X402651904Y-285254819D02*
X402651904Y-284254819D01*
X402080476Y-285254819D02*
X402509047Y-284683390D01*
X402080476Y-284254819D02*
X402651904Y-284826247D01*
X255014285Y-285574819D02*
X255014285Y-284574819D01*
X255014285Y-284574819D02*
X254776190Y-284574819D01*
X254776190Y-284574819D02*
X254633333Y-284622438D01*
X254633333Y-284622438D02*
X254538095Y-284717676D01*
X254538095Y-284717676D02*
X254490476Y-284812914D01*
X254490476Y-284812914D02*
X254442857Y-285003390D01*
X254442857Y-285003390D02*
X254442857Y-285146247D01*
X254442857Y-285146247D02*
X254490476Y-285336723D01*
X254490476Y-285336723D02*
X254538095Y-285431961D01*
X254538095Y-285431961D02*
X254633333Y-285527200D01*
X254633333Y-285527200D02*
X254776190Y-285574819D01*
X254776190Y-285574819D02*
X255014285Y-285574819D01*
X254109523Y-284574819D02*
X253490476Y-284574819D01*
X253490476Y-284574819D02*
X253823809Y-284955771D01*
X253823809Y-284955771D02*
X253680952Y-284955771D01*
X253680952Y-284955771D02*
X253585714Y-285003390D01*
X253585714Y-285003390D02*
X253538095Y-285051009D01*
X253538095Y-285051009D02*
X253490476Y-285146247D01*
X253490476Y-285146247D02*
X253490476Y-285384342D01*
X253490476Y-285384342D02*
X253538095Y-285479580D01*
X253538095Y-285479580D02*
X253585714Y-285527200D01*
X253585714Y-285527200D02*
X253680952Y-285574819D01*
X253680952Y-285574819D02*
X253966666Y-285574819D01*
X253966666Y-285574819D02*
X254061904Y-285527200D01*
X254061904Y-285527200D02*
X254109523Y-285479580D01*
X252633333Y-284574819D02*
X252823809Y-284574819D01*
X252823809Y-284574819D02*
X252919047Y-284622438D01*
X252919047Y-284622438D02*
X252966666Y-284670057D01*
X252966666Y-284670057D02*
X253061904Y-284812914D01*
X253061904Y-284812914D02*
X253109523Y-285003390D01*
X253109523Y-285003390D02*
X253109523Y-285384342D01*
X253109523Y-285384342D02*
X253061904Y-285479580D01*
X253061904Y-285479580D02*
X253014285Y-285527200D01*
X253014285Y-285527200D02*
X252919047Y-285574819D01*
X252919047Y-285574819D02*
X252728571Y-285574819D01*
X252728571Y-285574819D02*
X252633333Y-285527200D01*
X252633333Y-285527200D02*
X252585714Y-285479580D01*
X252585714Y-285479580D02*
X252538095Y-285384342D01*
X252538095Y-285384342D02*
X252538095Y-285146247D01*
X252538095Y-285146247D02*
X252585714Y-285051009D01*
X252585714Y-285051009D02*
X252633333Y-285003390D01*
X252633333Y-285003390D02*
X252728571Y-284955771D01*
X252728571Y-284955771D02*
X252919047Y-284955771D01*
X252919047Y-284955771D02*
X253014285Y-285003390D01*
X253014285Y-285003390D02*
X253061904Y-285051009D01*
X253061904Y-285051009D02*
X253109523Y-285146247D01*
X250251904Y-285254819D02*
X250251904Y-284254819D01*
X249680476Y-285254819D02*
X250109047Y-284683390D01*
X249680476Y-284254819D02*
X250251904Y-284826247D01*
X155674819Y-213066666D02*
X156389104Y-213066666D01*
X156389104Y-213066666D02*
X156531961Y-213019047D01*
X156531961Y-213019047D02*
X156627200Y-212923809D01*
X156627200Y-212923809D02*
X156674819Y-212780952D01*
X156674819Y-212780952D02*
X156674819Y-212685714D01*
X156674819Y-214066666D02*
X156674819Y-213495238D01*
X156674819Y-213780952D02*
X155674819Y-213780952D01*
X155674819Y-213780952D02*
X155817676Y-213685714D01*
X155817676Y-213685714D02*
X155912914Y-213590476D01*
X155912914Y-213590476D02*
X155960533Y-213495238D01*
X159764285Y-292574819D02*
X159764285Y-291574819D01*
X159764285Y-291574819D02*
X159526190Y-291574819D01*
X159526190Y-291574819D02*
X159383333Y-291622438D01*
X159383333Y-291622438D02*
X159288095Y-291717676D01*
X159288095Y-291717676D02*
X159240476Y-291812914D01*
X159240476Y-291812914D02*
X159192857Y-292003390D01*
X159192857Y-292003390D02*
X159192857Y-292146247D01*
X159192857Y-292146247D02*
X159240476Y-292336723D01*
X159240476Y-292336723D02*
X159288095Y-292431961D01*
X159288095Y-292431961D02*
X159383333Y-292527200D01*
X159383333Y-292527200D02*
X159526190Y-292574819D01*
X159526190Y-292574819D02*
X159764285Y-292574819D01*
X158859523Y-291574819D02*
X158240476Y-291574819D01*
X158240476Y-291574819D02*
X158573809Y-291955771D01*
X158573809Y-291955771D02*
X158430952Y-291955771D01*
X158430952Y-291955771D02*
X158335714Y-292003390D01*
X158335714Y-292003390D02*
X158288095Y-292051009D01*
X158288095Y-292051009D02*
X158240476Y-292146247D01*
X158240476Y-292146247D02*
X158240476Y-292384342D01*
X158240476Y-292384342D02*
X158288095Y-292479580D01*
X158288095Y-292479580D02*
X158335714Y-292527200D01*
X158335714Y-292527200D02*
X158430952Y-292574819D01*
X158430952Y-292574819D02*
X158716666Y-292574819D01*
X158716666Y-292574819D02*
X158811904Y-292527200D01*
X158811904Y-292527200D02*
X158859523Y-292479580D01*
X157288095Y-292574819D02*
X157859523Y-292574819D01*
X157573809Y-292574819D02*
X157573809Y-291574819D01*
X157573809Y-291574819D02*
X157669047Y-291717676D01*
X157669047Y-291717676D02*
X157764285Y-291812914D01*
X157764285Y-291812914D02*
X157859523Y-291860533D01*
X155001904Y-292254819D02*
X155001904Y-291254819D01*
X154430476Y-292254819D02*
X154859047Y-291683390D01*
X154430476Y-291254819D02*
X155001904Y-291826247D01*
X321684285Y-256774819D02*
X321684285Y-255774819D01*
X321684285Y-255774819D02*
X321446190Y-255774819D01*
X321446190Y-255774819D02*
X321303333Y-255822438D01*
X321303333Y-255822438D02*
X321208095Y-255917676D01*
X321208095Y-255917676D02*
X321160476Y-256012914D01*
X321160476Y-256012914D02*
X321112857Y-256203390D01*
X321112857Y-256203390D02*
X321112857Y-256346247D01*
X321112857Y-256346247D02*
X321160476Y-256536723D01*
X321160476Y-256536723D02*
X321208095Y-256631961D01*
X321208095Y-256631961D02*
X321303333Y-256727200D01*
X321303333Y-256727200D02*
X321446190Y-256774819D01*
X321446190Y-256774819D02*
X321684285Y-256774819D01*
X320731904Y-255870057D02*
X320684285Y-255822438D01*
X320684285Y-255822438D02*
X320589047Y-255774819D01*
X320589047Y-255774819D02*
X320350952Y-255774819D01*
X320350952Y-255774819D02*
X320255714Y-255822438D01*
X320255714Y-255822438D02*
X320208095Y-255870057D01*
X320208095Y-255870057D02*
X320160476Y-255965295D01*
X320160476Y-255965295D02*
X320160476Y-256060533D01*
X320160476Y-256060533D02*
X320208095Y-256203390D01*
X320208095Y-256203390D02*
X320779523Y-256774819D01*
X320779523Y-256774819D02*
X320160476Y-256774819D01*
X319827142Y-255774819D02*
X319208095Y-255774819D01*
X319208095Y-255774819D02*
X319541428Y-256155771D01*
X319541428Y-256155771D02*
X319398571Y-256155771D01*
X319398571Y-256155771D02*
X319303333Y-256203390D01*
X319303333Y-256203390D02*
X319255714Y-256251009D01*
X319255714Y-256251009D02*
X319208095Y-256346247D01*
X319208095Y-256346247D02*
X319208095Y-256584342D01*
X319208095Y-256584342D02*
X319255714Y-256679580D01*
X319255714Y-256679580D02*
X319303333Y-256727200D01*
X319303333Y-256727200D02*
X319398571Y-256774819D01*
X319398571Y-256774819D02*
X319684285Y-256774819D01*
X319684285Y-256774819D02*
X319779523Y-256727200D01*
X319779523Y-256727200D02*
X319827142Y-256679580D01*
X316921904Y-256454819D02*
X316921904Y-255454819D01*
X316350476Y-256454819D02*
X316779047Y-255883390D01*
X316350476Y-255454819D02*
X316921904Y-256026247D01*
X445514285Y-285574819D02*
X445514285Y-284574819D01*
X445514285Y-284574819D02*
X445276190Y-284574819D01*
X445276190Y-284574819D02*
X445133333Y-284622438D01*
X445133333Y-284622438D02*
X445038095Y-284717676D01*
X445038095Y-284717676D02*
X444990476Y-284812914D01*
X444990476Y-284812914D02*
X444942857Y-285003390D01*
X444942857Y-285003390D02*
X444942857Y-285146247D01*
X444942857Y-285146247D02*
X444990476Y-285336723D01*
X444990476Y-285336723D02*
X445038095Y-285431961D01*
X445038095Y-285431961D02*
X445133333Y-285527200D01*
X445133333Y-285527200D02*
X445276190Y-285574819D01*
X445276190Y-285574819D02*
X445514285Y-285574819D01*
X444085714Y-284908152D02*
X444085714Y-285574819D01*
X444323809Y-284527200D02*
X444561904Y-285241485D01*
X444561904Y-285241485D02*
X443942857Y-285241485D01*
X443085714Y-284574819D02*
X443561904Y-284574819D01*
X443561904Y-284574819D02*
X443609523Y-285051009D01*
X443609523Y-285051009D02*
X443561904Y-285003390D01*
X443561904Y-285003390D02*
X443466666Y-284955771D01*
X443466666Y-284955771D02*
X443228571Y-284955771D01*
X443228571Y-284955771D02*
X443133333Y-285003390D01*
X443133333Y-285003390D02*
X443085714Y-285051009D01*
X443085714Y-285051009D02*
X443038095Y-285146247D01*
X443038095Y-285146247D02*
X443038095Y-285384342D01*
X443038095Y-285384342D02*
X443085714Y-285479580D01*
X443085714Y-285479580D02*
X443133333Y-285527200D01*
X443133333Y-285527200D02*
X443228571Y-285574819D01*
X443228571Y-285574819D02*
X443466666Y-285574819D01*
X443466666Y-285574819D02*
X443561904Y-285527200D01*
X443561904Y-285527200D02*
X443609523Y-285479580D01*
X440751904Y-285254819D02*
X440751904Y-284254819D01*
X440180476Y-285254819D02*
X440609047Y-284683390D01*
X440180476Y-284254819D02*
X440751904Y-284826247D01*
X464564285Y-285574819D02*
X464564285Y-284574819D01*
X464564285Y-284574819D02*
X464326190Y-284574819D01*
X464326190Y-284574819D02*
X464183333Y-284622438D01*
X464183333Y-284622438D02*
X464088095Y-284717676D01*
X464088095Y-284717676D02*
X464040476Y-284812914D01*
X464040476Y-284812914D02*
X463992857Y-285003390D01*
X463992857Y-285003390D02*
X463992857Y-285146247D01*
X463992857Y-285146247D02*
X464040476Y-285336723D01*
X464040476Y-285336723D02*
X464088095Y-285431961D01*
X464088095Y-285431961D02*
X464183333Y-285527200D01*
X464183333Y-285527200D02*
X464326190Y-285574819D01*
X464326190Y-285574819D02*
X464564285Y-285574819D01*
X463135714Y-284908152D02*
X463135714Y-285574819D01*
X463373809Y-284527200D02*
X463611904Y-285241485D01*
X463611904Y-285241485D02*
X462992857Y-285241485D01*
X462707142Y-284574819D02*
X462040476Y-284574819D01*
X462040476Y-284574819D02*
X462469047Y-285574819D01*
X459801904Y-285254819D02*
X459801904Y-284254819D01*
X459230476Y-285254819D02*
X459659047Y-284683390D01*
X459230476Y-284254819D02*
X459801904Y-284826247D01*
X267499523Y-228674819D02*
X267499523Y-229389104D01*
X267499523Y-229389104D02*
X267547142Y-229531961D01*
X267547142Y-229531961D02*
X267642380Y-229627200D01*
X267642380Y-229627200D02*
X267785237Y-229674819D01*
X267785237Y-229674819D02*
X267880475Y-229674819D01*
X266499523Y-229674819D02*
X267070951Y-229674819D01*
X266785237Y-229674819D02*
X266785237Y-228674819D01*
X266785237Y-228674819D02*
X266880475Y-228817676D01*
X266880475Y-228817676D02*
X266975713Y-228912914D01*
X266975713Y-228912914D02*
X267070951Y-228960533D01*
X266166189Y-228674819D02*
X265547142Y-228674819D01*
X265547142Y-228674819D02*
X265880475Y-229055771D01*
X265880475Y-229055771D02*
X265737618Y-229055771D01*
X265737618Y-229055771D02*
X265642380Y-229103390D01*
X265642380Y-229103390D02*
X265594761Y-229151009D01*
X265594761Y-229151009D02*
X265547142Y-229246247D01*
X265547142Y-229246247D02*
X265547142Y-229484342D01*
X265547142Y-229484342D02*
X265594761Y-229579580D01*
X265594761Y-229579580D02*
X265642380Y-229627200D01*
X265642380Y-229627200D02*
X265737618Y-229674819D01*
X265737618Y-229674819D02*
X266023332Y-229674819D01*
X266023332Y-229674819D02*
X266118570Y-229627200D01*
X266118570Y-229627200D02*
X266166189Y-229579580D01*
X274064285Y-285574819D02*
X274064285Y-284574819D01*
X274064285Y-284574819D02*
X273826190Y-284574819D01*
X273826190Y-284574819D02*
X273683333Y-284622438D01*
X273683333Y-284622438D02*
X273588095Y-284717676D01*
X273588095Y-284717676D02*
X273540476Y-284812914D01*
X273540476Y-284812914D02*
X273492857Y-285003390D01*
X273492857Y-285003390D02*
X273492857Y-285146247D01*
X273492857Y-285146247D02*
X273540476Y-285336723D01*
X273540476Y-285336723D02*
X273588095Y-285431961D01*
X273588095Y-285431961D02*
X273683333Y-285527200D01*
X273683333Y-285527200D02*
X273826190Y-285574819D01*
X273826190Y-285574819D02*
X274064285Y-285574819D01*
X273159523Y-284574819D02*
X272540476Y-284574819D01*
X272540476Y-284574819D02*
X272873809Y-284955771D01*
X272873809Y-284955771D02*
X272730952Y-284955771D01*
X272730952Y-284955771D02*
X272635714Y-285003390D01*
X272635714Y-285003390D02*
X272588095Y-285051009D01*
X272588095Y-285051009D02*
X272540476Y-285146247D01*
X272540476Y-285146247D02*
X272540476Y-285384342D01*
X272540476Y-285384342D02*
X272588095Y-285479580D01*
X272588095Y-285479580D02*
X272635714Y-285527200D01*
X272635714Y-285527200D02*
X272730952Y-285574819D01*
X272730952Y-285574819D02*
X273016666Y-285574819D01*
X273016666Y-285574819D02*
X273111904Y-285527200D01*
X273111904Y-285527200D02*
X273159523Y-285479580D01*
X271969047Y-285003390D02*
X272064285Y-284955771D01*
X272064285Y-284955771D02*
X272111904Y-284908152D01*
X272111904Y-284908152D02*
X272159523Y-284812914D01*
X272159523Y-284812914D02*
X272159523Y-284765295D01*
X272159523Y-284765295D02*
X272111904Y-284670057D01*
X272111904Y-284670057D02*
X272064285Y-284622438D01*
X272064285Y-284622438D02*
X271969047Y-284574819D01*
X271969047Y-284574819D02*
X271778571Y-284574819D01*
X271778571Y-284574819D02*
X271683333Y-284622438D01*
X271683333Y-284622438D02*
X271635714Y-284670057D01*
X271635714Y-284670057D02*
X271588095Y-284765295D01*
X271588095Y-284765295D02*
X271588095Y-284812914D01*
X271588095Y-284812914D02*
X271635714Y-284908152D01*
X271635714Y-284908152D02*
X271683333Y-284955771D01*
X271683333Y-284955771D02*
X271778571Y-285003390D01*
X271778571Y-285003390D02*
X271969047Y-285003390D01*
X271969047Y-285003390D02*
X272064285Y-285051009D01*
X272064285Y-285051009D02*
X272111904Y-285098628D01*
X272111904Y-285098628D02*
X272159523Y-285193866D01*
X272159523Y-285193866D02*
X272159523Y-285384342D01*
X272159523Y-285384342D02*
X272111904Y-285479580D01*
X272111904Y-285479580D02*
X272064285Y-285527200D01*
X272064285Y-285527200D02*
X271969047Y-285574819D01*
X271969047Y-285574819D02*
X271778571Y-285574819D01*
X271778571Y-285574819D02*
X271683333Y-285527200D01*
X271683333Y-285527200D02*
X271635714Y-285479580D01*
X271635714Y-285479580D02*
X271588095Y-285384342D01*
X271588095Y-285384342D02*
X271588095Y-285193866D01*
X271588095Y-285193866D02*
X271635714Y-285098628D01*
X271635714Y-285098628D02*
X271683333Y-285051009D01*
X271683333Y-285051009D02*
X271778571Y-285003390D01*
X269301904Y-285254819D02*
X269301904Y-284254819D01*
X268730476Y-285254819D02*
X269159047Y-284683390D01*
X268730476Y-284254819D02*
X269301904Y-284826247D01*
X464564285Y-227974819D02*
X464564285Y-226974819D01*
X464564285Y-226974819D02*
X464326190Y-226974819D01*
X464326190Y-226974819D02*
X464183333Y-227022438D01*
X464183333Y-227022438D02*
X464088095Y-227117676D01*
X464088095Y-227117676D02*
X464040476Y-227212914D01*
X464040476Y-227212914D02*
X463992857Y-227403390D01*
X463992857Y-227403390D02*
X463992857Y-227546247D01*
X463992857Y-227546247D02*
X464040476Y-227736723D01*
X464040476Y-227736723D02*
X464088095Y-227831961D01*
X464088095Y-227831961D02*
X464183333Y-227927200D01*
X464183333Y-227927200D02*
X464326190Y-227974819D01*
X464326190Y-227974819D02*
X464564285Y-227974819D01*
X463040476Y-227974819D02*
X463611904Y-227974819D01*
X463326190Y-227974819D02*
X463326190Y-226974819D01*
X463326190Y-226974819D02*
X463421428Y-227117676D01*
X463421428Y-227117676D02*
X463516666Y-227212914D01*
X463516666Y-227212914D02*
X463611904Y-227260533D01*
X462707142Y-226974819D02*
X462088095Y-226974819D01*
X462088095Y-226974819D02*
X462421428Y-227355771D01*
X462421428Y-227355771D02*
X462278571Y-227355771D01*
X462278571Y-227355771D02*
X462183333Y-227403390D01*
X462183333Y-227403390D02*
X462135714Y-227451009D01*
X462135714Y-227451009D02*
X462088095Y-227546247D01*
X462088095Y-227546247D02*
X462088095Y-227784342D01*
X462088095Y-227784342D02*
X462135714Y-227879580D01*
X462135714Y-227879580D02*
X462183333Y-227927200D01*
X462183333Y-227927200D02*
X462278571Y-227974819D01*
X462278571Y-227974819D02*
X462564285Y-227974819D01*
X462564285Y-227974819D02*
X462659523Y-227927200D01*
X462659523Y-227927200D02*
X462707142Y-227879580D01*
X459801904Y-227654819D02*
X459801904Y-226654819D01*
X459230476Y-227654819D02*
X459659047Y-227083390D01*
X459230476Y-226654819D02*
X459801904Y-227226247D01*
X302193333Y-217074819D02*
X302193333Y-217789104D01*
X302193333Y-217789104D02*
X302240952Y-217931961D01*
X302240952Y-217931961D02*
X302336190Y-218027200D01*
X302336190Y-218027200D02*
X302479047Y-218074819D01*
X302479047Y-218074819D02*
X302574285Y-218074819D01*
X301288571Y-217408152D02*
X301288571Y-218074819D01*
X301526666Y-217027200D02*
X301764761Y-217741485D01*
X301764761Y-217741485D02*
X301145714Y-217741485D01*
X369314285Y-285574819D02*
X369314285Y-284574819D01*
X369314285Y-284574819D02*
X369076190Y-284574819D01*
X369076190Y-284574819D02*
X368933333Y-284622438D01*
X368933333Y-284622438D02*
X368838095Y-284717676D01*
X368838095Y-284717676D02*
X368790476Y-284812914D01*
X368790476Y-284812914D02*
X368742857Y-285003390D01*
X368742857Y-285003390D02*
X368742857Y-285146247D01*
X368742857Y-285146247D02*
X368790476Y-285336723D01*
X368790476Y-285336723D02*
X368838095Y-285431961D01*
X368838095Y-285431961D02*
X368933333Y-285527200D01*
X368933333Y-285527200D02*
X369076190Y-285574819D01*
X369076190Y-285574819D02*
X369314285Y-285574819D01*
X367885714Y-284908152D02*
X367885714Y-285574819D01*
X368123809Y-284527200D02*
X368361904Y-285241485D01*
X368361904Y-285241485D02*
X367742857Y-285241485D01*
X366838095Y-285574819D02*
X367409523Y-285574819D01*
X367123809Y-285574819D02*
X367123809Y-284574819D01*
X367123809Y-284574819D02*
X367219047Y-284717676D01*
X367219047Y-284717676D02*
X367314285Y-284812914D01*
X367314285Y-284812914D02*
X367409523Y-284860533D01*
X364551904Y-285254819D02*
X364551904Y-284254819D01*
X363980476Y-285254819D02*
X364409047Y-284683390D01*
X363980476Y-284254819D02*
X364551904Y-284826247D01*
X197388094Y-227974819D02*
X197388094Y-226974819D01*
X197388094Y-226974819D02*
X197149999Y-226974819D01*
X197149999Y-226974819D02*
X197007142Y-227022438D01*
X197007142Y-227022438D02*
X196911904Y-227117676D01*
X196911904Y-227117676D02*
X196864285Y-227212914D01*
X196864285Y-227212914D02*
X196816666Y-227403390D01*
X196816666Y-227403390D02*
X196816666Y-227546247D01*
X196816666Y-227546247D02*
X196864285Y-227736723D01*
X196864285Y-227736723D02*
X196911904Y-227831961D01*
X196911904Y-227831961D02*
X197007142Y-227927200D01*
X197007142Y-227927200D02*
X197149999Y-227974819D01*
X197149999Y-227974819D02*
X197388094Y-227974819D01*
X195911904Y-226974819D02*
X196388094Y-226974819D01*
X196388094Y-226974819D02*
X196435713Y-227451009D01*
X196435713Y-227451009D02*
X196388094Y-227403390D01*
X196388094Y-227403390D02*
X196292856Y-227355771D01*
X196292856Y-227355771D02*
X196054761Y-227355771D01*
X196054761Y-227355771D02*
X195959523Y-227403390D01*
X195959523Y-227403390D02*
X195911904Y-227451009D01*
X195911904Y-227451009D02*
X195864285Y-227546247D01*
X195864285Y-227546247D02*
X195864285Y-227784342D01*
X195864285Y-227784342D02*
X195911904Y-227879580D01*
X195911904Y-227879580D02*
X195959523Y-227927200D01*
X195959523Y-227927200D02*
X196054761Y-227974819D01*
X196054761Y-227974819D02*
X196292856Y-227974819D01*
X196292856Y-227974819D02*
X196388094Y-227927200D01*
X196388094Y-227927200D02*
X196435713Y-227879580D01*
X193101904Y-227654819D02*
X193101904Y-226654819D01*
X192530476Y-227654819D02*
X192959047Y-227083390D01*
X192530476Y-226654819D02*
X193101904Y-227226247D01*
X235964285Y-285574819D02*
X235964285Y-284574819D01*
X235964285Y-284574819D02*
X235726190Y-284574819D01*
X235726190Y-284574819D02*
X235583333Y-284622438D01*
X235583333Y-284622438D02*
X235488095Y-284717676D01*
X235488095Y-284717676D02*
X235440476Y-284812914D01*
X235440476Y-284812914D02*
X235392857Y-285003390D01*
X235392857Y-285003390D02*
X235392857Y-285146247D01*
X235392857Y-285146247D02*
X235440476Y-285336723D01*
X235440476Y-285336723D02*
X235488095Y-285431961D01*
X235488095Y-285431961D02*
X235583333Y-285527200D01*
X235583333Y-285527200D02*
X235726190Y-285574819D01*
X235726190Y-285574819D02*
X235964285Y-285574819D01*
X235059523Y-284574819D02*
X234440476Y-284574819D01*
X234440476Y-284574819D02*
X234773809Y-284955771D01*
X234773809Y-284955771D02*
X234630952Y-284955771D01*
X234630952Y-284955771D02*
X234535714Y-285003390D01*
X234535714Y-285003390D02*
X234488095Y-285051009D01*
X234488095Y-285051009D02*
X234440476Y-285146247D01*
X234440476Y-285146247D02*
X234440476Y-285384342D01*
X234440476Y-285384342D02*
X234488095Y-285479580D01*
X234488095Y-285479580D02*
X234535714Y-285527200D01*
X234535714Y-285527200D02*
X234630952Y-285574819D01*
X234630952Y-285574819D02*
X234916666Y-285574819D01*
X234916666Y-285574819D02*
X235011904Y-285527200D01*
X235011904Y-285527200D02*
X235059523Y-285479580D01*
X233535714Y-284574819D02*
X234011904Y-284574819D01*
X234011904Y-284574819D02*
X234059523Y-285051009D01*
X234059523Y-285051009D02*
X234011904Y-285003390D01*
X234011904Y-285003390D02*
X233916666Y-284955771D01*
X233916666Y-284955771D02*
X233678571Y-284955771D01*
X233678571Y-284955771D02*
X233583333Y-285003390D01*
X233583333Y-285003390D02*
X233535714Y-285051009D01*
X233535714Y-285051009D02*
X233488095Y-285146247D01*
X233488095Y-285146247D02*
X233488095Y-285384342D01*
X233488095Y-285384342D02*
X233535714Y-285479580D01*
X233535714Y-285479580D02*
X233583333Y-285527200D01*
X233583333Y-285527200D02*
X233678571Y-285574819D01*
X233678571Y-285574819D02*
X233916666Y-285574819D01*
X233916666Y-285574819D02*
X234011904Y-285527200D01*
X234011904Y-285527200D02*
X234059523Y-285479580D01*
X231201904Y-285254819D02*
X231201904Y-284254819D01*
X230630476Y-285254819D02*
X231059047Y-284683390D01*
X230630476Y-284254819D02*
X231201904Y-284826247D01*
X165363333Y-227454819D02*
X165363333Y-228169104D01*
X165363333Y-228169104D02*
X165410952Y-228311961D01*
X165410952Y-228311961D02*
X165506190Y-228407200D01*
X165506190Y-228407200D02*
X165649047Y-228454819D01*
X165649047Y-228454819D02*
X165744285Y-228454819D01*
X164744285Y-227883390D02*
X164839523Y-227835771D01*
X164839523Y-227835771D02*
X164887142Y-227788152D01*
X164887142Y-227788152D02*
X164934761Y-227692914D01*
X164934761Y-227692914D02*
X164934761Y-227645295D01*
X164934761Y-227645295D02*
X164887142Y-227550057D01*
X164887142Y-227550057D02*
X164839523Y-227502438D01*
X164839523Y-227502438D02*
X164744285Y-227454819D01*
X164744285Y-227454819D02*
X164553809Y-227454819D01*
X164553809Y-227454819D02*
X164458571Y-227502438D01*
X164458571Y-227502438D02*
X164410952Y-227550057D01*
X164410952Y-227550057D02*
X164363333Y-227645295D01*
X164363333Y-227645295D02*
X164363333Y-227692914D01*
X164363333Y-227692914D02*
X164410952Y-227788152D01*
X164410952Y-227788152D02*
X164458571Y-227835771D01*
X164458571Y-227835771D02*
X164553809Y-227883390D01*
X164553809Y-227883390D02*
X164744285Y-227883390D01*
X164744285Y-227883390D02*
X164839523Y-227931009D01*
X164839523Y-227931009D02*
X164887142Y-227978628D01*
X164887142Y-227978628D02*
X164934761Y-228073866D01*
X164934761Y-228073866D02*
X164934761Y-228264342D01*
X164934761Y-228264342D02*
X164887142Y-228359580D01*
X164887142Y-228359580D02*
X164839523Y-228407200D01*
X164839523Y-228407200D02*
X164744285Y-228454819D01*
X164744285Y-228454819D02*
X164553809Y-228454819D01*
X164553809Y-228454819D02*
X164458571Y-228407200D01*
X164458571Y-228407200D02*
X164410952Y-228359580D01*
X164410952Y-228359580D02*
X164363333Y-228264342D01*
X164363333Y-228264342D02*
X164363333Y-228073866D01*
X164363333Y-228073866D02*
X164410952Y-227978628D01*
X164410952Y-227978628D02*
X164458571Y-227931009D01*
X164458571Y-227931009D02*
X164553809Y-227883390D01*
X293114285Y-285574819D02*
X293114285Y-284574819D01*
X293114285Y-284574819D02*
X292876190Y-284574819D01*
X292876190Y-284574819D02*
X292733333Y-284622438D01*
X292733333Y-284622438D02*
X292638095Y-284717676D01*
X292638095Y-284717676D02*
X292590476Y-284812914D01*
X292590476Y-284812914D02*
X292542857Y-285003390D01*
X292542857Y-285003390D02*
X292542857Y-285146247D01*
X292542857Y-285146247D02*
X292590476Y-285336723D01*
X292590476Y-285336723D02*
X292638095Y-285431961D01*
X292638095Y-285431961D02*
X292733333Y-285527200D01*
X292733333Y-285527200D02*
X292876190Y-285574819D01*
X292876190Y-285574819D02*
X293114285Y-285574819D01*
X292209523Y-284574819D02*
X291590476Y-284574819D01*
X291590476Y-284574819D02*
X291923809Y-284955771D01*
X291923809Y-284955771D02*
X291780952Y-284955771D01*
X291780952Y-284955771D02*
X291685714Y-285003390D01*
X291685714Y-285003390D02*
X291638095Y-285051009D01*
X291638095Y-285051009D02*
X291590476Y-285146247D01*
X291590476Y-285146247D02*
X291590476Y-285384342D01*
X291590476Y-285384342D02*
X291638095Y-285479580D01*
X291638095Y-285479580D02*
X291685714Y-285527200D01*
X291685714Y-285527200D02*
X291780952Y-285574819D01*
X291780952Y-285574819D02*
X292066666Y-285574819D01*
X292066666Y-285574819D02*
X292161904Y-285527200D01*
X292161904Y-285527200D02*
X292209523Y-285479580D01*
X291257142Y-284574819D02*
X290590476Y-284574819D01*
X290590476Y-284574819D02*
X291019047Y-285574819D01*
X288351904Y-285254819D02*
X288351904Y-284254819D01*
X287780476Y-285254819D02*
X288209047Y-284683390D01*
X287780476Y-284254819D02*
X288351904Y-284826247D01*
X197864285Y-285574819D02*
X197864285Y-284574819D01*
X197864285Y-284574819D02*
X197626190Y-284574819D01*
X197626190Y-284574819D02*
X197483333Y-284622438D01*
X197483333Y-284622438D02*
X197388095Y-284717676D01*
X197388095Y-284717676D02*
X197340476Y-284812914D01*
X197340476Y-284812914D02*
X197292857Y-285003390D01*
X197292857Y-285003390D02*
X197292857Y-285146247D01*
X197292857Y-285146247D02*
X197340476Y-285336723D01*
X197340476Y-285336723D02*
X197388095Y-285431961D01*
X197388095Y-285431961D02*
X197483333Y-285527200D01*
X197483333Y-285527200D02*
X197626190Y-285574819D01*
X197626190Y-285574819D02*
X197864285Y-285574819D01*
X196959523Y-284574819D02*
X196340476Y-284574819D01*
X196340476Y-284574819D02*
X196673809Y-284955771D01*
X196673809Y-284955771D02*
X196530952Y-284955771D01*
X196530952Y-284955771D02*
X196435714Y-285003390D01*
X196435714Y-285003390D02*
X196388095Y-285051009D01*
X196388095Y-285051009D02*
X196340476Y-285146247D01*
X196340476Y-285146247D02*
X196340476Y-285384342D01*
X196340476Y-285384342D02*
X196388095Y-285479580D01*
X196388095Y-285479580D02*
X196435714Y-285527200D01*
X196435714Y-285527200D02*
X196530952Y-285574819D01*
X196530952Y-285574819D02*
X196816666Y-285574819D01*
X196816666Y-285574819D02*
X196911904Y-285527200D01*
X196911904Y-285527200D02*
X196959523Y-285479580D01*
X196007142Y-284574819D02*
X195388095Y-284574819D01*
X195388095Y-284574819D02*
X195721428Y-284955771D01*
X195721428Y-284955771D02*
X195578571Y-284955771D01*
X195578571Y-284955771D02*
X195483333Y-285003390D01*
X195483333Y-285003390D02*
X195435714Y-285051009D01*
X195435714Y-285051009D02*
X195388095Y-285146247D01*
X195388095Y-285146247D02*
X195388095Y-285384342D01*
X195388095Y-285384342D02*
X195435714Y-285479580D01*
X195435714Y-285479580D02*
X195483333Y-285527200D01*
X195483333Y-285527200D02*
X195578571Y-285574819D01*
X195578571Y-285574819D02*
X195864285Y-285574819D01*
X195864285Y-285574819D02*
X195959523Y-285527200D01*
X195959523Y-285527200D02*
X196007142Y-285479580D01*
X193101904Y-285254819D02*
X193101904Y-284254819D01*
X192530476Y-285254819D02*
X192959047Y-284683390D01*
X192530476Y-284254819D02*
X193101904Y-284826247D01*
X274053333Y-217074819D02*
X274053333Y-217789104D01*
X274053333Y-217789104D02*
X274100952Y-217931961D01*
X274100952Y-217931961D02*
X274196190Y-218027200D01*
X274196190Y-218027200D02*
X274339047Y-218074819D01*
X274339047Y-218074819D02*
X274434285Y-218074819D01*
X273672380Y-217074819D02*
X273053333Y-217074819D01*
X273053333Y-217074819D02*
X273386666Y-217455771D01*
X273386666Y-217455771D02*
X273243809Y-217455771D01*
X273243809Y-217455771D02*
X273148571Y-217503390D01*
X273148571Y-217503390D02*
X273100952Y-217551009D01*
X273100952Y-217551009D02*
X273053333Y-217646247D01*
X273053333Y-217646247D02*
X273053333Y-217884342D01*
X273053333Y-217884342D02*
X273100952Y-217979580D01*
X273100952Y-217979580D02*
X273148571Y-218027200D01*
X273148571Y-218027200D02*
X273243809Y-218074819D01*
X273243809Y-218074819D02*
X273529523Y-218074819D01*
X273529523Y-218074819D02*
X273624761Y-218027200D01*
X273624761Y-218027200D02*
X273672380Y-217979580D01*
X445514285Y-227974819D02*
X445514285Y-226974819D01*
X445514285Y-226974819D02*
X445276190Y-226974819D01*
X445276190Y-226974819D02*
X445133333Y-227022438D01*
X445133333Y-227022438D02*
X445038095Y-227117676D01*
X445038095Y-227117676D02*
X444990476Y-227212914D01*
X444990476Y-227212914D02*
X444942857Y-227403390D01*
X444942857Y-227403390D02*
X444942857Y-227546247D01*
X444942857Y-227546247D02*
X444990476Y-227736723D01*
X444990476Y-227736723D02*
X445038095Y-227831961D01*
X445038095Y-227831961D02*
X445133333Y-227927200D01*
X445133333Y-227927200D02*
X445276190Y-227974819D01*
X445276190Y-227974819D02*
X445514285Y-227974819D01*
X443990476Y-227974819D02*
X444561904Y-227974819D01*
X444276190Y-227974819D02*
X444276190Y-226974819D01*
X444276190Y-226974819D02*
X444371428Y-227117676D01*
X444371428Y-227117676D02*
X444466666Y-227212914D01*
X444466666Y-227212914D02*
X444561904Y-227260533D01*
X443609523Y-227070057D02*
X443561904Y-227022438D01*
X443561904Y-227022438D02*
X443466666Y-226974819D01*
X443466666Y-226974819D02*
X443228571Y-226974819D01*
X443228571Y-226974819D02*
X443133333Y-227022438D01*
X443133333Y-227022438D02*
X443085714Y-227070057D01*
X443085714Y-227070057D02*
X443038095Y-227165295D01*
X443038095Y-227165295D02*
X443038095Y-227260533D01*
X443038095Y-227260533D02*
X443085714Y-227403390D01*
X443085714Y-227403390D02*
X443657142Y-227974819D01*
X443657142Y-227974819D02*
X443038095Y-227974819D01*
X440751904Y-227654819D02*
X440751904Y-226654819D01*
X440180476Y-227654819D02*
X440609047Y-227083390D01*
X440180476Y-226654819D02*
X440751904Y-227226247D01*
X149353333Y-227454819D02*
X149353333Y-228169104D01*
X149353333Y-228169104D02*
X149400952Y-228311961D01*
X149400952Y-228311961D02*
X149496190Y-228407200D01*
X149496190Y-228407200D02*
X149639047Y-228454819D01*
X149639047Y-228454819D02*
X149734285Y-228454819D01*
X148972380Y-227454819D02*
X148305714Y-227454819D01*
X148305714Y-227454819D02*
X148734285Y-228454819D01*
X426464285Y-285574819D02*
X426464285Y-284574819D01*
X426464285Y-284574819D02*
X426226190Y-284574819D01*
X426226190Y-284574819D02*
X426083333Y-284622438D01*
X426083333Y-284622438D02*
X425988095Y-284717676D01*
X425988095Y-284717676D02*
X425940476Y-284812914D01*
X425940476Y-284812914D02*
X425892857Y-285003390D01*
X425892857Y-285003390D02*
X425892857Y-285146247D01*
X425892857Y-285146247D02*
X425940476Y-285336723D01*
X425940476Y-285336723D02*
X425988095Y-285431961D01*
X425988095Y-285431961D02*
X426083333Y-285527200D01*
X426083333Y-285527200D02*
X426226190Y-285574819D01*
X426226190Y-285574819D02*
X426464285Y-285574819D01*
X425035714Y-284908152D02*
X425035714Y-285574819D01*
X425273809Y-284527200D02*
X425511904Y-285241485D01*
X425511904Y-285241485D02*
X424892857Y-285241485D01*
X424083333Y-284574819D02*
X424273809Y-284574819D01*
X424273809Y-284574819D02*
X424369047Y-284622438D01*
X424369047Y-284622438D02*
X424416666Y-284670057D01*
X424416666Y-284670057D02*
X424511904Y-284812914D01*
X424511904Y-284812914D02*
X424559523Y-285003390D01*
X424559523Y-285003390D02*
X424559523Y-285384342D01*
X424559523Y-285384342D02*
X424511904Y-285479580D01*
X424511904Y-285479580D02*
X424464285Y-285527200D01*
X424464285Y-285527200D02*
X424369047Y-285574819D01*
X424369047Y-285574819D02*
X424178571Y-285574819D01*
X424178571Y-285574819D02*
X424083333Y-285527200D01*
X424083333Y-285527200D02*
X424035714Y-285479580D01*
X424035714Y-285479580D02*
X423988095Y-285384342D01*
X423988095Y-285384342D02*
X423988095Y-285146247D01*
X423988095Y-285146247D02*
X424035714Y-285051009D01*
X424035714Y-285051009D02*
X424083333Y-285003390D01*
X424083333Y-285003390D02*
X424178571Y-284955771D01*
X424178571Y-284955771D02*
X424369047Y-284955771D01*
X424369047Y-284955771D02*
X424464285Y-285003390D01*
X424464285Y-285003390D02*
X424511904Y-285051009D01*
X424511904Y-285051009D02*
X424559523Y-285146247D01*
X421701904Y-285254819D02*
X421701904Y-284254819D01*
X421130476Y-285254819D02*
X421559047Y-284683390D01*
X421130476Y-284254819D02*
X421701904Y-284826247D01*
X349788094Y-227974819D02*
X349788094Y-226974819D01*
X349788094Y-226974819D02*
X349549999Y-226974819D01*
X349549999Y-226974819D02*
X349407142Y-227022438D01*
X349407142Y-227022438D02*
X349311904Y-227117676D01*
X349311904Y-227117676D02*
X349264285Y-227212914D01*
X349264285Y-227212914D02*
X349216666Y-227403390D01*
X349216666Y-227403390D02*
X349216666Y-227546247D01*
X349216666Y-227546247D02*
X349264285Y-227736723D01*
X349264285Y-227736723D02*
X349311904Y-227831961D01*
X349311904Y-227831961D02*
X349407142Y-227927200D01*
X349407142Y-227927200D02*
X349549999Y-227974819D01*
X349549999Y-227974819D02*
X349788094Y-227974819D01*
X348645237Y-227403390D02*
X348740475Y-227355771D01*
X348740475Y-227355771D02*
X348788094Y-227308152D01*
X348788094Y-227308152D02*
X348835713Y-227212914D01*
X348835713Y-227212914D02*
X348835713Y-227165295D01*
X348835713Y-227165295D02*
X348788094Y-227070057D01*
X348788094Y-227070057D02*
X348740475Y-227022438D01*
X348740475Y-227022438D02*
X348645237Y-226974819D01*
X348645237Y-226974819D02*
X348454761Y-226974819D01*
X348454761Y-226974819D02*
X348359523Y-227022438D01*
X348359523Y-227022438D02*
X348311904Y-227070057D01*
X348311904Y-227070057D02*
X348264285Y-227165295D01*
X348264285Y-227165295D02*
X348264285Y-227212914D01*
X348264285Y-227212914D02*
X348311904Y-227308152D01*
X348311904Y-227308152D02*
X348359523Y-227355771D01*
X348359523Y-227355771D02*
X348454761Y-227403390D01*
X348454761Y-227403390D02*
X348645237Y-227403390D01*
X348645237Y-227403390D02*
X348740475Y-227451009D01*
X348740475Y-227451009D02*
X348788094Y-227498628D01*
X348788094Y-227498628D02*
X348835713Y-227593866D01*
X348835713Y-227593866D02*
X348835713Y-227784342D01*
X348835713Y-227784342D02*
X348788094Y-227879580D01*
X348788094Y-227879580D02*
X348740475Y-227927200D01*
X348740475Y-227927200D02*
X348645237Y-227974819D01*
X348645237Y-227974819D02*
X348454761Y-227974819D01*
X348454761Y-227974819D02*
X348359523Y-227927200D01*
X348359523Y-227927200D02*
X348311904Y-227879580D01*
X348311904Y-227879580D02*
X348264285Y-227784342D01*
X348264285Y-227784342D02*
X348264285Y-227593866D01*
X348264285Y-227593866D02*
X348311904Y-227498628D01*
X348311904Y-227498628D02*
X348359523Y-227451009D01*
X348359523Y-227451009D02*
X348454761Y-227403390D01*
X345501904Y-227654819D02*
X345501904Y-226654819D01*
X344930476Y-227654819D02*
X345359047Y-227083390D01*
X344930476Y-226654819D02*
X345501904Y-227226247D01*
X295639523Y-229124819D02*
X295639523Y-229839104D01*
X295639523Y-229839104D02*
X295687142Y-229981961D01*
X295687142Y-229981961D02*
X295782380Y-230077200D01*
X295782380Y-230077200D02*
X295925237Y-230124819D01*
X295925237Y-230124819D02*
X296020475Y-230124819D01*
X294639523Y-230124819D02*
X295210951Y-230124819D01*
X294925237Y-230124819D02*
X294925237Y-229124819D01*
X294925237Y-229124819D02*
X295020475Y-229267676D01*
X295020475Y-229267676D02*
X295115713Y-229362914D01*
X295115713Y-229362914D02*
X295210951Y-229410533D01*
X293734761Y-229124819D02*
X294210951Y-229124819D01*
X294210951Y-229124819D02*
X294258570Y-229601009D01*
X294258570Y-229601009D02*
X294210951Y-229553390D01*
X294210951Y-229553390D02*
X294115713Y-229505771D01*
X294115713Y-229505771D02*
X293877618Y-229505771D01*
X293877618Y-229505771D02*
X293782380Y-229553390D01*
X293782380Y-229553390D02*
X293734761Y-229601009D01*
X293734761Y-229601009D02*
X293687142Y-229696247D01*
X293687142Y-229696247D02*
X293687142Y-229934342D01*
X293687142Y-229934342D02*
X293734761Y-230029580D01*
X293734761Y-230029580D02*
X293782380Y-230077200D01*
X293782380Y-230077200D02*
X293877618Y-230124819D01*
X293877618Y-230124819D02*
X294115713Y-230124819D01*
X294115713Y-230124819D02*
X294210951Y-230077200D01*
X294210951Y-230077200D02*
X294258570Y-230029580D01*
X407414285Y-227974819D02*
X407414285Y-226974819D01*
X407414285Y-226974819D02*
X407176190Y-226974819D01*
X407176190Y-226974819D02*
X407033333Y-227022438D01*
X407033333Y-227022438D02*
X406938095Y-227117676D01*
X406938095Y-227117676D02*
X406890476Y-227212914D01*
X406890476Y-227212914D02*
X406842857Y-227403390D01*
X406842857Y-227403390D02*
X406842857Y-227546247D01*
X406842857Y-227546247D02*
X406890476Y-227736723D01*
X406890476Y-227736723D02*
X406938095Y-227831961D01*
X406938095Y-227831961D02*
X407033333Y-227927200D01*
X407033333Y-227927200D02*
X407176190Y-227974819D01*
X407176190Y-227974819D02*
X407414285Y-227974819D01*
X405890476Y-227974819D02*
X406461904Y-227974819D01*
X406176190Y-227974819D02*
X406176190Y-226974819D01*
X406176190Y-226974819D02*
X406271428Y-227117676D01*
X406271428Y-227117676D02*
X406366666Y-227212914D01*
X406366666Y-227212914D02*
X406461904Y-227260533D01*
X405271428Y-226974819D02*
X405176190Y-226974819D01*
X405176190Y-226974819D02*
X405080952Y-227022438D01*
X405080952Y-227022438D02*
X405033333Y-227070057D01*
X405033333Y-227070057D02*
X404985714Y-227165295D01*
X404985714Y-227165295D02*
X404938095Y-227355771D01*
X404938095Y-227355771D02*
X404938095Y-227593866D01*
X404938095Y-227593866D02*
X404985714Y-227784342D01*
X404985714Y-227784342D02*
X405033333Y-227879580D01*
X405033333Y-227879580D02*
X405080952Y-227927200D01*
X405080952Y-227927200D02*
X405176190Y-227974819D01*
X405176190Y-227974819D02*
X405271428Y-227974819D01*
X405271428Y-227974819D02*
X405366666Y-227927200D01*
X405366666Y-227927200D02*
X405414285Y-227879580D01*
X405414285Y-227879580D02*
X405461904Y-227784342D01*
X405461904Y-227784342D02*
X405509523Y-227593866D01*
X405509523Y-227593866D02*
X405509523Y-227355771D01*
X405509523Y-227355771D02*
X405461904Y-227165295D01*
X405461904Y-227165295D02*
X405414285Y-227070057D01*
X405414285Y-227070057D02*
X405366666Y-227022438D01*
X405366666Y-227022438D02*
X405271428Y-226974819D01*
X402651904Y-227654819D02*
X402651904Y-226654819D01*
X402080476Y-227654819D02*
X402509047Y-227083390D01*
X402080476Y-226654819D02*
X402651904Y-227226247D01*
X487709523Y-229124819D02*
X487709523Y-229839104D01*
X487709523Y-229839104D02*
X487757142Y-229981961D01*
X487757142Y-229981961D02*
X487852380Y-230077200D01*
X487852380Y-230077200D02*
X487995237Y-230124819D01*
X487995237Y-230124819D02*
X488090475Y-230124819D01*
X486709523Y-230124819D02*
X487280951Y-230124819D01*
X486995237Y-230124819D02*
X486995237Y-229124819D01*
X486995237Y-229124819D02*
X487090475Y-229267676D01*
X487090475Y-229267676D02*
X487185713Y-229362914D01*
X487185713Y-229362914D02*
X487280951Y-229410533D01*
X485852380Y-229124819D02*
X486042856Y-229124819D01*
X486042856Y-229124819D02*
X486138094Y-229172438D01*
X486138094Y-229172438D02*
X486185713Y-229220057D01*
X486185713Y-229220057D02*
X486280951Y-229362914D01*
X486280951Y-229362914D02*
X486328570Y-229553390D01*
X486328570Y-229553390D02*
X486328570Y-229934342D01*
X486328570Y-229934342D02*
X486280951Y-230029580D01*
X486280951Y-230029580D02*
X486233332Y-230077200D01*
X486233332Y-230077200D02*
X486138094Y-230124819D01*
X486138094Y-230124819D02*
X485947618Y-230124819D01*
X485947618Y-230124819D02*
X485852380Y-230077200D01*
X485852380Y-230077200D02*
X485804761Y-230029580D01*
X485804761Y-230029580D02*
X485757142Y-229934342D01*
X485757142Y-229934342D02*
X485757142Y-229696247D01*
X485757142Y-229696247D02*
X485804761Y-229601009D01*
X485804761Y-229601009D02*
X485852380Y-229553390D01*
X485852380Y-229553390D02*
X485947618Y-229505771D01*
X485947618Y-229505771D02*
X486138094Y-229505771D01*
X486138094Y-229505771D02*
X486233332Y-229553390D01*
X486233332Y-229553390D02*
X486280951Y-229601009D01*
X486280951Y-229601009D02*
X486328570Y-229696247D01*
X350264285Y-285574819D02*
X350264285Y-284574819D01*
X350264285Y-284574819D02*
X350026190Y-284574819D01*
X350026190Y-284574819D02*
X349883333Y-284622438D01*
X349883333Y-284622438D02*
X349788095Y-284717676D01*
X349788095Y-284717676D02*
X349740476Y-284812914D01*
X349740476Y-284812914D02*
X349692857Y-285003390D01*
X349692857Y-285003390D02*
X349692857Y-285146247D01*
X349692857Y-285146247D02*
X349740476Y-285336723D01*
X349740476Y-285336723D02*
X349788095Y-285431961D01*
X349788095Y-285431961D02*
X349883333Y-285527200D01*
X349883333Y-285527200D02*
X350026190Y-285574819D01*
X350026190Y-285574819D02*
X350264285Y-285574819D01*
X348835714Y-284908152D02*
X348835714Y-285574819D01*
X349073809Y-284527200D02*
X349311904Y-285241485D01*
X349311904Y-285241485D02*
X348692857Y-285241485D01*
X348359523Y-284670057D02*
X348311904Y-284622438D01*
X348311904Y-284622438D02*
X348216666Y-284574819D01*
X348216666Y-284574819D02*
X347978571Y-284574819D01*
X347978571Y-284574819D02*
X347883333Y-284622438D01*
X347883333Y-284622438D02*
X347835714Y-284670057D01*
X347835714Y-284670057D02*
X347788095Y-284765295D01*
X347788095Y-284765295D02*
X347788095Y-284860533D01*
X347788095Y-284860533D02*
X347835714Y-285003390D01*
X347835714Y-285003390D02*
X348407142Y-285574819D01*
X348407142Y-285574819D02*
X347788095Y-285574819D01*
X345501904Y-285254819D02*
X345501904Y-284254819D01*
X344930476Y-285254819D02*
X345359047Y-284683390D01*
X344930476Y-284254819D02*
X345501904Y-284826247D01*
X140714285Y-292574819D02*
X140714285Y-291574819D01*
X140714285Y-291574819D02*
X140476190Y-291574819D01*
X140476190Y-291574819D02*
X140333333Y-291622438D01*
X140333333Y-291622438D02*
X140238095Y-291717676D01*
X140238095Y-291717676D02*
X140190476Y-291812914D01*
X140190476Y-291812914D02*
X140142857Y-292003390D01*
X140142857Y-292003390D02*
X140142857Y-292146247D01*
X140142857Y-292146247D02*
X140190476Y-292336723D01*
X140190476Y-292336723D02*
X140238095Y-292431961D01*
X140238095Y-292431961D02*
X140333333Y-292527200D01*
X140333333Y-292527200D02*
X140476190Y-292574819D01*
X140476190Y-292574819D02*
X140714285Y-292574819D01*
X139809523Y-291574819D02*
X139190476Y-291574819D01*
X139190476Y-291574819D02*
X139523809Y-291955771D01*
X139523809Y-291955771D02*
X139380952Y-291955771D01*
X139380952Y-291955771D02*
X139285714Y-292003390D01*
X139285714Y-292003390D02*
X139238095Y-292051009D01*
X139238095Y-292051009D02*
X139190476Y-292146247D01*
X139190476Y-292146247D02*
X139190476Y-292384342D01*
X139190476Y-292384342D02*
X139238095Y-292479580D01*
X139238095Y-292479580D02*
X139285714Y-292527200D01*
X139285714Y-292527200D02*
X139380952Y-292574819D01*
X139380952Y-292574819D02*
X139666666Y-292574819D01*
X139666666Y-292574819D02*
X139761904Y-292527200D01*
X139761904Y-292527200D02*
X139809523Y-292479580D01*
X138571428Y-291574819D02*
X138476190Y-291574819D01*
X138476190Y-291574819D02*
X138380952Y-291622438D01*
X138380952Y-291622438D02*
X138333333Y-291670057D01*
X138333333Y-291670057D02*
X138285714Y-291765295D01*
X138285714Y-291765295D02*
X138238095Y-291955771D01*
X138238095Y-291955771D02*
X138238095Y-292193866D01*
X138238095Y-292193866D02*
X138285714Y-292384342D01*
X138285714Y-292384342D02*
X138333333Y-292479580D01*
X138333333Y-292479580D02*
X138380952Y-292527200D01*
X138380952Y-292527200D02*
X138476190Y-292574819D01*
X138476190Y-292574819D02*
X138571428Y-292574819D01*
X138571428Y-292574819D02*
X138666666Y-292527200D01*
X138666666Y-292527200D02*
X138714285Y-292479580D01*
X138714285Y-292479580D02*
X138761904Y-292384342D01*
X138761904Y-292384342D02*
X138809523Y-292193866D01*
X138809523Y-292193866D02*
X138809523Y-291955771D01*
X138809523Y-291955771D02*
X138761904Y-291765295D01*
X138761904Y-291765295D02*
X138714285Y-291670057D01*
X138714285Y-291670057D02*
X138666666Y-291622438D01*
X138666666Y-291622438D02*
X138571428Y-291574819D01*
X135951904Y-292254819D02*
X135951904Y-291254819D01*
X135380476Y-292254819D02*
X135809047Y-291683390D01*
X135380476Y-291254819D02*
X135951904Y-291826247D01*
X178814285Y-285574819D02*
X178814285Y-284574819D01*
X178814285Y-284574819D02*
X178576190Y-284574819D01*
X178576190Y-284574819D02*
X178433333Y-284622438D01*
X178433333Y-284622438D02*
X178338095Y-284717676D01*
X178338095Y-284717676D02*
X178290476Y-284812914D01*
X178290476Y-284812914D02*
X178242857Y-285003390D01*
X178242857Y-285003390D02*
X178242857Y-285146247D01*
X178242857Y-285146247D02*
X178290476Y-285336723D01*
X178290476Y-285336723D02*
X178338095Y-285431961D01*
X178338095Y-285431961D02*
X178433333Y-285527200D01*
X178433333Y-285527200D02*
X178576190Y-285574819D01*
X178576190Y-285574819D02*
X178814285Y-285574819D01*
X177909523Y-284574819D02*
X177290476Y-284574819D01*
X177290476Y-284574819D02*
X177623809Y-284955771D01*
X177623809Y-284955771D02*
X177480952Y-284955771D01*
X177480952Y-284955771D02*
X177385714Y-285003390D01*
X177385714Y-285003390D02*
X177338095Y-285051009D01*
X177338095Y-285051009D02*
X177290476Y-285146247D01*
X177290476Y-285146247D02*
X177290476Y-285384342D01*
X177290476Y-285384342D02*
X177338095Y-285479580D01*
X177338095Y-285479580D02*
X177385714Y-285527200D01*
X177385714Y-285527200D02*
X177480952Y-285574819D01*
X177480952Y-285574819D02*
X177766666Y-285574819D01*
X177766666Y-285574819D02*
X177861904Y-285527200D01*
X177861904Y-285527200D02*
X177909523Y-285479580D01*
X176909523Y-284670057D02*
X176861904Y-284622438D01*
X176861904Y-284622438D02*
X176766666Y-284574819D01*
X176766666Y-284574819D02*
X176528571Y-284574819D01*
X176528571Y-284574819D02*
X176433333Y-284622438D01*
X176433333Y-284622438D02*
X176385714Y-284670057D01*
X176385714Y-284670057D02*
X176338095Y-284765295D01*
X176338095Y-284765295D02*
X176338095Y-284860533D01*
X176338095Y-284860533D02*
X176385714Y-285003390D01*
X176385714Y-285003390D02*
X176957142Y-285574819D01*
X176957142Y-285574819D02*
X176338095Y-285574819D01*
X174051904Y-285254819D02*
X174051904Y-284254819D01*
X173480476Y-285254819D02*
X173909047Y-284683390D01*
X173480476Y-284254819D02*
X174051904Y-284826247D01*
X264534285Y-256774819D02*
X264534285Y-255774819D01*
X264534285Y-255774819D02*
X264296190Y-255774819D01*
X264296190Y-255774819D02*
X264153333Y-255822438D01*
X264153333Y-255822438D02*
X264058095Y-255917676D01*
X264058095Y-255917676D02*
X264010476Y-256012914D01*
X264010476Y-256012914D02*
X263962857Y-256203390D01*
X263962857Y-256203390D02*
X263962857Y-256346247D01*
X263962857Y-256346247D02*
X264010476Y-256536723D01*
X264010476Y-256536723D02*
X264058095Y-256631961D01*
X264058095Y-256631961D02*
X264153333Y-256727200D01*
X264153333Y-256727200D02*
X264296190Y-256774819D01*
X264296190Y-256774819D02*
X264534285Y-256774819D01*
X263581904Y-255870057D02*
X263534285Y-255822438D01*
X263534285Y-255822438D02*
X263439047Y-255774819D01*
X263439047Y-255774819D02*
X263200952Y-255774819D01*
X263200952Y-255774819D02*
X263105714Y-255822438D01*
X263105714Y-255822438D02*
X263058095Y-255870057D01*
X263058095Y-255870057D02*
X263010476Y-255965295D01*
X263010476Y-255965295D02*
X263010476Y-256060533D01*
X263010476Y-256060533D02*
X263058095Y-256203390D01*
X263058095Y-256203390D02*
X263629523Y-256774819D01*
X263629523Y-256774819D02*
X263010476Y-256774819D01*
X262058095Y-256774819D02*
X262629523Y-256774819D01*
X262343809Y-256774819D02*
X262343809Y-255774819D01*
X262343809Y-255774819D02*
X262439047Y-255917676D01*
X262439047Y-255917676D02*
X262534285Y-256012914D01*
X262534285Y-256012914D02*
X262629523Y-256060533D01*
X259771904Y-256454819D02*
X259771904Y-255454819D01*
X259200476Y-256454819D02*
X259629047Y-255883390D01*
X259200476Y-255454819D02*
X259771904Y-256026247D01*
X239359523Y-228674819D02*
X239359523Y-229389104D01*
X239359523Y-229389104D02*
X239407142Y-229531961D01*
X239407142Y-229531961D02*
X239502380Y-229627200D01*
X239502380Y-229627200D02*
X239645237Y-229674819D01*
X239645237Y-229674819D02*
X239740475Y-229674819D01*
X238359523Y-229674819D02*
X238930951Y-229674819D01*
X238645237Y-229674819D02*
X238645237Y-228674819D01*
X238645237Y-228674819D02*
X238740475Y-228817676D01*
X238740475Y-228817676D02*
X238835713Y-228912914D01*
X238835713Y-228912914D02*
X238930951Y-228960533D01*
X237740475Y-228674819D02*
X237645237Y-228674819D01*
X237645237Y-228674819D02*
X237549999Y-228722438D01*
X237549999Y-228722438D02*
X237502380Y-228770057D01*
X237502380Y-228770057D02*
X237454761Y-228865295D01*
X237454761Y-228865295D02*
X237407142Y-229055771D01*
X237407142Y-229055771D02*
X237407142Y-229293866D01*
X237407142Y-229293866D02*
X237454761Y-229484342D01*
X237454761Y-229484342D02*
X237502380Y-229579580D01*
X237502380Y-229579580D02*
X237549999Y-229627200D01*
X237549999Y-229627200D02*
X237645237Y-229674819D01*
X237645237Y-229674819D02*
X237740475Y-229674819D01*
X237740475Y-229674819D02*
X237835713Y-229627200D01*
X237835713Y-229627200D02*
X237883332Y-229579580D01*
X237883332Y-229579580D02*
X237930951Y-229484342D01*
X237930951Y-229484342D02*
X237978570Y-229293866D01*
X237978570Y-229293866D02*
X237978570Y-229055771D01*
X237978570Y-229055771D02*
X237930951Y-228865295D01*
X237930951Y-228865295D02*
X237883332Y-228770057D01*
X237883332Y-228770057D02*
X237835713Y-228722438D01*
X237835713Y-228722438D02*
X237740475Y-228674819D01*
X474084285Y-256774819D02*
X474084285Y-255774819D01*
X474084285Y-255774819D02*
X473846190Y-255774819D01*
X473846190Y-255774819D02*
X473703333Y-255822438D01*
X473703333Y-255822438D02*
X473608095Y-255917676D01*
X473608095Y-255917676D02*
X473560476Y-256012914D01*
X473560476Y-256012914D02*
X473512857Y-256203390D01*
X473512857Y-256203390D02*
X473512857Y-256346247D01*
X473512857Y-256346247D02*
X473560476Y-256536723D01*
X473560476Y-256536723D02*
X473608095Y-256631961D01*
X473608095Y-256631961D02*
X473703333Y-256727200D01*
X473703333Y-256727200D02*
X473846190Y-256774819D01*
X473846190Y-256774819D02*
X474084285Y-256774819D01*
X473131904Y-255870057D02*
X473084285Y-255822438D01*
X473084285Y-255822438D02*
X472989047Y-255774819D01*
X472989047Y-255774819D02*
X472750952Y-255774819D01*
X472750952Y-255774819D02*
X472655714Y-255822438D01*
X472655714Y-255822438D02*
X472608095Y-255870057D01*
X472608095Y-255870057D02*
X472560476Y-255965295D01*
X472560476Y-255965295D02*
X472560476Y-256060533D01*
X472560476Y-256060533D02*
X472608095Y-256203390D01*
X472608095Y-256203390D02*
X473179523Y-256774819D01*
X473179523Y-256774819D02*
X472560476Y-256774819D01*
X472084285Y-256774819D02*
X471893809Y-256774819D01*
X471893809Y-256774819D02*
X471798571Y-256727200D01*
X471798571Y-256727200D02*
X471750952Y-256679580D01*
X471750952Y-256679580D02*
X471655714Y-256536723D01*
X471655714Y-256536723D02*
X471608095Y-256346247D01*
X471608095Y-256346247D02*
X471608095Y-255965295D01*
X471608095Y-255965295D02*
X471655714Y-255870057D01*
X471655714Y-255870057D02*
X471703333Y-255822438D01*
X471703333Y-255822438D02*
X471798571Y-255774819D01*
X471798571Y-255774819D02*
X471989047Y-255774819D01*
X471989047Y-255774819D02*
X472084285Y-255822438D01*
X472084285Y-255822438D02*
X472131904Y-255870057D01*
X472131904Y-255870057D02*
X472179523Y-255965295D01*
X472179523Y-255965295D02*
X472179523Y-256203390D01*
X472179523Y-256203390D02*
X472131904Y-256298628D01*
X472131904Y-256298628D02*
X472084285Y-256346247D01*
X472084285Y-256346247D02*
X471989047Y-256393866D01*
X471989047Y-256393866D02*
X471798571Y-256393866D01*
X471798571Y-256393866D02*
X471703333Y-256346247D01*
X471703333Y-256346247D02*
X471655714Y-256298628D01*
X471655714Y-256298628D02*
X471608095Y-256203390D01*
X469321904Y-256454819D02*
X469321904Y-255454819D01*
X468750476Y-256454819D02*
X469179047Y-255883390D01*
X468750476Y-255454819D02*
X469321904Y-256026247D01*
X426464285Y-227974819D02*
X426464285Y-226974819D01*
X426464285Y-226974819D02*
X426226190Y-226974819D01*
X426226190Y-226974819D02*
X426083333Y-227022438D01*
X426083333Y-227022438D02*
X425988095Y-227117676D01*
X425988095Y-227117676D02*
X425940476Y-227212914D01*
X425940476Y-227212914D02*
X425892857Y-227403390D01*
X425892857Y-227403390D02*
X425892857Y-227546247D01*
X425892857Y-227546247D02*
X425940476Y-227736723D01*
X425940476Y-227736723D02*
X425988095Y-227831961D01*
X425988095Y-227831961D02*
X426083333Y-227927200D01*
X426083333Y-227927200D02*
X426226190Y-227974819D01*
X426226190Y-227974819D02*
X426464285Y-227974819D01*
X424940476Y-227974819D02*
X425511904Y-227974819D01*
X425226190Y-227974819D02*
X425226190Y-226974819D01*
X425226190Y-226974819D02*
X425321428Y-227117676D01*
X425321428Y-227117676D02*
X425416666Y-227212914D01*
X425416666Y-227212914D02*
X425511904Y-227260533D01*
X423988095Y-227974819D02*
X424559523Y-227974819D01*
X424273809Y-227974819D02*
X424273809Y-226974819D01*
X424273809Y-226974819D02*
X424369047Y-227117676D01*
X424369047Y-227117676D02*
X424464285Y-227212914D01*
X424464285Y-227212914D02*
X424559523Y-227260533D01*
X421701904Y-227654819D02*
X421701904Y-226654819D01*
X421130476Y-227654819D02*
X421559047Y-227083390D01*
X421130476Y-226654819D02*
X421701904Y-227226247D01*
X281569523Y-229124819D02*
X281569523Y-229839104D01*
X281569523Y-229839104D02*
X281617142Y-229981961D01*
X281617142Y-229981961D02*
X281712380Y-230077200D01*
X281712380Y-230077200D02*
X281855237Y-230124819D01*
X281855237Y-230124819D02*
X281950475Y-230124819D01*
X280569523Y-230124819D02*
X281140951Y-230124819D01*
X280855237Y-230124819D02*
X280855237Y-229124819D01*
X280855237Y-229124819D02*
X280950475Y-229267676D01*
X280950475Y-229267676D02*
X281045713Y-229362914D01*
X281045713Y-229362914D02*
X281140951Y-229410533D01*
X280188570Y-229220057D02*
X280140951Y-229172438D01*
X280140951Y-229172438D02*
X280045713Y-229124819D01*
X280045713Y-229124819D02*
X279807618Y-229124819D01*
X279807618Y-229124819D02*
X279712380Y-229172438D01*
X279712380Y-229172438D02*
X279664761Y-229220057D01*
X279664761Y-229220057D02*
X279617142Y-229315295D01*
X279617142Y-229315295D02*
X279617142Y-229410533D01*
X279617142Y-229410533D02*
X279664761Y-229553390D01*
X279664761Y-229553390D02*
X280236189Y-230124819D01*
X280236189Y-230124819D02*
X279617142Y-230124819D01*
X216914285Y-285574819D02*
X216914285Y-284574819D01*
X216914285Y-284574819D02*
X216676190Y-284574819D01*
X216676190Y-284574819D02*
X216533333Y-284622438D01*
X216533333Y-284622438D02*
X216438095Y-284717676D01*
X216438095Y-284717676D02*
X216390476Y-284812914D01*
X216390476Y-284812914D02*
X216342857Y-285003390D01*
X216342857Y-285003390D02*
X216342857Y-285146247D01*
X216342857Y-285146247D02*
X216390476Y-285336723D01*
X216390476Y-285336723D02*
X216438095Y-285431961D01*
X216438095Y-285431961D02*
X216533333Y-285527200D01*
X216533333Y-285527200D02*
X216676190Y-285574819D01*
X216676190Y-285574819D02*
X216914285Y-285574819D01*
X216009523Y-284574819D02*
X215390476Y-284574819D01*
X215390476Y-284574819D02*
X215723809Y-284955771D01*
X215723809Y-284955771D02*
X215580952Y-284955771D01*
X215580952Y-284955771D02*
X215485714Y-285003390D01*
X215485714Y-285003390D02*
X215438095Y-285051009D01*
X215438095Y-285051009D02*
X215390476Y-285146247D01*
X215390476Y-285146247D02*
X215390476Y-285384342D01*
X215390476Y-285384342D02*
X215438095Y-285479580D01*
X215438095Y-285479580D02*
X215485714Y-285527200D01*
X215485714Y-285527200D02*
X215580952Y-285574819D01*
X215580952Y-285574819D02*
X215866666Y-285574819D01*
X215866666Y-285574819D02*
X215961904Y-285527200D01*
X215961904Y-285527200D02*
X216009523Y-285479580D01*
X214533333Y-284908152D02*
X214533333Y-285574819D01*
X214771428Y-284527200D02*
X215009523Y-285241485D01*
X215009523Y-285241485D02*
X214390476Y-285241485D01*
X212151904Y-285254819D02*
X212151904Y-284254819D01*
X211580476Y-285254819D02*
X212009047Y-284683390D01*
X211580476Y-284254819D02*
X212151904Y-284826247D01*
X288123333Y-217074819D02*
X288123333Y-217789104D01*
X288123333Y-217789104D02*
X288170952Y-217931961D01*
X288170952Y-217931961D02*
X288266190Y-218027200D01*
X288266190Y-218027200D02*
X288409047Y-218074819D01*
X288409047Y-218074819D02*
X288504285Y-218074819D01*
X287694761Y-217170057D02*
X287647142Y-217122438D01*
X287647142Y-217122438D02*
X287551904Y-217074819D01*
X287551904Y-217074819D02*
X287313809Y-217074819D01*
X287313809Y-217074819D02*
X287218571Y-217122438D01*
X287218571Y-217122438D02*
X287170952Y-217170057D01*
X287170952Y-217170057D02*
X287123333Y-217265295D01*
X287123333Y-217265295D02*
X287123333Y-217360533D01*
X287123333Y-217360533D02*
X287170952Y-217503390D01*
X287170952Y-217503390D02*
X287742380Y-218074819D01*
X287742380Y-218074819D02*
X287123333Y-218074819D01*
X340734285Y-256774819D02*
X340734285Y-255774819D01*
X340734285Y-255774819D02*
X340496190Y-255774819D01*
X340496190Y-255774819D02*
X340353333Y-255822438D01*
X340353333Y-255822438D02*
X340258095Y-255917676D01*
X340258095Y-255917676D02*
X340210476Y-256012914D01*
X340210476Y-256012914D02*
X340162857Y-256203390D01*
X340162857Y-256203390D02*
X340162857Y-256346247D01*
X340162857Y-256346247D02*
X340210476Y-256536723D01*
X340210476Y-256536723D02*
X340258095Y-256631961D01*
X340258095Y-256631961D02*
X340353333Y-256727200D01*
X340353333Y-256727200D02*
X340496190Y-256774819D01*
X340496190Y-256774819D02*
X340734285Y-256774819D01*
X339781904Y-255870057D02*
X339734285Y-255822438D01*
X339734285Y-255822438D02*
X339639047Y-255774819D01*
X339639047Y-255774819D02*
X339400952Y-255774819D01*
X339400952Y-255774819D02*
X339305714Y-255822438D01*
X339305714Y-255822438D02*
X339258095Y-255870057D01*
X339258095Y-255870057D02*
X339210476Y-255965295D01*
X339210476Y-255965295D02*
X339210476Y-256060533D01*
X339210476Y-256060533D02*
X339258095Y-256203390D01*
X339258095Y-256203390D02*
X339829523Y-256774819D01*
X339829523Y-256774819D02*
X339210476Y-256774819D01*
X338353333Y-256108152D02*
X338353333Y-256774819D01*
X338591428Y-255727200D02*
X338829523Y-256441485D01*
X338829523Y-256441485D02*
X338210476Y-256441485D01*
X335971904Y-256454819D02*
X335971904Y-255454819D01*
X335400476Y-256454819D02*
X335829047Y-255883390D01*
X335400476Y-255454819D02*
X335971904Y-256026247D01*
X316263333Y-217074819D02*
X316263333Y-217789104D01*
X316263333Y-217789104D02*
X316310952Y-217931961D01*
X316310952Y-217931961D02*
X316406190Y-218027200D01*
X316406190Y-218027200D02*
X316549047Y-218074819D01*
X316549047Y-218074819D02*
X316644285Y-218074819D01*
X315310952Y-217074819D02*
X315787142Y-217074819D01*
X315787142Y-217074819D02*
X315834761Y-217551009D01*
X315834761Y-217551009D02*
X315787142Y-217503390D01*
X315787142Y-217503390D02*
X315691904Y-217455771D01*
X315691904Y-217455771D02*
X315453809Y-217455771D01*
X315453809Y-217455771D02*
X315358571Y-217503390D01*
X315358571Y-217503390D02*
X315310952Y-217551009D01*
X315310952Y-217551009D02*
X315263333Y-217646247D01*
X315263333Y-217646247D02*
X315263333Y-217884342D01*
X315263333Y-217884342D02*
X315310952Y-217979580D01*
X315310952Y-217979580D02*
X315358571Y-218027200D01*
X315358571Y-218027200D02*
X315453809Y-218074819D01*
X315453809Y-218074819D02*
X315691904Y-218074819D01*
X315691904Y-218074819D02*
X315787142Y-218027200D01*
X315787142Y-218027200D02*
X315834761Y-217979580D01*
X455034285Y-256774819D02*
X455034285Y-255774819D01*
X455034285Y-255774819D02*
X454796190Y-255774819D01*
X454796190Y-255774819D02*
X454653333Y-255822438D01*
X454653333Y-255822438D02*
X454558095Y-255917676D01*
X454558095Y-255917676D02*
X454510476Y-256012914D01*
X454510476Y-256012914D02*
X454462857Y-256203390D01*
X454462857Y-256203390D02*
X454462857Y-256346247D01*
X454462857Y-256346247D02*
X454510476Y-256536723D01*
X454510476Y-256536723D02*
X454558095Y-256631961D01*
X454558095Y-256631961D02*
X454653333Y-256727200D01*
X454653333Y-256727200D02*
X454796190Y-256774819D01*
X454796190Y-256774819D02*
X455034285Y-256774819D01*
X454081904Y-255870057D02*
X454034285Y-255822438D01*
X454034285Y-255822438D02*
X453939047Y-255774819D01*
X453939047Y-255774819D02*
X453700952Y-255774819D01*
X453700952Y-255774819D02*
X453605714Y-255822438D01*
X453605714Y-255822438D02*
X453558095Y-255870057D01*
X453558095Y-255870057D02*
X453510476Y-255965295D01*
X453510476Y-255965295D02*
X453510476Y-256060533D01*
X453510476Y-256060533D02*
X453558095Y-256203390D01*
X453558095Y-256203390D02*
X454129523Y-256774819D01*
X454129523Y-256774819D02*
X453510476Y-256774819D01*
X452939047Y-256203390D02*
X453034285Y-256155771D01*
X453034285Y-256155771D02*
X453081904Y-256108152D01*
X453081904Y-256108152D02*
X453129523Y-256012914D01*
X453129523Y-256012914D02*
X453129523Y-255965295D01*
X453129523Y-255965295D02*
X453081904Y-255870057D01*
X453081904Y-255870057D02*
X453034285Y-255822438D01*
X453034285Y-255822438D02*
X452939047Y-255774819D01*
X452939047Y-255774819D02*
X452748571Y-255774819D01*
X452748571Y-255774819D02*
X452653333Y-255822438D01*
X452653333Y-255822438D02*
X452605714Y-255870057D01*
X452605714Y-255870057D02*
X452558095Y-255965295D01*
X452558095Y-255965295D02*
X452558095Y-256012914D01*
X452558095Y-256012914D02*
X452605714Y-256108152D01*
X452605714Y-256108152D02*
X452653333Y-256155771D01*
X452653333Y-256155771D02*
X452748571Y-256203390D01*
X452748571Y-256203390D02*
X452939047Y-256203390D01*
X452939047Y-256203390D02*
X453034285Y-256251009D01*
X453034285Y-256251009D02*
X453081904Y-256298628D01*
X453081904Y-256298628D02*
X453129523Y-256393866D01*
X453129523Y-256393866D02*
X453129523Y-256584342D01*
X453129523Y-256584342D02*
X453081904Y-256679580D01*
X453081904Y-256679580D02*
X453034285Y-256727200D01*
X453034285Y-256727200D02*
X452939047Y-256774819D01*
X452939047Y-256774819D02*
X452748571Y-256774819D01*
X452748571Y-256774819D02*
X452653333Y-256727200D01*
X452653333Y-256727200D02*
X452605714Y-256679580D01*
X452605714Y-256679580D02*
X452558095Y-256584342D01*
X452558095Y-256584342D02*
X452558095Y-256393866D01*
X452558095Y-256393866D02*
X452605714Y-256298628D01*
X452605714Y-256298628D02*
X452653333Y-256251009D01*
X452653333Y-256251009D02*
X452748571Y-256203390D01*
X450271904Y-256454819D02*
X450271904Y-255454819D01*
X449700476Y-256454819D02*
X450129047Y-255883390D01*
X449700476Y-255454819D02*
X450271904Y-256026247D01*
D11*
%TO.C,D26*%
X393900000Y-254200000D02*
X394550000Y-254200000D01*
X395150000Y-255320000D02*
X395150000Y-253080000D01*
X395270000Y-255320000D02*
X395270000Y-253080000D01*
X395390000Y-255320000D02*
X395390000Y-253080000D01*
X399440000Y-254200000D02*
X398790000Y-254200000D01*
X394550000Y-255320000D02*
X398790000Y-255320000D01*
X398790000Y-253080000D01*
X394550000Y-253080000D01*
X394550000Y-255320000D01*
%TO.C,D20*%
X241500000Y-254200000D02*
X242150000Y-254200000D01*
X242750000Y-255320000D02*
X242750000Y-253080000D01*
X242870000Y-255320000D02*
X242870000Y-253080000D01*
X242990000Y-255320000D02*
X242990000Y-253080000D01*
X247040000Y-254200000D02*
X246390000Y-254200000D01*
X242150000Y-255320000D02*
X246390000Y-255320000D01*
X246390000Y-253080000D01*
X242150000Y-253080000D01*
X242150000Y-255320000D01*
%TO.C,D18*%
X184350000Y-254200000D02*
X185000000Y-254200000D01*
X185600000Y-255320000D02*
X185600000Y-253080000D01*
X185720000Y-255320000D02*
X185720000Y-253080000D01*
X185840000Y-255320000D02*
X185840000Y-253080000D01*
X189890000Y-254200000D02*
X189240000Y-254200000D01*
X185000000Y-255320000D02*
X189240000Y-255320000D01*
X189240000Y-253080000D01*
X185000000Y-253080000D01*
X185000000Y-255320000D01*
%TO.C,D39*%
X308180000Y-283000000D02*
X308830000Y-283000000D01*
X309430000Y-284120000D02*
X309430000Y-281880000D01*
X309550000Y-284120000D02*
X309550000Y-281880000D01*
X309670000Y-284120000D02*
X309670000Y-281880000D01*
X313720000Y-283000000D02*
X313070000Y-283000000D01*
X308830000Y-284120000D02*
X313070000Y-284120000D01*
X313070000Y-281880000D01*
X308830000Y-281880000D01*
X308830000Y-284120000D01*
%TO.C,D9*%
X384380000Y-225400000D02*
X385030000Y-225400000D01*
X385630000Y-226520000D02*
X385630000Y-224280000D01*
X385750000Y-226520000D02*
X385750000Y-224280000D01*
X385870000Y-226520000D02*
X385870000Y-224280000D01*
X389920000Y-225400000D02*
X389270000Y-225400000D01*
X385030000Y-226520000D02*
X389270000Y-226520000D01*
X389270000Y-224280000D01*
X385030000Y-224280000D01*
X385030000Y-226520000D01*
%TO.C,D19*%
X203400000Y-254200000D02*
X204050000Y-254200000D01*
X204650000Y-255320000D02*
X204650000Y-253080000D01*
X204770000Y-255320000D02*
X204770000Y-253080000D01*
X204890000Y-255320000D02*
X204890000Y-253080000D01*
X208940000Y-254200000D02*
X208290000Y-254200000D01*
X204050000Y-255320000D02*
X208290000Y-255320000D01*
X208290000Y-253080000D01*
X204050000Y-253080000D01*
X204050000Y-255320000D01*
%TO.C,D48*%
X479630000Y-283000000D02*
X480280000Y-283000000D01*
X480880000Y-284120000D02*
X480880000Y-281880000D01*
X481000000Y-284120000D02*
X481000000Y-281880000D01*
X481120000Y-284120000D02*
X481120000Y-281880000D01*
X485170000Y-283000000D02*
X484520000Y-283000000D01*
X480280000Y-284120000D02*
X484520000Y-284120000D01*
X484520000Y-281880000D01*
X480280000Y-281880000D01*
X480280000Y-284120000D01*
%TO.C,D43*%
X384380000Y-283000000D02*
X385030000Y-283000000D01*
X385630000Y-284120000D02*
X385630000Y-281880000D01*
X385750000Y-284120000D02*
X385750000Y-281880000D01*
X385870000Y-284120000D02*
X385870000Y-281880000D01*
X389920000Y-283000000D02*
X389270000Y-283000000D01*
X385030000Y-284120000D02*
X389270000Y-284120000D01*
X389270000Y-281880000D01*
X385030000Y-281880000D01*
X385030000Y-284120000D01*
%TO.C,J11*%
X248440000Y-221480000D02*
X248440000Y-228220000D01*
X248440000Y-222400000D02*
X256800000Y-222400000D01*
X248440000Y-223400000D02*
X256800000Y-223400000D01*
X248440000Y-226500000D02*
X256800000Y-226500000D01*
X248440000Y-228220000D02*
X256800000Y-228220000D01*
X249780000Y-221480000D02*
X248440000Y-221480000D01*
X256800000Y-221480000D02*
X250380000Y-221480000D01*
X256800000Y-228220000D02*
X256800000Y-221480000D01*
X250080000Y-221480000D02*
X249640000Y-220870000D01*
X250520000Y-220870000D01*
X250080000Y-221480000D01*
G36*
X250080000Y-221480000D02*
G01*
X249640000Y-220870000D01*
X250520000Y-220870000D01*
X250080000Y-221480000D01*
G37*
%TO.C,D25*%
X374850000Y-254200000D02*
X375500000Y-254200000D01*
X376100000Y-255320000D02*
X376100000Y-253080000D01*
X376220000Y-255320000D02*
X376220000Y-253080000D01*
X376340000Y-255320000D02*
X376340000Y-253080000D01*
X380390000Y-254200000D02*
X379740000Y-254200000D01*
X375500000Y-255320000D02*
X379740000Y-255320000D01*
X379740000Y-253080000D01*
X375500000Y-253080000D01*
X375500000Y-255320000D01*
%TO.C,D27*%
X412950000Y-254200000D02*
X413600000Y-254200000D01*
X414200000Y-255320000D02*
X414200000Y-253080000D01*
X414320000Y-255320000D02*
X414320000Y-253080000D01*
X414440000Y-255320000D02*
X414440000Y-253080000D01*
X418490000Y-254200000D02*
X417840000Y-254200000D01*
X413600000Y-255320000D02*
X417840000Y-255320000D01*
X417840000Y-253080000D01*
X413600000Y-253080000D01*
X413600000Y-255320000D01*
%TO.C,D6*%
X327230000Y-225400000D02*
X327880000Y-225400000D01*
X328480000Y-226520000D02*
X328480000Y-224280000D01*
X328600000Y-226520000D02*
X328600000Y-224280000D01*
X328720000Y-226520000D02*
X328720000Y-224280000D01*
X332770000Y-225400000D02*
X332120000Y-225400000D01*
X327880000Y-226520000D02*
X332120000Y-226520000D01*
X332120000Y-224280000D01*
X327880000Y-224280000D01*
X327880000Y-226520000D01*
%TO.C,J6*%
X128850000Y-222230000D02*
X128850000Y-228970000D01*
X128850000Y-228970000D02*
X135270000Y-228970000D01*
X135870000Y-228970000D02*
X137210000Y-228970000D01*
X137210000Y-222230000D02*
X128850000Y-222230000D01*
X137210000Y-223950000D02*
X128850000Y-223950000D01*
X137210000Y-227050000D02*
X128850000Y-227050000D01*
X137210000Y-228050000D02*
X128850000Y-228050000D01*
X137210000Y-228970000D02*
X137210000Y-222230000D01*
X136010000Y-229580000D02*
X135130000Y-229580000D01*
X135570000Y-228970000D01*
X136010000Y-229580000D01*
G36*
X136010000Y-229580000D02*
G01*
X135130000Y-229580000D01*
X135570000Y-228970000D01*
X136010000Y-229580000D01*
G37*
%TO.C,D40*%
X327230000Y-283000000D02*
X327880000Y-283000000D01*
X328480000Y-284120000D02*
X328480000Y-281880000D01*
X328600000Y-284120000D02*
X328600000Y-281880000D01*
X328720000Y-284120000D02*
X328720000Y-281880000D01*
X332770000Y-283000000D02*
X332120000Y-283000000D01*
X327880000Y-284120000D02*
X332120000Y-284120000D01*
X332120000Y-281880000D01*
X327880000Y-281880000D01*
X327880000Y-284120000D01*
%TO.C,D22*%
X279600000Y-254200000D02*
X280250000Y-254200000D01*
X280850000Y-255320000D02*
X280850000Y-253080000D01*
X280970000Y-255320000D02*
X280970000Y-253080000D01*
X281090000Y-255320000D02*
X281090000Y-253080000D01*
X285140000Y-254200000D02*
X284490000Y-254200000D01*
X280250000Y-255320000D02*
X284490000Y-255320000D01*
X284490000Y-253080000D01*
X280250000Y-253080000D01*
X280250000Y-255320000D01*
%TO.C,J9*%
X220300000Y-221480000D02*
X220300000Y-228220000D01*
X220300000Y-222400000D02*
X228660000Y-222400000D01*
X220300000Y-223400000D02*
X228660000Y-223400000D01*
X220300000Y-226500000D02*
X228660000Y-226500000D01*
X220300000Y-228220000D02*
X228660000Y-228220000D01*
X221640000Y-221480000D02*
X220300000Y-221480000D01*
X228660000Y-221480000D02*
X222240000Y-221480000D01*
X228660000Y-228220000D02*
X228660000Y-221480000D01*
X221940000Y-221480000D02*
X221500000Y-220870000D01*
X222380000Y-220870000D01*
X221940000Y-221480000D01*
G36*
X221940000Y-221480000D02*
G01*
X221500000Y-220870000D01*
X222380000Y-220870000D01*
X221940000Y-221480000D01*
G37*
%TO.C,J14*%
X305990000Y-221930000D02*
X305990000Y-228670000D01*
X305990000Y-222850000D02*
X311810000Y-222850000D01*
X305990000Y-223850000D02*
X311810000Y-223850000D01*
X305990000Y-226950000D02*
X311810000Y-226950000D01*
X305990000Y-228670000D02*
X311810000Y-228670000D01*
X307330000Y-221930000D02*
X305990000Y-221930000D01*
X311810000Y-221930000D02*
X307930000Y-221930000D01*
X311810000Y-228670000D02*
X311810000Y-221930000D01*
X307630000Y-221930000D02*
X307190000Y-221320000D01*
X308070000Y-221320000D01*
X307630000Y-221930000D01*
G36*
X307630000Y-221930000D02*
G01*
X307190000Y-221320000D01*
X308070000Y-221320000D01*
X307630000Y-221930000D01*
G37*
%TO.C,D7*%
X365330000Y-225400000D02*
X365980000Y-225400000D01*
X366580000Y-226520000D02*
X366580000Y-224280000D01*
X366700000Y-226520000D02*
X366700000Y-224280000D01*
X366820000Y-226520000D02*
X366820000Y-224280000D01*
X370870000Y-225400000D02*
X370220000Y-225400000D01*
X365980000Y-226520000D02*
X370220000Y-226520000D01*
X370220000Y-224280000D01*
X365980000Y-224280000D01*
X365980000Y-226520000D01*
%TO.C,D44*%
X403430000Y-283000000D02*
X404080000Y-283000000D01*
X404680000Y-284120000D02*
X404680000Y-281880000D01*
X404800000Y-284120000D02*
X404800000Y-281880000D01*
X404920000Y-284120000D02*
X404920000Y-281880000D01*
X408970000Y-283000000D02*
X408320000Y-283000000D01*
X404080000Y-284120000D02*
X408320000Y-284120000D01*
X408320000Y-281880000D01*
X404080000Y-281880000D01*
X404080000Y-284120000D01*
%TO.C,D36*%
X251030000Y-283000000D02*
X251680000Y-283000000D01*
X252280000Y-284120000D02*
X252280000Y-281880000D01*
X252400000Y-284120000D02*
X252400000Y-281880000D01*
X252520000Y-284120000D02*
X252520000Y-281880000D01*
X256570000Y-283000000D02*
X255920000Y-283000000D01*
X251680000Y-284120000D02*
X255920000Y-284120000D01*
X255920000Y-281880000D01*
X251680000Y-281880000D01*
X251680000Y-284120000D01*
%TO.C,J1*%
X148480000Y-209220000D02*
X148480000Y-215640000D01*
X148480000Y-216240000D02*
X148480000Y-217580000D01*
X148480000Y-217580000D02*
X155220000Y-217580000D01*
X149400000Y-217580000D02*
X149400000Y-209220000D01*
X150400000Y-217580000D02*
X150400000Y-209220000D01*
X153500000Y-217580000D02*
X153500000Y-209220000D01*
X155220000Y-209220000D02*
X148480000Y-209220000D01*
X155220000Y-217580000D02*
X155220000Y-209220000D01*
X148480000Y-215940000D02*
X147870000Y-216380000D01*
X147870000Y-215500000D01*
X148480000Y-215940000D01*
G36*
X148480000Y-215940000D02*
G01*
X147870000Y-216380000D01*
X147870000Y-215500000D01*
X148480000Y-215940000D01*
G37*
%TO.C,D31*%
X155780000Y-290000000D02*
X156430000Y-290000000D01*
X157030000Y-291120000D02*
X157030000Y-288880000D01*
X157150000Y-291120000D02*
X157150000Y-288880000D01*
X157270000Y-291120000D02*
X157270000Y-288880000D01*
X161320000Y-290000000D02*
X160670000Y-290000000D01*
X156430000Y-291120000D02*
X160670000Y-291120000D01*
X160670000Y-288880000D01*
X156430000Y-288880000D01*
X156430000Y-291120000D01*
%TO.C,D23*%
X317700000Y-254200000D02*
X318350000Y-254200000D01*
X318950000Y-255320000D02*
X318950000Y-253080000D01*
X319070000Y-255320000D02*
X319070000Y-253080000D01*
X319190000Y-255320000D02*
X319190000Y-253080000D01*
X323240000Y-254200000D02*
X322590000Y-254200000D01*
X318350000Y-255320000D02*
X322590000Y-255320000D01*
X322590000Y-253080000D01*
X318350000Y-253080000D01*
X318350000Y-255320000D01*
%TO.C,D45*%
X441530000Y-283000000D02*
X442180000Y-283000000D01*
X442780000Y-284120000D02*
X442780000Y-281880000D01*
X442900000Y-284120000D02*
X442900000Y-281880000D01*
X443020000Y-284120000D02*
X443020000Y-281880000D01*
X447070000Y-283000000D02*
X446420000Y-283000000D01*
X442180000Y-284120000D02*
X446420000Y-284120000D01*
X446420000Y-281880000D01*
X442180000Y-281880000D01*
X442180000Y-284120000D01*
%TO.C,D47*%
X460580000Y-283000000D02*
X461230000Y-283000000D01*
X461830000Y-284120000D02*
X461830000Y-281880000D01*
X461950000Y-284120000D02*
X461950000Y-281880000D01*
X462070000Y-284120000D02*
X462070000Y-281880000D01*
X466120000Y-283000000D02*
X465470000Y-283000000D01*
X461230000Y-284120000D02*
X465470000Y-284120000D01*
X465470000Y-281880000D01*
X461230000Y-281880000D01*
X461230000Y-284120000D01*
%TO.C,J13*%
X262510000Y-221480000D02*
X262510000Y-228220000D01*
X262510000Y-222400000D02*
X270870000Y-222400000D01*
X262510000Y-223400000D02*
X270870000Y-223400000D01*
X262510000Y-226500000D02*
X270870000Y-226500000D01*
X262510000Y-228220000D02*
X270870000Y-228220000D01*
X263850000Y-221480000D02*
X262510000Y-221480000D01*
X270870000Y-221480000D02*
X264450000Y-221480000D01*
X270870000Y-228220000D02*
X270870000Y-221480000D01*
X264150000Y-221480000D02*
X263710000Y-220870000D01*
X264590000Y-220870000D01*
X264150000Y-221480000D01*
G36*
X264150000Y-221480000D02*
G01*
X263710000Y-220870000D01*
X264590000Y-220870000D01*
X264150000Y-221480000D01*
G37*
%TO.C,D38*%
X270080000Y-283000000D02*
X270730000Y-283000000D01*
X271330000Y-284120000D02*
X271330000Y-281880000D01*
X271450000Y-284120000D02*
X271450000Y-281880000D01*
X271570000Y-284120000D02*
X271570000Y-281880000D01*
X275620000Y-283000000D02*
X274970000Y-283000000D01*
X270730000Y-284120000D02*
X274970000Y-284120000D01*
X274970000Y-281880000D01*
X270730000Y-281880000D01*
X270730000Y-284120000D01*
%TO.C,D13*%
X460580000Y-225400000D02*
X461230000Y-225400000D01*
X461830000Y-226520000D02*
X461830000Y-224280000D01*
X461950000Y-226520000D02*
X461950000Y-224280000D01*
X462070000Y-226520000D02*
X462070000Y-224280000D01*
X466120000Y-225400000D02*
X465470000Y-225400000D01*
X461230000Y-226520000D02*
X465470000Y-226520000D01*
X465470000Y-224280000D01*
X461230000Y-224280000D01*
X461230000Y-226520000D01*
%TO.C,J4*%
X297680000Y-209880000D02*
X297680000Y-216620000D01*
X297680000Y-210800000D02*
X306040000Y-210800000D01*
X297680000Y-211800000D02*
X306040000Y-211800000D01*
X297680000Y-214900000D02*
X306040000Y-214900000D01*
X297680000Y-216620000D02*
X306040000Y-216620000D01*
X299020000Y-209880000D02*
X297680000Y-209880000D01*
X306040000Y-209880000D02*
X299620000Y-209880000D01*
X306040000Y-216620000D02*
X306040000Y-209880000D01*
X299320000Y-209880000D02*
X298880000Y-209270000D01*
X299760000Y-209270000D01*
X299320000Y-209880000D01*
G36*
X299320000Y-209880000D02*
G01*
X298880000Y-209270000D01*
X299760000Y-209270000D01*
X299320000Y-209880000D01*
G37*
%TO.C,D41*%
X365330000Y-283000000D02*
X365980000Y-283000000D01*
X366580000Y-284120000D02*
X366580000Y-281880000D01*
X366700000Y-284120000D02*
X366700000Y-281880000D01*
X366820000Y-284120000D02*
X366820000Y-281880000D01*
X370870000Y-283000000D02*
X370220000Y-283000000D01*
X365980000Y-284120000D02*
X370220000Y-284120000D01*
X370220000Y-281880000D01*
X365980000Y-281880000D01*
X365980000Y-284120000D01*
%TO.C,D5*%
X193880000Y-225400000D02*
X194530000Y-225400000D01*
X195130000Y-226520000D02*
X195130000Y-224280000D01*
X195250000Y-226520000D02*
X195250000Y-224280000D01*
X195370000Y-226520000D02*
X195370000Y-224280000D01*
X199420000Y-225400000D02*
X198770000Y-225400000D01*
X194530000Y-226520000D02*
X198770000Y-226520000D01*
X198770000Y-224280000D01*
X194530000Y-224280000D01*
X194530000Y-226520000D01*
%TO.C,D35*%
X231980000Y-283000000D02*
X232630000Y-283000000D01*
X233230000Y-284120000D02*
X233230000Y-281880000D01*
X233350000Y-284120000D02*
X233350000Y-281880000D01*
X233470000Y-284120000D02*
X233470000Y-281880000D01*
X237520000Y-283000000D02*
X236870000Y-283000000D01*
X232630000Y-284120000D02*
X236870000Y-284120000D01*
X236870000Y-281880000D01*
X232630000Y-281880000D01*
X232630000Y-284120000D01*
%TO.C,J8*%
X160850000Y-222230000D02*
X160850000Y-228970000D01*
X160850000Y-228970000D02*
X167270000Y-228970000D01*
X167870000Y-228970000D02*
X169210000Y-228970000D01*
X169210000Y-222230000D02*
X160850000Y-222230000D01*
X169210000Y-223950000D02*
X160850000Y-223950000D01*
X169210000Y-227050000D02*
X160850000Y-227050000D01*
X169210000Y-228050000D02*
X160850000Y-228050000D01*
X169210000Y-228970000D02*
X169210000Y-222230000D01*
X168010000Y-229580000D02*
X167130000Y-229580000D01*
X167570000Y-228970000D01*
X168010000Y-229580000D01*
G36*
X168010000Y-229580000D02*
G01*
X167130000Y-229580000D01*
X167570000Y-228970000D01*
X168010000Y-229580000D01*
G37*
%TO.C,D37*%
X289130000Y-283000000D02*
X289780000Y-283000000D01*
X290380000Y-284120000D02*
X290380000Y-281880000D01*
X290500000Y-284120000D02*
X290500000Y-281880000D01*
X290620000Y-284120000D02*
X290620000Y-281880000D01*
X294670000Y-283000000D02*
X294020000Y-283000000D01*
X289780000Y-284120000D02*
X294020000Y-284120000D01*
X294020000Y-281880000D01*
X289780000Y-281880000D01*
X289780000Y-284120000D01*
%TO.C,D33*%
X193880000Y-283000000D02*
X194530000Y-283000000D01*
X195130000Y-284120000D02*
X195130000Y-281880000D01*
X195250000Y-284120000D02*
X195250000Y-281880000D01*
X195370000Y-284120000D02*
X195370000Y-281880000D01*
X199420000Y-283000000D02*
X198770000Y-283000000D01*
X194530000Y-284120000D02*
X198770000Y-284120000D01*
X198770000Y-281880000D01*
X194530000Y-281880000D01*
X194530000Y-284120000D01*
%TO.C,J3*%
X269540000Y-209880000D02*
X269540000Y-216620000D01*
X269540000Y-210800000D02*
X277900000Y-210800000D01*
X269540000Y-211800000D02*
X277900000Y-211800000D01*
X269540000Y-214900000D02*
X277900000Y-214900000D01*
X269540000Y-216620000D02*
X277900000Y-216620000D01*
X270880000Y-209880000D02*
X269540000Y-209880000D01*
X277900000Y-209880000D02*
X271480000Y-209880000D01*
X277900000Y-216620000D02*
X277900000Y-209880000D01*
X271180000Y-209880000D02*
X270740000Y-209270000D01*
X271620000Y-209270000D01*
X271180000Y-209880000D01*
G36*
X271180000Y-209880000D02*
G01*
X270740000Y-209270000D01*
X271620000Y-209270000D01*
X271180000Y-209880000D01*
G37*
%TO.C,D12*%
X441530000Y-225400000D02*
X442180000Y-225400000D01*
X442780000Y-226520000D02*
X442780000Y-224280000D01*
X442900000Y-226520000D02*
X442900000Y-224280000D01*
X443020000Y-226520000D02*
X443020000Y-224280000D01*
X447070000Y-225400000D02*
X446420000Y-225400000D01*
X442180000Y-226520000D02*
X446420000Y-226520000D01*
X446420000Y-224280000D01*
X442180000Y-224280000D01*
X442180000Y-226520000D01*
%TO.C,J7*%
X144850000Y-222230000D02*
X144850000Y-228970000D01*
X144850000Y-228970000D02*
X151270000Y-228970000D01*
X151870000Y-228970000D02*
X153210000Y-228970000D01*
X153210000Y-222230000D02*
X144850000Y-222230000D01*
X153210000Y-223950000D02*
X144850000Y-223950000D01*
X153210000Y-227050000D02*
X144850000Y-227050000D01*
X153210000Y-228050000D02*
X144850000Y-228050000D01*
X153210000Y-228970000D02*
X153210000Y-222230000D01*
X152010000Y-229580000D02*
X151130000Y-229580000D01*
X151570000Y-228970000D01*
X152010000Y-229580000D01*
G36*
X152010000Y-229580000D02*
G01*
X151130000Y-229580000D01*
X151570000Y-228970000D01*
X152010000Y-229580000D01*
G37*
%TO.C,D46*%
X422480000Y-283000000D02*
X423130000Y-283000000D01*
X423730000Y-284120000D02*
X423730000Y-281880000D01*
X423850000Y-284120000D02*
X423850000Y-281880000D01*
X423970000Y-284120000D02*
X423970000Y-281880000D01*
X428020000Y-283000000D02*
X427370000Y-283000000D01*
X423130000Y-284120000D02*
X427370000Y-284120000D01*
X427370000Y-281880000D01*
X423130000Y-281880000D01*
X423130000Y-284120000D01*
%TO.C,D8*%
X346280000Y-225400000D02*
X346930000Y-225400000D01*
X347530000Y-226520000D02*
X347530000Y-224280000D01*
X347650000Y-226520000D02*
X347650000Y-224280000D01*
X347770000Y-226520000D02*
X347770000Y-224280000D01*
X351820000Y-225400000D02*
X351170000Y-225400000D01*
X346930000Y-226520000D02*
X351170000Y-226520000D01*
X351170000Y-224280000D01*
X346930000Y-224280000D01*
X346930000Y-226520000D01*
%TO.C,J15*%
X290650000Y-221930000D02*
X290650000Y-228670000D01*
X290650000Y-222850000D02*
X299010000Y-222850000D01*
X290650000Y-223850000D02*
X299010000Y-223850000D01*
X290650000Y-226950000D02*
X299010000Y-226950000D01*
X290650000Y-228670000D02*
X299010000Y-228670000D01*
X291990000Y-221930000D02*
X290650000Y-221930000D01*
X299010000Y-221930000D02*
X292590000Y-221930000D01*
X299010000Y-228670000D02*
X299010000Y-221930000D01*
X292290000Y-221930000D02*
X291850000Y-221320000D01*
X292730000Y-221320000D01*
X292290000Y-221930000D01*
G36*
X292290000Y-221930000D02*
G01*
X291850000Y-221320000D01*
X292730000Y-221320000D01*
X292290000Y-221930000D01*
G37*
%TO.C,D10*%
X403430000Y-225400000D02*
X404080000Y-225400000D01*
X404680000Y-226520000D02*
X404680000Y-224280000D01*
X404800000Y-226520000D02*
X404800000Y-224280000D01*
X404920000Y-226520000D02*
X404920000Y-224280000D01*
X408970000Y-225400000D02*
X408320000Y-225400000D01*
X404080000Y-226520000D02*
X408320000Y-226520000D01*
X408320000Y-224280000D01*
X404080000Y-224280000D01*
X404080000Y-226520000D01*
%TO.C,J16*%
X483990000Y-221930000D02*
X483990000Y-228670000D01*
X483990000Y-222850000D02*
X489810000Y-222850000D01*
X483990000Y-223850000D02*
X489810000Y-223850000D01*
X483990000Y-226950000D02*
X489810000Y-226950000D01*
X483990000Y-228670000D02*
X489810000Y-228670000D01*
X485330000Y-221930000D02*
X483990000Y-221930000D01*
X489810000Y-221930000D02*
X485930000Y-221930000D01*
X489810000Y-228670000D02*
X489810000Y-221930000D01*
X485630000Y-221930000D02*
X485190000Y-221320000D01*
X486070000Y-221320000D01*
X485630000Y-221930000D01*
G36*
X485630000Y-221930000D02*
G01*
X485190000Y-221320000D01*
X486070000Y-221320000D01*
X485630000Y-221930000D01*
G37*
%TO.C,D42*%
X346280000Y-283000000D02*
X346930000Y-283000000D01*
X347530000Y-284120000D02*
X347530000Y-281880000D01*
X347650000Y-284120000D02*
X347650000Y-281880000D01*
X347770000Y-284120000D02*
X347770000Y-281880000D01*
X351820000Y-283000000D02*
X351170000Y-283000000D01*
X346930000Y-284120000D02*
X351170000Y-284120000D01*
X351170000Y-281880000D01*
X346930000Y-281880000D01*
X346930000Y-284120000D01*
%TO.C,D30*%
X136730000Y-290000000D02*
X137380000Y-290000000D01*
X137980000Y-291120000D02*
X137980000Y-288880000D01*
X138100000Y-291120000D02*
X138100000Y-288880000D01*
X138220000Y-291120000D02*
X138220000Y-288880000D01*
X142270000Y-290000000D02*
X141620000Y-290000000D01*
X137380000Y-291120000D02*
X141620000Y-291120000D01*
X141620000Y-288880000D01*
X137380000Y-288880000D01*
X137380000Y-291120000D01*
%TO.C,D32*%
X174830000Y-283000000D02*
X175480000Y-283000000D01*
X176080000Y-284120000D02*
X176080000Y-281880000D01*
X176200000Y-284120000D02*
X176200000Y-281880000D01*
X176320000Y-284120000D02*
X176320000Y-281880000D01*
X180370000Y-283000000D02*
X179720000Y-283000000D01*
X175480000Y-284120000D02*
X179720000Y-284120000D01*
X179720000Y-281880000D01*
X175480000Y-281880000D01*
X175480000Y-284120000D01*
%TO.C,D21*%
X260550000Y-254200000D02*
X261200000Y-254200000D01*
X261800000Y-255320000D02*
X261800000Y-253080000D01*
X261920000Y-255320000D02*
X261920000Y-253080000D01*
X262040000Y-255320000D02*
X262040000Y-253080000D01*
X266090000Y-254200000D02*
X265440000Y-254200000D01*
X261200000Y-255320000D02*
X265440000Y-255320000D01*
X265440000Y-253080000D01*
X261200000Y-253080000D01*
X261200000Y-255320000D01*
%TO.C,J10*%
X234370000Y-221480000D02*
X234370000Y-228220000D01*
X234370000Y-222400000D02*
X242730000Y-222400000D01*
X234370000Y-223400000D02*
X242730000Y-223400000D01*
X234370000Y-226500000D02*
X242730000Y-226500000D01*
X234370000Y-228220000D02*
X242730000Y-228220000D01*
X235710000Y-221480000D02*
X234370000Y-221480000D01*
X242730000Y-221480000D02*
X236310000Y-221480000D01*
X242730000Y-228220000D02*
X242730000Y-221480000D01*
X236010000Y-221480000D02*
X235570000Y-220870000D01*
X236450000Y-220870000D01*
X236010000Y-221480000D01*
G36*
X236010000Y-221480000D02*
G01*
X235570000Y-220870000D01*
X236450000Y-220870000D01*
X236010000Y-221480000D01*
G37*
%TO.C,D29*%
X470100000Y-254200000D02*
X470750000Y-254200000D01*
X471350000Y-255320000D02*
X471350000Y-253080000D01*
X471470000Y-255320000D02*
X471470000Y-253080000D01*
X471590000Y-255320000D02*
X471590000Y-253080000D01*
X475640000Y-254200000D02*
X474990000Y-254200000D01*
X470750000Y-255320000D02*
X474990000Y-255320000D01*
X474990000Y-253080000D01*
X470750000Y-253080000D01*
X470750000Y-255320000D01*
%TO.C,D11*%
X422480000Y-225400000D02*
X423130000Y-225400000D01*
X423730000Y-226520000D02*
X423730000Y-224280000D01*
X423850000Y-226520000D02*
X423850000Y-224280000D01*
X423970000Y-226520000D02*
X423970000Y-224280000D01*
X428020000Y-225400000D02*
X427370000Y-225400000D01*
X423130000Y-226520000D02*
X427370000Y-226520000D01*
X427370000Y-224280000D01*
X423130000Y-224280000D01*
X423130000Y-226520000D01*
%TO.C,J12*%
X276580000Y-221930000D02*
X276580000Y-228670000D01*
X276580000Y-222850000D02*
X284940000Y-222850000D01*
X276580000Y-223850000D02*
X284940000Y-223850000D01*
X276580000Y-226950000D02*
X284940000Y-226950000D01*
X276580000Y-228670000D02*
X284940000Y-228670000D01*
X277920000Y-221930000D02*
X276580000Y-221930000D01*
X284940000Y-221930000D02*
X278520000Y-221930000D01*
X284940000Y-228670000D02*
X284940000Y-221930000D01*
X278220000Y-221930000D02*
X277780000Y-221320000D01*
X278660000Y-221320000D01*
X278220000Y-221930000D01*
G36*
X278220000Y-221930000D02*
G01*
X277780000Y-221320000D01*
X278660000Y-221320000D01*
X278220000Y-221930000D01*
G37*
%TO.C,D34*%
X212930000Y-283000000D02*
X213580000Y-283000000D01*
X214180000Y-284120000D02*
X214180000Y-281880000D01*
X214300000Y-284120000D02*
X214300000Y-281880000D01*
X214420000Y-284120000D02*
X214420000Y-281880000D01*
X218470000Y-283000000D02*
X217820000Y-283000000D01*
X213580000Y-284120000D02*
X217820000Y-284120000D01*
X217820000Y-281880000D01*
X213580000Y-281880000D01*
X213580000Y-284120000D01*
%TO.C,J2*%
X283610000Y-209880000D02*
X283610000Y-216620000D01*
X283610000Y-210800000D02*
X291970000Y-210800000D01*
X283610000Y-211800000D02*
X291970000Y-211800000D01*
X283610000Y-214900000D02*
X291970000Y-214900000D01*
X283610000Y-216620000D02*
X291970000Y-216620000D01*
X284950000Y-209880000D02*
X283610000Y-209880000D01*
X291970000Y-209880000D02*
X285550000Y-209880000D01*
X291970000Y-216620000D02*
X291970000Y-209880000D01*
X285250000Y-209880000D02*
X284810000Y-209270000D01*
X285690000Y-209270000D01*
X285250000Y-209880000D01*
G36*
X285250000Y-209880000D02*
G01*
X284810000Y-209270000D01*
X285690000Y-209270000D01*
X285250000Y-209880000D01*
G37*
%TO.C,D24*%
X336750000Y-254200000D02*
X337400000Y-254200000D01*
X338000000Y-255320000D02*
X338000000Y-253080000D01*
X338120000Y-255320000D02*
X338120000Y-253080000D01*
X338240000Y-255320000D02*
X338240000Y-253080000D01*
X342290000Y-254200000D02*
X341640000Y-254200000D01*
X337400000Y-255320000D02*
X341640000Y-255320000D01*
X341640000Y-253080000D01*
X337400000Y-253080000D01*
X337400000Y-255320000D01*
%TO.C,J5*%
X311750000Y-209880000D02*
X311750000Y-216620000D01*
X311750000Y-210800000D02*
X320110000Y-210800000D01*
X311750000Y-211800000D02*
X320110000Y-211800000D01*
X311750000Y-214900000D02*
X320110000Y-214900000D01*
X311750000Y-216620000D02*
X320110000Y-216620000D01*
X313090000Y-209880000D02*
X311750000Y-209880000D01*
X320110000Y-209880000D02*
X313690000Y-209880000D01*
X320110000Y-216620000D02*
X320110000Y-209880000D01*
X313390000Y-209880000D02*
X312950000Y-209270000D01*
X313830000Y-209270000D01*
X313390000Y-209880000D01*
G36*
X313390000Y-209880000D02*
G01*
X312950000Y-209270000D01*
X313830000Y-209270000D01*
X313390000Y-209880000D01*
G37*
%TO.C,D28*%
X451050000Y-254200000D02*
X451700000Y-254200000D01*
X452300000Y-255320000D02*
X452300000Y-253080000D01*
X452420000Y-255320000D02*
X452420000Y-253080000D01*
X452540000Y-255320000D02*
X452540000Y-253080000D01*
X456590000Y-254200000D02*
X455940000Y-254200000D01*
X451700000Y-255320000D02*
X455940000Y-255320000D01*
X455940000Y-253080000D01*
X451700000Y-253080000D01*
X451700000Y-255320000D01*
%TD*%
M02*
