%TF.GenerationSoftware,KiCad,Pcbnew,9.0.6*%
%TF.CreationDate,2026-02-23T17:20:57+01:00*%
%TF.ProjectId,DigitalSynthSchematics,44696769-7461-46c5-9379-6e7468536368,rev?*%
%TF.SameCoordinates,Original*%
%TF.FileFunction,Legend,Top*%
%TF.FilePolarity,Positive*%
%FSLAX46Y46*%
G04 Gerber Fmt 4.6, Leading zero omitted, Abs format (unit mm)*
G04 Created by KiCad (PCBNEW 9.0.6) date 2026-02-23 17:20:57*
%MOMM*%
%LPD*%
G01*
G04 APERTURE LIST*
%ADD10C,0.400000*%
%ADD11C,0.150000*%
%ADD12C,0.120000*%
G04 APERTURE END LIST*
D10*
X137952381Y-263049900D02*
X136619047Y-261145138D01*
X135666666Y-263049900D02*
X135666666Y-259049900D01*
X135666666Y-259049900D02*
X137190476Y-259049900D01*
X137190476Y-259049900D02*
X137571428Y-259240376D01*
X137571428Y-259240376D02*
X137761905Y-259430852D01*
X137761905Y-259430852D02*
X137952381Y-259811804D01*
X137952381Y-259811804D02*
X137952381Y-260383233D01*
X137952381Y-260383233D02*
X137761905Y-260764185D01*
X137761905Y-260764185D02*
X137571428Y-260954662D01*
X137571428Y-260954662D02*
X137190476Y-261145138D01*
X137190476Y-261145138D02*
X135666666Y-261145138D01*
X141190476Y-262859424D02*
X140809524Y-263049900D01*
X140809524Y-263049900D02*
X140047619Y-263049900D01*
X140047619Y-263049900D02*
X139666666Y-262859424D01*
X139666666Y-262859424D02*
X139476190Y-262478471D01*
X139476190Y-262478471D02*
X139476190Y-260954662D01*
X139476190Y-260954662D02*
X139666666Y-260573709D01*
X139666666Y-260573709D02*
X140047619Y-260383233D01*
X140047619Y-260383233D02*
X140809524Y-260383233D01*
X140809524Y-260383233D02*
X141190476Y-260573709D01*
X141190476Y-260573709D02*
X141380952Y-260954662D01*
X141380952Y-260954662D02*
X141380952Y-261335614D01*
X141380952Y-261335614D02*
X139476190Y-261716566D01*
X143095237Y-260383233D02*
X143095237Y-264383233D01*
X143095237Y-260573709D02*
X143476190Y-260383233D01*
X143476190Y-260383233D02*
X144238095Y-260383233D01*
X144238095Y-260383233D02*
X144619047Y-260573709D01*
X144619047Y-260573709D02*
X144809523Y-260764185D01*
X144809523Y-260764185D02*
X144999999Y-261145138D01*
X144999999Y-261145138D02*
X144999999Y-262287995D01*
X144999999Y-262287995D02*
X144809523Y-262668947D01*
X144809523Y-262668947D02*
X144619047Y-262859424D01*
X144619047Y-262859424D02*
X144238095Y-263049900D01*
X144238095Y-263049900D02*
X143476190Y-263049900D01*
X143476190Y-263049900D02*
X143095237Y-262859424D01*
X147285714Y-263049900D02*
X146904762Y-262859424D01*
X146904762Y-262859424D02*
X146714285Y-262478471D01*
X146714285Y-262478471D02*
X146714285Y-259049900D01*
X148809523Y-263049900D02*
X148809523Y-260383233D01*
X148809523Y-259049900D02*
X148619047Y-259240376D01*
X148619047Y-259240376D02*
X148809523Y-259430852D01*
X148809523Y-259430852D02*
X149000000Y-259240376D01*
X149000000Y-259240376D02*
X148809523Y-259049900D01*
X148809523Y-259049900D02*
X148809523Y-259430852D01*
X150714285Y-263049900D02*
X150714285Y-259049900D01*
X153000000Y-263049900D02*
X151285714Y-260764185D01*
X153000000Y-259049900D02*
X150714285Y-261335614D01*
X156428571Y-263049900D02*
X156428571Y-260954662D01*
X156428571Y-260954662D02*
X156238095Y-260573709D01*
X156238095Y-260573709D02*
X155857143Y-260383233D01*
X155857143Y-260383233D02*
X155095238Y-260383233D01*
X155095238Y-260383233D02*
X154714285Y-260573709D01*
X156428571Y-262859424D02*
X156047619Y-263049900D01*
X156047619Y-263049900D02*
X155095238Y-263049900D01*
X155095238Y-263049900D02*
X154714285Y-262859424D01*
X154714285Y-262859424D02*
X154523809Y-262478471D01*
X154523809Y-262478471D02*
X154523809Y-262097519D01*
X154523809Y-262097519D02*
X154714285Y-261716566D01*
X154714285Y-261716566D02*
X155095238Y-261526090D01*
X155095238Y-261526090D02*
X156047619Y-261526090D01*
X156047619Y-261526090D02*
X156428571Y-261335614D01*
X158333333Y-260383233D02*
X158333333Y-263049900D01*
X158333333Y-260764185D02*
X158523810Y-260573709D01*
X158523810Y-260573709D02*
X158904762Y-260383233D01*
X158904762Y-260383233D02*
X159476191Y-260383233D01*
X159476191Y-260383233D02*
X159857143Y-260573709D01*
X159857143Y-260573709D02*
X160047619Y-260954662D01*
X160047619Y-260954662D02*
X160047619Y-263049900D01*
X161380953Y-260383233D02*
X162904762Y-260383233D01*
X161952381Y-259049900D02*
X161952381Y-262478471D01*
X161952381Y-262478471D02*
X162142858Y-262859424D01*
X162142858Y-262859424D02*
X162523810Y-263049900D01*
X162523810Y-263049900D02*
X162904762Y-263049900D01*
X147285714Y-269489676D02*
X144999999Y-269489676D01*
X146142856Y-269489676D02*
X146142856Y-265489676D01*
X146142856Y-265489676D02*
X145761904Y-266061104D01*
X145761904Y-266061104D02*
X145380952Y-266442057D01*
X145380952Y-266442057D02*
X144999999Y-266632533D01*
X148999999Y-269108723D02*
X149190476Y-269299200D01*
X149190476Y-269299200D02*
X148999999Y-269489676D01*
X148999999Y-269489676D02*
X148809523Y-269299200D01*
X148809523Y-269299200D02*
X148999999Y-269108723D01*
X148999999Y-269108723D02*
X148999999Y-269489676D01*
X151666666Y-265489676D02*
X152047619Y-265489676D01*
X152047619Y-265489676D02*
X152428571Y-265680152D01*
X152428571Y-265680152D02*
X152619047Y-265870628D01*
X152619047Y-265870628D02*
X152809523Y-266251580D01*
X152809523Y-266251580D02*
X153000000Y-267013485D01*
X153000000Y-267013485D02*
X153000000Y-267965866D01*
X153000000Y-267965866D02*
X152809523Y-268727771D01*
X152809523Y-268727771D02*
X152619047Y-269108723D01*
X152619047Y-269108723D02*
X152428571Y-269299200D01*
X152428571Y-269299200D02*
X152047619Y-269489676D01*
X152047619Y-269489676D02*
X151666666Y-269489676D01*
X151666666Y-269489676D02*
X151285714Y-269299200D01*
X151285714Y-269299200D02*
X151095238Y-269108723D01*
X151095238Y-269108723D02*
X150904761Y-268727771D01*
X150904761Y-268727771D02*
X150714285Y-267965866D01*
X150714285Y-267965866D02*
X150714285Y-267013485D01*
X150714285Y-267013485D02*
X150904761Y-266251580D01*
X150904761Y-266251580D02*
X151095238Y-265870628D01*
X151095238Y-265870628D02*
X151285714Y-265680152D01*
X151285714Y-265680152D02*
X151666666Y-265489676D01*
X163285714Y-211859424D02*
X163857143Y-212049900D01*
X163857143Y-212049900D02*
X164809524Y-212049900D01*
X164809524Y-212049900D02*
X165190476Y-211859424D01*
X165190476Y-211859424D02*
X165380952Y-211668947D01*
X165380952Y-211668947D02*
X165571429Y-211287995D01*
X165571429Y-211287995D02*
X165571429Y-210907043D01*
X165571429Y-210907043D02*
X165380952Y-210526090D01*
X165380952Y-210526090D02*
X165190476Y-210335614D01*
X165190476Y-210335614D02*
X164809524Y-210145138D01*
X164809524Y-210145138D02*
X164047619Y-209954662D01*
X164047619Y-209954662D02*
X163666667Y-209764185D01*
X163666667Y-209764185D02*
X163476190Y-209573709D01*
X163476190Y-209573709D02*
X163285714Y-209192757D01*
X163285714Y-209192757D02*
X163285714Y-208811804D01*
X163285714Y-208811804D02*
X163476190Y-208430852D01*
X163476190Y-208430852D02*
X163666667Y-208240376D01*
X163666667Y-208240376D02*
X164047619Y-208049900D01*
X164047619Y-208049900D02*
X165000000Y-208049900D01*
X165000000Y-208049900D02*
X165571429Y-208240376D01*
X169000000Y-212049900D02*
X169000000Y-209954662D01*
X169000000Y-209954662D02*
X168809524Y-209573709D01*
X168809524Y-209573709D02*
X168428572Y-209383233D01*
X168428572Y-209383233D02*
X167666667Y-209383233D01*
X167666667Y-209383233D02*
X167285714Y-209573709D01*
X169000000Y-211859424D02*
X168619048Y-212049900D01*
X168619048Y-212049900D02*
X167666667Y-212049900D01*
X167666667Y-212049900D02*
X167285714Y-211859424D01*
X167285714Y-211859424D02*
X167095238Y-211478471D01*
X167095238Y-211478471D02*
X167095238Y-211097519D01*
X167095238Y-211097519D02*
X167285714Y-210716566D01*
X167285714Y-210716566D02*
X167666667Y-210526090D01*
X167666667Y-210526090D02*
X168619048Y-210526090D01*
X168619048Y-210526090D02*
X169000000Y-210335614D01*
X170333334Y-209383233D02*
X171857143Y-209383233D01*
X170904762Y-212049900D02*
X170904762Y-208621328D01*
X170904762Y-208621328D02*
X171095239Y-208240376D01*
X171095239Y-208240376D02*
X171476191Y-208049900D01*
X171476191Y-208049900D02*
X171857143Y-208049900D01*
X174904762Y-212049900D02*
X174904762Y-209954662D01*
X174904762Y-209954662D02*
X174714286Y-209573709D01*
X174714286Y-209573709D02*
X174333334Y-209383233D01*
X174333334Y-209383233D02*
X173571429Y-209383233D01*
X173571429Y-209383233D02*
X173190476Y-209573709D01*
X174904762Y-211859424D02*
X174523810Y-212049900D01*
X174523810Y-212049900D02*
X173571429Y-212049900D01*
X173571429Y-212049900D02*
X173190476Y-211859424D01*
X173190476Y-211859424D02*
X173000000Y-211478471D01*
X173000000Y-211478471D02*
X173000000Y-211097519D01*
X173000000Y-211097519D02*
X173190476Y-210716566D01*
X173190476Y-210716566D02*
X173571429Y-210526090D01*
X173571429Y-210526090D02*
X174523810Y-210526090D01*
X174523810Y-210526090D02*
X174904762Y-210335614D01*
X176809524Y-212049900D02*
X176809524Y-209383233D01*
X176809524Y-210145138D02*
X177000001Y-209764185D01*
X177000001Y-209764185D02*
X177190477Y-209573709D01*
X177190477Y-209573709D02*
X177571429Y-209383233D01*
X177571429Y-209383233D02*
X177952382Y-209383233D01*
X179285714Y-212049900D02*
X179285714Y-209383233D01*
X179285714Y-208049900D02*
X179095238Y-208240376D01*
X179095238Y-208240376D02*
X179285714Y-208430852D01*
X179285714Y-208430852D02*
X179476191Y-208240376D01*
X179476191Y-208240376D02*
X179285714Y-208049900D01*
X179285714Y-208049900D02*
X179285714Y-208430852D01*
X181190476Y-212049900D02*
X181190476Y-208049900D01*
X181571429Y-210526090D02*
X182714286Y-212049900D01*
X182714286Y-209383233D02*
X181190476Y-210907043D01*
X159666667Y-214489676D02*
X161000000Y-218489676D01*
X161000000Y-218489676D02*
X162333334Y-214489676D01*
X163666666Y-214489676D02*
X163666666Y-217727771D01*
X163666666Y-217727771D02*
X163857143Y-218108723D01*
X163857143Y-218108723D02*
X164047619Y-218299200D01*
X164047619Y-218299200D02*
X164428571Y-218489676D01*
X164428571Y-218489676D02*
X165190476Y-218489676D01*
X165190476Y-218489676D02*
X165571428Y-218299200D01*
X165571428Y-218299200D02*
X165761905Y-218108723D01*
X165761905Y-218108723D02*
X165952381Y-217727771D01*
X165952381Y-217727771D02*
X165952381Y-214489676D01*
X167285714Y-214489676D02*
X169571428Y-214489676D01*
X168428571Y-218489676D02*
X168428571Y-214489676D01*
X175285714Y-216394438D02*
X175857142Y-216584914D01*
X175857142Y-216584914D02*
X176047619Y-216775390D01*
X176047619Y-216775390D02*
X176238095Y-217156342D01*
X176238095Y-217156342D02*
X176238095Y-217727771D01*
X176238095Y-217727771D02*
X176047619Y-218108723D01*
X176047619Y-218108723D02*
X175857142Y-218299200D01*
X175857142Y-218299200D02*
X175476190Y-218489676D01*
X175476190Y-218489676D02*
X173952380Y-218489676D01*
X173952380Y-218489676D02*
X173952380Y-214489676D01*
X173952380Y-214489676D02*
X175285714Y-214489676D01*
X175285714Y-214489676D02*
X175666666Y-214680152D01*
X175666666Y-214680152D02*
X175857142Y-214870628D01*
X175857142Y-214870628D02*
X176047619Y-215251580D01*
X176047619Y-215251580D02*
X176047619Y-215632533D01*
X176047619Y-215632533D02*
X175857142Y-216013485D01*
X175857142Y-216013485D02*
X175666666Y-216203961D01*
X175666666Y-216203961D02*
X175285714Y-216394438D01*
X175285714Y-216394438D02*
X173952380Y-216394438D01*
X177952380Y-218489676D02*
X177952380Y-215823009D01*
X177952380Y-216584914D02*
X178142857Y-216203961D01*
X178142857Y-216203961D02*
X178333333Y-216013485D01*
X178333333Y-216013485D02*
X178714285Y-215823009D01*
X178714285Y-215823009D02*
X179095238Y-215823009D01*
X180428570Y-215823009D02*
X180428570Y-218489676D01*
X180428570Y-216203961D02*
X180619047Y-216013485D01*
X180619047Y-216013485D02*
X180999999Y-215823009D01*
X180999999Y-215823009D02*
X181571428Y-215823009D01*
X181571428Y-215823009D02*
X181952380Y-216013485D01*
X181952380Y-216013485D02*
X182142856Y-216394438D01*
X182142856Y-216394438D02*
X182142856Y-218489676D01*
X184619047Y-218489676D02*
X184238095Y-218299200D01*
X184238095Y-218299200D02*
X184047618Y-218108723D01*
X184047618Y-218108723D02*
X183857142Y-217727771D01*
X183857142Y-217727771D02*
X183857142Y-216584914D01*
X183857142Y-216584914D02*
X184047618Y-216203961D01*
X184047618Y-216203961D02*
X184238095Y-216013485D01*
X184238095Y-216013485D02*
X184619047Y-215823009D01*
X184619047Y-215823009D02*
X185190476Y-215823009D01*
X185190476Y-215823009D02*
X185571428Y-216013485D01*
X185571428Y-216013485D02*
X185761904Y-216203961D01*
X185761904Y-216203961D02*
X185952380Y-216584914D01*
X185952380Y-216584914D02*
X185952380Y-217727771D01*
X185952380Y-217727771D02*
X185761904Y-218108723D01*
X185761904Y-218108723D02*
X185571428Y-218299200D01*
X185571428Y-218299200D02*
X185190476Y-218489676D01*
X185190476Y-218489676D02*
X184619047Y-218489676D01*
D11*
X385816667Y-221681200D02*
X385959524Y-221728819D01*
X385959524Y-221728819D02*
X386197619Y-221728819D01*
X386197619Y-221728819D02*
X386292857Y-221681200D01*
X386292857Y-221681200D02*
X386340476Y-221633580D01*
X386340476Y-221633580D02*
X386388095Y-221538342D01*
X386388095Y-221538342D02*
X386388095Y-221443104D01*
X386388095Y-221443104D02*
X386340476Y-221347866D01*
X386340476Y-221347866D02*
X386292857Y-221300247D01*
X386292857Y-221300247D02*
X386197619Y-221252628D01*
X386197619Y-221252628D02*
X386007143Y-221205009D01*
X386007143Y-221205009D02*
X385911905Y-221157390D01*
X385911905Y-221157390D02*
X385864286Y-221109771D01*
X385864286Y-221109771D02*
X385816667Y-221014533D01*
X385816667Y-221014533D02*
X385816667Y-220919295D01*
X385816667Y-220919295D02*
X385864286Y-220824057D01*
X385864286Y-220824057D02*
X385911905Y-220776438D01*
X385911905Y-220776438D02*
X386007143Y-220728819D01*
X386007143Y-220728819D02*
X386245238Y-220728819D01*
X386245238Y-220728819D02*
X386388095Y-220776438D01*
X386721429Y-220728819D02*
X386959524Y-221728819D01*
X386959524Y-221728819D02*
X387150000Y-221014533D01*
X387150000Y-221014533D02*
X387340476Y-221728819D01*
X387340476Y-221728819D02*
X387578572Y-220728819D01*
X388435714Y-220728819D02*
X387959524Y-220728819D01*
X387959524Y-220728819D02*
X387911905Y-221205009D01*
X387911905Y-221205009D02*
X387959524Y-221157390D01*
X387959524Y-221157390D02*
X388054762Y-221109771D01*
X388054762Y-221109771D02*
X388292857Y-221109771D01*
X388292857Y-221109771D02*
X388388095Y-221157390D01*
X388388095Y-221157390D02*
X388435714Y-221205009D01*
X388435714Y-221205009D02*
X388483333Y-221300247D01*
X388483333Y-221300247D02*
X388483333Y-221538342D01*
X388483333Y-221538342D02*
X388435714Y-221633580D01*
X388435714Y-221633580D02*
X388388095Y-221681200D01*
X388388095Y-221681200D02*
X388292857Y-221728819D01*
X388292857Y-221728819D02*
X388054762Y-221728819D01*
X388054762Y-221728819D02*
X387959524Y-221681200D01*
X387959524Y-221681200D02*
X387911905Y-221633580D01*
X175790476Y-279281200D02*
X175933333Y-279328819D01*
X175933333Y-279328819D02*
X176171428Y-279328819D01*
X176171428Y-279328819D02*
X176266666Y-279281200D01*
X176266666Y-279281200D02*
X176314285Y-279233580D01*
X176314285Y-279233580D02*
X176361904Y-279138342D01*
X176361904Y-279138342D02*
X176361904Y-279043104D01*
X176361904Y-279043104D02*
X176314285Y-278947866D01*
X176314285Y-278947866D02*
X176266666Y-278900247D01*
X176266666Y-278900247D02*
X176171428Y-278852628D01*
X176171428Y-278852628D02*
X175980952Y-278805009D01*
X175980952Y-278805009D02*
X175885714Y-278757390D01*
X175885714Y-278757390D02*
X175838095Y-278709771D01*
X175838095Y-278709771D02*
X175790476Y-278614533D01*
X175790476Y-278614533D02*
X175790476Y-278519295D01*
X175790476Y-278519295D02*
X175838095Y-278424057D01*
X175838095Y-278424057D02*
X175885714Y-278376438D01*
X175885714Y-278376438D02*
X175980952Y-278328819D01*
X175980952Y-278328819D02*
X176219047Y-278328819D01*
X176219047Y-278328819D02*
X176361904Y-278376438D01*
X176695238Y-278328819D02*
X176933333Y-279328819D01*
X176933333Y-279328819D02*
X177123809Y-278614533D01*
X177123809Y-278614533D02*
X177314285Y-279328819D01*
X177314285Y-279328819D02*
X177552381Y-278328819D01*
X177885714Y-278424057D02*
X177933333Y-278376438D01*
X177933333Y-278376438D02*
X178028571Y-278328819D01*
X178028571Y-278328819D02*
X178266666Y-278328819D01*
X178266666Y-278328819D02*
X178361904Y-278376438D01*
X178361904Y-278376438D02*
X178409523Y-278424057D01*
X178409523Y-278424057D02*
X178457142Y-278519295D01*
X178457142Y-278519295D02*
X178457142Y-278614533D01*
X178457142Y-278614533D02*
X178409523Y-278757390D01*
X178409523Y-278757390D02*
X177838095Y-279328819D01*
X177838095Y-279328819D02*
X178457142Y-279328819D01*
X179314285Y-278662152D02*
X179314285Y-279328819D01*
X179076190Y-278281200D02*
X178838095Y-278995485D01*
X178838095Y-278995485D02*
X179457142Y-278995485D01*
X328190476Y-279281200D02*
X328333333Y-279328819D01*
X328333333Y-279328819D02*
X328571428Y-279328819D01*
X328571428Y-279328819D02*
X328666666Y-279281200D01*
X328666666Y-279281200D02*
X328714285Y-279233580D01*
X328714285Y-279233580D02*
X328761904Y-279138342D01*
X328761904Y-279138342D02*
X328761904Y-279043104D01*
X328761904Y-279043104D02*
X328714285Y-278947866D01*
X328714285Y-278947866D02*
X328666666Y-278900247D01*
X328666666Y-278900247D02*
X328571428Y-278852628D01*
X328571428Y-278852628D02*
X328380952Y-278805009D01*
X328380952Y-278805009D02*
X328285714Y-278757390D01*
X328285714Y-278757390D02*
X328238095Y-278709771D01*
X328238095Y-278709771D02*
X328190476Y-278614533D01*
X328190476Y-278614533D02*
X328190476Y-278519295D01*
X328190476Y-278519295D02*
X328238095Y-278424057D01*
X328238095Y-278424057D02*
X328285714Y-278376438D01*
X328285714Y-278376438D02*
X328380952Y-278328819D01*
X328380952Y-278328819D02*
X328619047Y-278328819D01*
X328619047Y-278328819D02*
X328761904Y-278376438D01*
X329095238Y-278328819D02*
X329333333Y-279328819D01*
X329333333Y-279328819D02*
X329523809Y-278614533D01*
X329523809Y-278614533D02*
X329714285Y-279328819D01*
X329714285Y-279328819D02*
X329952381Y-278328819D01*
X330238095Y-278328819D02*
X330857142Y-278328819D01*
X330857142Y-278328819D02*
X330523809Y-278709771D01*
X330523809Y-278709771D02*
X330666666Y-278709771D01*
X330666666Y-278709771D02*
X330761904Y-278757390D01*
X330761904Y-278757390D02*
X330809523Y-278805009D01*
X330809523Y-278805009D02*
X330857142Y-278900247D01*
X330857142Y-278900247D02*
X330857142Y-279138342D01*
X330857142Y-279138342D02*
X330809523Y-279233580D01*
X330809523Y-279233580D02*
X330761904Y-279281200D01*
X330761904Y-279281200D02*
X330666666Y-279328819D01*
X330666666Y-279328819D02*
X330380952Y-279328819D01*
X330380952Y-279328819D02*
X330285714Y-279281200D01*
X330285714Y-279281200D02*
X330238095Y-279233580D01*
X331238095Y-278424057D02*
X331285714Y-278376438D01*
X331285714Y-278376438D02*
X331380952Y-278328819D01*
X331380952Y-278328819D02*
X331619047Y-278328819D01*
X331619047Y-278328819D02*
X331714285Y-278376438D01*
X331714285Y-278376438D02*
X331761904Y-278424057D01*
X331761904Y-278424057D02*
X331809523Y-278519295D01*
X331809523Y-278519295D02*
X331809523Y-278614533D01*
X331809523Y-278614533D02*
X331761904Y-278757390D01*
X331761904Y-278757390D02*
X331190476Y-279328819D01*
X331190476Y-279328819D02*
X331809523Y-279328819D01*
X309140476Y-279281200D02*
X309283333Y-279328819D01*
X309283333Y-279328819D02*
X309521428Y-279328819D01*
X309521428Y-279328819D02*
X309616666Y-279281200D01*
X309616666Y-279281200D02*
X309664285Y-279233580D01*
X309664285Y-279233580D02*
X309711904Y-279138342D01*
X309711904Y-279138342D02*
X309711904Y-279043104D01*
X309711904Y-279043104D02*
X309664285Y-278947866D01*
X309664285Y-278947866D02*
X309616666Y-278900247D01*
X309616666Y-278900247D02*
X309521428Y-278852628D01*
X309521428Y-278852628D02*
X309330952Y-278805009D01*
X309330952Y-278805009D02*
X309235714Y-278757390D01*
X309235714Y-278757390D02*
X309188095Y-278709771D01*
X309188095Y-278709771D02*
X309140476Y-278614533D01*
X309140476Y-278614533D02*
X309140476Y-278519295D01*
X309140476Y-278519295D02*
X309188095Y-278424057D01*
X309188095Y-278424057D02*
X309235714Y-278376438D01*
X309235714Y-278376438D02*
X309330952Y-278328819D01*
X309330952Y-278328819D02*
X309569047Y-278328819D01*
X309569047Y-278328819D02*
X309711904Y-278376438D01*
X310045238Y-278328819D02*
X310283333Y-279328819D01*
X310283333Y-279328819D02*
X310473809Y-278614533D01*
X310473809Y-278614533D02*
X310664285Y-279328819D01*
X310664285Y-279328819D02*
X310902381Y-278328819D01*
X311188095Y-278328819D02*
X311807142Y-278328819D01*
X311807142Y-278328819D02*
X311473809Y-278709771D01*
X311473809Y-278709771D02*
X311616666Y-278709771D01*
X311616666Y-278709771D02*
X311711904Y-278757390D01*
X311711904Y-278757390D02*
X311759523Y-278805009D01*
X311759523Y-278805009D02*
X311807142Y-278900247D01*
X311807142Y-278900247D02*
X311807142Y-279138342D01*
X311807142Y-279138342D02*
X311759523Y-279233580D01*
X311759523Y-279233580D02*
X311711904Y-279281200D01*
X311711904Y-279281200D02*
X311616666Y-279328819D01*
X311616666Y-279328819D02*
X311330952Y-279328819D01*
X311330952Y-279328819D02*
X311235714Y-279281200D01*
X311235714Y-279281200D02*
X311188095Y-279233580D01*
X312759523Y-279328819D02*
X312188095Y-279328819D01*
X312473809Y-279328819D02*
X312473809Y-278328819D01*
X312473809Y-278328819D02*
X312378571Y-278471676D01*
X312378571Y-278471676D02*
X312283333Y-278566914D01*
X312283333Y-278566914D02*
X312188095Y-278614533D01*
X258911905Y-210894819D02*
X258911905Y-209894819D01*
X258911905Y-209894819D02*
X259150000Y-209894819D01*
X259150000Y-209894819D02*
X259292857Y-209942438D01*
X259292857Y-209942438D02*
X259388095Y-210037676D01*
X259388095Y-210037676D02*
X259435714Y-210132914D01*
X259435714Y-210132914D02*
X259483333Y-210323390D01*
X259483333Y-210323390D02*
X259483333Y-210466247D01*
X259483333Y-210466247D02*
X259435714Y-210656723D01*
X259435714Y-210656723D02*
X259388095Y-210751961D01*
X259388095Y-210751961D02*
X259292857Y-210847200D01*
X259292857Y-210847200D02*
X259150000Y-210894819D01*
X259150000Y-210894819D02*
X258911905Y-210894819D01*
X259816667Y-209894819D02*
X260435714Y-209894819D01*
X260435714Y-209894819D02*
X260102381Y-210275771D01*
X260102381Y-210275771D02*
X260245238Y-210275771D01*
X260245238Y-210275771D02*
X260340476Y-210323390D01*
X260340476Y-210323390D02*
X260388095Y-210371009D01*
X260388095Y-210371009D02*
X260435714Y-210466247D01*
X260435714Y-210466247D02*
X260435714Y-210704342D01*
X260435714Y-210704342D02*
X260388095Y-210799580D01*
X260388095Y-210799580D02*
X260340476Y-210847200D01*
X260340476Y-210847200D02*
X260245238Y-210894819D01*
X260245238Y-210894819D02*
X259959524Y-210894819D01*
X259959524Y-210894819D02*
X259864286Y-210847200D01*
X259864286Y-210847200D02*
X259816667Y-210799580D01*
X375810476Y-250481200D02*
X375953333Y-250528819D01*
X375953333Y-250528819D02*
X376191428Y-250528819D01*
X376191428Y-250528819D02*
X376286666Y-250481200D01*
X376286666Y-250481200D02*
X376334285Y-250433580D01*
X376334285Y-250433580D02*
X376381904Y-250338342D01*
X376381904Y-250338342D02*
X376381904Y-250243104D01*
X376381904Y-250243104D02*
X376334285Y-250147866D01*
X376334285Y-250147866D02*
X376286666Y-250100247D01*
X376286666Y-250100247D02*
X376191428Y-250052628D01*
X376191428Y-250052628D02*
X376000952Y-250005009D01*
X376000952Y-250005009D02*
X375905714Y-249957390D01*
X375905714Y-249957390D02*
X375858095Y-249909771D01*
X375858095Y-249909771D02*
X375810476Y-249814533D01*
X375810476Y-249814533D02*
X375810476Y-249719295D01*
X375810476Y-249719295D02*
X375858095Y-249624057D01*
X375858095Y-249624057D02*
X375905714Y-249576438D01*
X375905714Y-249576438D02*
X376000952Y-249528819D01*
X376000952Y-249528819D02*
X376239047Y-249528819D01*
X376239047Y-249528819D02*
X376381904Y-249576438D01*
X376715238Y-249528819D02*
X376953333Y-250528819D01*
X376953333Y-250528819D02*
X377143809Y-249814533D01*
X377143809Y-249814533D02*
X377334285Y-250528819D01*
X377334285Y-250528819D02*
X377572381Y-249528819D01*
X378477142Y-250528819D02*
X377905714Y-250528819D01*
X378191428Y-250528819D02*
X378191428Y-249528819D01*
X378191428Y-249528819D02*
X378096190Y-249671676D01*
X378096190Y-249671676D02*
X378000952Y-249766914D01*
X378000952Y-249766914D02*
X377905714Y-249814533D01*
X378810476Y-249528819D02*
X379477142Y-249528819D01*
X379477142Y-249528819D02*
X379048571Y-250528819D01*
X194840476Y-279281200D02*
X194983333Y-279328819D01*
X194983333Y-279328819D02*
X195221428Y-279328819D01*
X195221428Y-279328819D02*
X195316666Y-279281200D01*
X195316666Y-279281200D02*
X195364285Y-279233580D01*
X195364285Y-279233580D02*
X195411904Y-279138342D01*
X195411904Y-279138342D02*
X195411904Y-279043104D01*
X195411904Y-279043104D02*
X195364285Y-278947866D01*
X195364285Y-278947866D02*
X195316666Y-278900247D01*
X195316666Y-278900247D02*
X195221428Y-278852628D01*
X195221428Y-278852628D02*
X195030952Y-278805009D01*
X195030952Y-278805009D02*
X194935714Y-278757390D01*
X194935714Y-278757390D02*
X194888095Y-278709771D01*
X194888095Y-278709771D02*
X194840476Y-278614533D01*
X194840476Y-278614533D02*
X194840476Y-278519295D01*
X194840476Y-278519295D02*
X194888095Y-278424057D01*
X194888095Y-278424057D02*
X194935714Y-278376438D01*
X194935714Y-278376438D02*
X195030952Y-278328819D01*
X195030952Y-278328819D02*
X195269047Y-278328819D01*
X195269047Y-278328819D02*
X195411904Y-278376438D01*
X195745238Y-278328819D02*
X195983333Y-279328819D01*
X195983333Y-279328819D02*
X196173809Y-278614533D01*
X196173809Y-278614533D02*
X196364285Y-279328819D01*
X196364285Y-279328819D02*
X196602381Y-278328819D01*
X196935714Y-278424057D02*
X196983333Y-278376438D01*
X196983333Y-278376438D02*
X197078571Y-278328819D01*
X197078571Y-278328819D02*
X197316666Y-278328819D01*
X197316666Y-278328819D02*
X197411904Y-278376438D01*
X197411904Y-278376438D02*
X197459523Y-278424057D01*
X197459523Y-278424057D02*
X197507142Y-278519295D01*
X197507142Y-278519295D02*
X197507142Y-278614533D01*
X197507142Y-278614533D02*
X197459523Y-278757390D01*
X197459523Y-278757390D02*
X196888095Y-279328819D01*
X196888095Y-279328819D02*
X197507142Y-279328819D01*
X198411904Y-278328819D02*
X197935714Y-278328819D01*
X197935714Y-278328819D02*
X197888095Y-278805009D01*
X197888095Y-278805009D02*
X197935714Y-278757390D01*
X197935714Y-278757390D02*
X198030952Y-278709771D01*
X198030952Y-278709771D02*
X198269047Y-278709771D01*
X198269047Y-278709771D02*
X198364285Y-278757390D01*
X198364285Y-278757390D02*
X198411904Y-278805009D01*
X198411904Y-278805009D02*
X198459523Y-278900247D01*
X198459523Y-278900247D02*
X198459523Y-279138342D01*
X198459523Y-279138342D02*
X198411904Y-279233580D01*
X198411904Y-279233580D02*
X198364285Y-279281200D01*
X198364285Y-279281200D02*
X198269047Y-279328819D01*
X198269047Y-279328819D02*
X198030952Y-279328819D01*
X198030952Y-279328819D02*
X197935714Y-279281200D01*
X197935714Y-279281200D02*
X197888095Y-279233580D01*
X385340476Y-279281200D02*
X385483333Y-279328819D01*
X385483333Y-279328819D02*
X385721428Y-279328819D01*
X385721428Y-279328819D02*
X385816666Y-279281200D01*
X385816666Y-279281200D02*
X385864285Y-279233580D01*
X385864285Y-279233580D02*
X385911904Y-279138342D01*
X385911904Y-279138342D02*
X385911904Y-279043104D01*
X385911904Y-279043104D02*
X385864285Y-278947866D01*
X385864285Y-278947866D02*
X385816666Y-278900247D01*
X385816666Y-278900247D02*
X385721428Y-278852628D01*
X385721428Y-278852628D02*
X385530952Y-278805009D01*
X385530952Y-278805009D02*
X385435714Y-278757390D01*
X385435714Y-278757390D02*
X385388095Y-278709771D01*
X385388095Y-278709771D02*
X385340476Y-278614533D01*
X385340476Y-278614533D02*
X385340476Y-278519295D01*
X385340476Y-278519295D02*
X385388095Y-278424057D01*
X385388095Y-278424057D02*
X385435714Y-278376438D01*
X385435714Y-278376438D02*
X385530952Y-278328819D01*
X385530952Y-278328819D02*
X385769047Y-278328819D01*
X385769047Y-278328819D02*
X385911904Y-278376438D01*
X386245238Y-278328819D02*
X386483333Y-279328819D01*
X386483333Y-279328819D02*
X386673809Y-278614533D01*
X386673809Y-278614533D02*
X386864285Y-279328819D01*
X386864285Y-279328819D02*
X387102381Y-278328819D01*
X387388095Y-278328819D02*
X388007142Y-278328819D01*
X388007142Y-278328819D02*
X387673809Y-278709771D01*
X387673809Y-278709771D02*
X387816666Y-278709771D01*
X387816666Y-278709771D02*
X387911904Y-278757390D01*
X387911904Y-278757390D02*
X387959523Y-278805009D01*
X387959523Y-278805009D02*
X388007142Y-278900247D01*
X388007142Y-278900247D02*
X388007142Y-279138342D01*
X388007142Y-279138342D02*
X387959523Y-279233580D01*
X387959523Y-279233580D02*
X387911904Y-279281200D01*
X387911904Y-279281200D02*
X387816666Y-279328819D01*
X387816666Y-279328819D02*
X387530952Y-279328819D01*
X387530952Y-279328819D02*
X387435714Y-279281200D01*
X387435714Y-279281200D02*
X387388095Y-279233580D01*
X388911904Y-278328819D02*
X388435714Y-278328819D01*
X388435714Y-278328819D02*
X388388095Y-278805009D01*
X388388095Y-278805009D02*
X388435714Y-278757390D01*
X388435714Y-278757390D02*
X388530952Y-278709771D01*
X388530952Y-278709771D02*
X388769047Y-278709771D01*
X388769047Y-278709771D02*
X388864285Y-278757390D01*
X388864285Y-278757390D02*
X388911904Y-278805009D01*
X388911904Y-278805009D02*
X388959523Y-278900247D01*
X388959523Y-278900247D02*
X388959523Y-279138342D01*
X388959523Y-279138342D02*
X388911904Y-279233580D01*
X388911904Y-279233580D02*
X388864285Y-279281200D01*
X388864285Y-279281200D02*
X388769047Y-279328819D01*
X388769047Y-279328819D02*
X388530952Y-279328819D01*
X388530952Y-279328819D02*
X388435714Y-279281200D01*
X388435714Y-279281200D02*
X388388095Y-279233580D01*
X290090476Y-279281200D02*
X290233333Y-279328819D01*
X290233333Y-279328819D02*
X290471428Y-279328819D01*
X290471428Y-279328819D02*
X290566666Y-279281200D01*
X290566666Y-279281200D02*
X290614285Y-279233580D01*
X290614285Y-279233580D02*
X290661904Y-279138342D01*
X290661904Y-279138342D02*
X290661904Y-279043104D01*
X290661904Y-279043104D02*
X290614285Y-278947866D01*
X290614285Y-278947866D02*
X290566666Y-278900247D01*
X290566666Y-278900247D02*
X290471428Y-278852628D01*
X290471428Y-278852628D02*
X290280952Y-278805009D01*
X290280952Y-278805009D02*
X290185714Y-278757390D01*
X290185714Y-278757390D02*
X290138095Y-278709771D01*
X290138095Y-278709771D02*
X290090476Y-278614533D01*
X290090476Y-278614533D02*
X290090476Y-278519295D01*
X290090476Y-278519295D02*
X290138095Y-278424057D01*
X290138095Y-278424057D02*
X290185714Y-278376438D01*
X290185714Y-278376438D02*
X290280952Y-278328819D01*
X290280952Y-278328819D02*
X290519047Y-278328819D01*
X290519047Y-278328819D02*
X290661904Y-278376438D01*
X290995238Y-278328819D02*
X291233333Y-279328819D01*
X291233333Y-279328819D02*
X291423809Y-278614533D01*
X291423809Y-278614533D02*
X291614285Y-279328819D01*
X291614285Y-279328819D02*
X291852381Y-278328819D01*
X292185714Y-278424057D02*
X292233333Y-278376438D01*
X292233333Y-278376438D02*
X292328571Y-278328819D01*
X292328571Y-278328819D02*
X292566666Y-278328819D01*
X292566666Y-278328819D02*
X292661904Y-278376438D01*
X292661904Y-278376438D02*
X292709523Y-278424057D01*
X292709523Y-278424057D02*
X292757142Y-278519295D01*
X292757142Y-278519295D02*
X292757142Y-278614533D01*
X292757142Y-278614533D02*
X292709523Y-278757390D01*
X292709523Y-278757390D02*
X292138095Y-279328819D01*
X292138095Y-279328819D02*
X292757142Y-279328819D01*
X293233333Y-279328819D02*
X293423809Y-279328819D01*
X293423809Y-279328819D02*
X293519047Y-279281200D01*
X293519047Y-279281200D02*
X293566666Y-279233580D01*
X293566666Y-279233580D02*
X293661904Y-279090723D01*
X293661904Y-279090723D02*
X293709523Y-278900247D01*
X293709523Y-278900247D02*
X293709523Y-278519295D01*
X293709523Y-278519295D02*
X293661904Y-278424057D01*
X293661904Y-278424057D02*
X293614285Y-278376438D01*
X293614285Y-278376438D02*
X293519047Y-278328819D01*
X293519047Y-278328819D02*
X293328571Y-278328819D01*
X293328571Y-278328819D02*
X293233333Y-278376438D01*
X293233333Y-278376438D02*
X293185714Y-278424057D01*
X293185714Y-278424057D02*
X293138095Y-278519295D01*
X293138095Y-278519295D02*
X293138095Y-278757390D01*
X293138095Y-278757390D02*
X293185714Y-278852628D01*
X293185714Y-278852628D02*
X293233333Y-278900247D01*
X293233333Y-278900247D02*
X293328571Y-278947866D01*
X293328571Y-278947866D02*
X293519047Y-278947866D01*
X293519047Y-278947866D02*
X293614285Y-278900247D01*
X293614285Y-278900247D02*
X293661904Y-278852628D01*
X293661904Y-278852628D02*
X293709523Y-278757390D01*
X280560476Y-250481200D02*
X280703333Y-250528819D01*
X280703333Y-250528819D02*
X280941428Y-250528819D01*
X280941428Y-250528819D02*
X281036666Y-250481200D01*
X281036666Y-250481200D02*
X281084285Y-250433580D01*
X281084285Y-250433580D02*
X281131904Y-250338342D01*
X281131904Y-250338342D02*
X281131904Y-250243104D01*
X281131904Y-250243104D02*
X281084285Y-250147866D01*
X281084285Y-250147866D02*
X281036666Y-250100247D01*
X281036666Y-250100247D02*
X280941428Y-250052628D01*
X280941428Y-250052628D02*
X280750952Y-250005009D01*
X280750952Y-250005009D02*
X280655714Y-249957390D01*
X280655714Y-249957390D02*
X280608095Y-249909771D01*
X280608095Y-249909771D02*
X280560476Y-249814533D01*
X280560476Y-249814533D02*
X280560476Y-249719295D01*
X280560476Y-249719295D02*
X280608095Y-249624057D01*
X280608095Y-249624057D02*
X280655714Y-249576438D01*
X280655714Y-249576438D02*
X280750952Y-249528819D01*
X280750952Y-249528819D02*
X280989047Y-249528819D01*
X280989047Y-249528819D02*
X281131904Y-249576438D01*
X281465238Y-249528819D02*
X281703333Y-250528819D01*
X281703333Y-250528819D02*
X281893809Y-249814533D01*
X281893809Y-249814533D02*
X282084285Y-250528819D01*
X282084285Y-250528819D02*
X282322381Y-249528819D01*
X283227142Y-250528819D02*
X282655714Y-250528819D01*
X282941428Y-250528819D02*
X282941428Y-249528819D01*
X282941428Y-249528819D02*
X282846190Y-249671676D01*
X282846190Y-249671676D02*
X282750952Y-249766914D01*
X282750952Y-249766914D02*
X282655714Y-249814533D01*
X284084285Y-249862152D02*
X284084285Y-250528819D01*
X283846190Y-249481200D02*
X283608095Y-250195485D01*
X283608095Y-250195485D02*
X284227142Y-250195485D01*
X413910476Y-250481200D02*
X414053333Y-250528819D01*
X414053333Y-250528819D02*
X414291428Y-250528819D01*
X414291428Y-250528819D02*
X414386666Y-250481200D01*
X414386666Y-250481200D02*
X414434285Y-250433580D01*
X414434285Y-250433580D02*
X414481904Y-250338342D01*
X414481904Y-250338342D02*
X414481904Y-250243104D01*
X414481904Y-250243104D02*
X414434285Y-250147866D01*
X414434285Y-250147866D02*
X414386666Y-250100247D01*
X414386666Y-250100247D02*
X414291428Y-250052628D01*
X414291428Y-250052628D02*
X414100952Y-250005009D01*
X414100952Y-250005009D02*
X414005714Y-249957390D01*
X414005714Y-249957390D02*
X413958095Y-249909771D01*
X413958095Y-249909771D02*
X413910476Y-249814533D01*
X413910476Y-249814533D02*
X413910476Y-249719295D01*
X413910476Y-249719295D02*
X413958095Y-249624057D01*
X413958095Y-249624057D02*
X414005714Y-249576438D01*
X414005714Y-249576438D02*
X414100952Y-249528819D01*
X414100952Y-249528819D02*
X414339047Y-249528819D01*
X414339047Y-249528819D02*
X414481904Y-249576438D01*
X414815238Y-249528819D02*
X415053333Y-250528819D01*
X415053333Y-250528819D02*
X415243809Y-249814533D01*
X415243809Y-249814533D02*
X415434285Y-250528819D01*
X415434285Y-250528819D02*
X415672381Y-249528819D01*
X416577142Y-250528819D02*
X416005714Y-250528819D01*
X416291428Y-250528819D02*
X416291428Y-249528819D01*
X416291428Y-249528819D02*
X416196190Y-249671676D01*
X416196190Y-249671676D02*
X416100952Y-249766914D01*
X416100952Y-249766914D02*
X416005714Y-249814533D01*
X417053333Y-250528819D02*
X417243809Y-250528819D01*
X417243809Y-250528819D02*
X417339047Y-250481200D01*
X417339047Y-250481200D02*
X417386666Y-250433580D01*
X417386666Y-250433580D02*
X417481904Y-250290723D01*
X417481904Y-250290723D02*
X417529523Y-250100247D01*
X417529523Y-250100247D02*
X417529523Y-249719295D01*
X417529523Y-249719295D02*
X417481904Y-249624057D01*
X417481904Y-249624057D02*
X417434285Y-249576438D01*
X417434285Y-249576438D02*
X417339047Y-249528819D01*
X417339047Y-249528819D02*
X417148571Y-249528819D01*
X417148571Y-249528819D02*
X417053333Y-249576438D01*
X417053333Y-249576438D02*
X417005714Y-249624057D01*
X417005714Y-249624057D02*
X416958095Y-249719295D01*
X416958095Y-249719295D02*
X416958095Y-249957390D01*
X416958095Y-249957390D02*
X417005714Y-250052628D01*
X417005714Y-250052628D02*
X417053333Y-250100247D01*
X417053333Y-250100247D02*
X417148571Y-250147866D01*
X417148571Y-250147866D02*
X417339047Y-250147866D01*
X417339047Y-250147866D02*
X417434285Y-250100247D01*
X417434285Y-250100247D02*
X417481904Y-250052628D01*
X417481904Y-250052628D02*
X417529523Y-249957390D01*
X337710476Y-250481200D02*
X337853333Y-250528819D01*
X337853333Y-250528819D02*
X338091428Y-250528819D01*
X338091428Y-250528819D02*
X338186666Y-250481200D01*
X338186666Y-250481200D02*
X338234285Y-250433580D01*
X338234285Y-250433580D02*
X338281904Y-250338342D01*
X338281904Y-250338342D02*
X338281904Y-250243104D01*
X338281904Y-250243104D02*
X338234285Y-250147866D01*
X338234285Y-250147866D02*
X338186666Y-250100247D01*
X338186666Y-250100247D02*
X338091428Y-250052628D01*
X338091428Y-250052628D02*
X337900952Y-250005009D01*
X337900952Y-250005009D02*
X337805714Y-249957390D01*
X337805714Y-249957390D02*
X337758095Y-249909771D01*
X337758095Y-249909771D02*
X337710476Y-249814533D01*
X337710476Y-249814533D02*
X337710476Y-249719295D01*
X337710476Y-249719295D02*
X337758095Y-249624057D01*
X337758095Y-249624057D02*
X337805714Y-249576438D01*
X337805714Y-249576438D02*
X337900952Y-249528819D01*
X337900952Y-249528819D02*
X338139047Y-249528819D01*
X338139047Y-249528819D02*
X338281904Y-249576438D01*
X338615238Y-249528819D02*
X338853333Y-250528819D01*
X338853333Y-250528819D02*
X339043809Y-249814533D01*
X339043809Y-249814533D02*
X339234285Y-250528819D01*
X339234285Y-250528819D02*
X339472381Y-249528819D01*
X340377142Y-250528819D02*
X339805714Y-250528819D01*
X340091428Y-250528819D02*
X340091428Y-249528819D01*
X340091428Y-249528819D02*
X339996190Y-249671676D01*
X339996190Y-249671676D02*
X339900952Y-249766914D01*
X339900952Y-249766914D02*
X339805714Y-249814533D01*
X341234285Y-249528819D02*
X341043809Y-249528819D01*
X341043809Y-249528819D02*
X340948571Y-249576438D01*
X340948571Y-249576438D02*
X340900952Y-249624057D01*
X340900952Y-249624057D02*
X340805714Y-249766914D01*
X340805714Y-249766914D02*
X340758095Y-249957390D01*
X340758095Y-249957390D02*
X340758095Y-250338342D01*
X340758095Y-250338342D02*
X340805714Y-250433580D01*
X340805714Y-250433580D02*
X340853333Y-250481200D01*
X340853333Y-250481200D02*
X340948571Y-250528819D01*
X340948571Y-250528819D02*
X341139047Y-250528819D01*
X341139047Y-250528819D02*
X341234285Y-250481200D01*
X341234285Y-250481200D02*
X341281904Y-250433580D01*
X341281904Y-250433580D02*
X341329523Y-250338342D01*
X341329523Y-250338342D02*
X341329523Y-250100247D01*
X341329523Y-250100247D02*
X341281904Y-250005009D01*
X341281904Y-250005009D02*
X341234285Y-249957390D01*
X341234285Y-249957390D02*
X341139047Y-249909771D01*
X341139047Y-249909771D02*
X340948571Y-249909771D01*
X340948571Y-249909771D02*
X340853333Y-249957390D01*
X340853333Y-249957390D02*
X340805714Y-250005009D01*
X340805714Y-250005009D02*
X340758095Y-250100247D01*
X471060476Y-250481200D02*
X471203333Y-250528819D01*
X471203333Y-250528819D02*
X471441428Y-250528819D01*
X471441428Y-250528819D02*
X471536666Y-250481200D01*
X471536666Y-250481200D02*
X471584285Y-250433580D01*
X471584285Y-250433580D02*
X471631904Y-250338342D01*
X471631904Y-250338342D02*
X471631904Y-250243104D01*
X471631904Y-250243104D02*
X471584285Y-250147866D01*
X471584285Y-250147866D02*
X471536666Y-250100247D01*
X471536666Y-250100247D02*
X471441428Y-250052628D01*
X471441428Y-250052628D02*
X471250952Y-250005009D01*
X471250952Y-250005009D02*
X471155714Y-249957390D01*
X471155714Y-249957390D02*
X471108095Y-249909771D01*
X471108095Y-249909771D02*
X471060476Y-249814533D01*
X471060476Y-249814533D02*
X471060476Y-249719295D01*
X471060476Y-249719295D02*
X471108095Y-249624057D01*
X471108095Y-249624057D02*
X471155714Y-249576438D01*
X471155714Y-249576438D02*
X471250952Y-249528819D01*
X471250952Y-249528819D02*
X471489047Y-249528819D01*
X471489047Y-249528819D02*
X471631904Y-249576438D01*
X471965238Y-249528819D02*
X472203333Y-250528819D01*
X472203333Y-250528819D02*
X472393809Y-249814533D01*
X472393809Y-249814533D02*
X472584285Y-250528819D01*
X472584285Y-250528819D02*
X472822381Y-249528819D01*
X473155714Y-249624057D02*
X473203333Y-249576438D01*
X473203333Y-249576438D02*
X473298571Y-249528819D01*
X473298571Y-249528819D02*
X473536666Y-249528819D01*
X473536666Y-249528819D02*
X473631904Y-249576438D01*
X473631904Y-249576438D02*
X473679523Y-249624057D01*
X473679523Y-249624057D02*
X473727142Y-249719295D01*
X473727142Y-249719295D02*
X473727142Y-249814533D01*
X473727142Y-249814533D02*
X473679523Y-249957390D01*
X473679523Y-249957390D02*
X473108095Y-250528819D01*
X473108095Y-250528819D02*
X473727142Y-250528819D01*
X474679523Y-250528819D02*
X474108095Y-250528819D01*
X474393809Y-250528819D02*
X474393809Y-249528819D01*
X474393809Y-249528819D02*
X474298571Y-249671676D01*
X474298571Y-249671676D02*
X474203333Y-249766914D01*
X474203333Y-249766914D02*
X474108095Y-249814533D01*
X318660476Y-250481200D02*
X318803333Y-250528819D01*
X318803333Y-250528819D02*
X319041428Y-250528819D01*
X319041428Y-250528819D02*
X319136666Y-250481200D01*
X319136666Y-250481200D02*
X319184285Y-250433580D01*
X319184285Y-250433580D02*
X319231904Y-250338342D01*
X319231904Y-250338342D02*
X319231904Y-250243104D01*
X319231904Y-250243104D02*
X319184285Y-250147866D01*
X319184285Y-250147866D02*
X319136666Y-250100247D01*
X319136666Y-250100247D02*
X319041428Y-250052628D01*
X319041428Y-250052628D02*
X318850952Y-250005009D01*
X318850952Y-250005009D02*
X318755714Y-249957390D01*
X318755714Y-249957390D02*
X318708095Y-249909771D01*
X318708095Y-249909771D02*
X318660476Y-249814533D01*
X318660476Y-249814533D02*
X318660476Y-249719295D01*
X318660476Y-249719295D02*
X318708095Y-249624057D01*
X318708095Y-249624057D02*
X318755714Y-249576438D01*
X318755714Y-249576438D02*
X318850952Y-249528819D01*
X318850952Y-249528819D02*
X319089047Y-249528819D01*
X319089047Y-249528819D02*
X319231904Y-249576438D01*
X319565238Y-249528819D02*
X319803333Y-250528819D01*
X319803333Y-250528819D02*
X319993809Y-249814533D01*
X319993809Y-249814533D02*
X320184285Y-250528819D01*
X320184285Y-250528819D02*
X320422381Y-249528819D01*
X321327142Y-250528819D02*
X320755714Y-250528819D01*
X321041428Y-250528819D02*
X321041428Y-249528819D01*
X321041428Y-249528819D02*
X320946190Y-249671676D01*
X320946190Y-249671676D02*
X320850952Y-249766914D01*
X320850952Y-249766914D02*
X320755714Y-249814533D01*
X322231904Y-249528819D02*
X321755714Y-249528819D01*
X321755714Y-249528819D02*
X321708095Y-250005009D01*
X321708095Y-250005009D02*
X321755714Y-249957390D01*
X321755714Y-249957390D02*
X321850952Y-249909771D01*
X321850952Y-249909771D02*
X322089047Y-249909771D01*
X322089047Y-249909771D02*
X322184285Y-249957390D01*
X322184285Y-249957390D02*
X322231904Y-250005009D01*
X322231904Y-250005009D02*
X322279523Y-250100247D01*
X322279523Y-250100247D02*
X322279523Y-250338342D01*
X322279523Y-250338342D02*
X322231904Y-250433580D01*
X322231904Y-250433580D02*
X322184285Y-250481200D01*
X322184285Y-250481200D02*
X322089047Y-250528819D01*
X322089047Y-250528819D02*
X321850952Y-250528819D01*
X321850952Y-250528819D02*
X321755714Y-250481200D01*
X321755714Y-250481200D02*
X321708095Y-250433580D01*
X237511905Y-210894819D02*
X237511905Y-209894819D01*
X237511905Y-209894819D02*
X237750000Y-209894819D01*
X237750000Y-209894819D02*
X237892857Y-209942438D01*
X237892857Y-209942438D02*
X237988095Y-210037676D01*
X237988095Y-210037676D02*
X238035714Y-210132914D01*
X238035714Y-210132914D02*
X238083333Y-210323390D01*
X238083333Y-210323390D02*
X238083333Y-210466247D01*
X238083333Y-210466247D02*
X238035714Y-210656723D01*
X238035714Y-210656723D02*
X237988095Y-210751961D01*
X237988095Y-210751961D02*
X237892857Y-210847200D01*
X237892857Y-210847200D02*
X237750000Y-210894819D01*
X237750000Y-210894819D02*
X237511905Y-210894819D01*
X239035714Y-210894819D02*
X238464286Y-210894819D01*
X238750000Y-210894819D02*
X238750000Y-209894819D01*
X238750000Y-209894819D02*
X238654762Y-210037676D01*
X238654762Y-210037676D02*
X238559524Y-210132914D01*
X238559524Y-210132914D02*
X238464286Y-210180533D01*
X461540476Y-279281200D02*
X461683333Y-279328819D01*
X461683333Y-279328819D02*
X461921428Y-279328819D01*
X461921428Y-279328819D02*
X462016666Y-279281200D01*
X462016666Y-279281200D02*
X462064285Y-279233580D01*
X462064285Y-279233580D02*
X462111904Y-279138342D01*
X462111904Y-279138342D02*
X462111904Y-279043104D01*
X462111904Y-279043104D02*
X462064285Y-278947866D01*
X462064285Y-278947866D02*
X462016666Y-278900247D01*
X462016666Y-278900247D02*
X461921428Y-278852628D01*
X461921428Y-278852628D02*
X461730952Y-278805009D01*
X461730952Y-278805009D02*
X461635714Y-278757390D01*
X461635714Y-278757390D02*
X461588095Y-278709771D01*
X461588095Y-278709771D02*
X461540476Y-278614533D01*
X461540476Y-278614533D02*
X461540476Y-278519295D01*
X461540476Y-278519295D02*
X461588095Y-278424057D01*
X461588095Y-278424057D02*
X461635714Y-278376438D01*
X461635714Y-278376438D02*
X461730952Y-278328819D01*
X461730952Y-278328819D02*
X461969047Y-278328819D01*
X461969047Y-278328819D02*
X462111904Y-278376438D01*
X462445238Y-278328819D02*
X462683333Y-279328819D01*
X462683333Y-279328819D02*
X462873809Y-278614533D01*
X462873809Y-278614533D02*
X463064285Y-279328819D01*
X463064285Y-279328819D02*
X463302381Y-278328819D01*
X463588095Y-278328819D02*
X464207142Y-278328819D01*
X464207142Y-278328819D02*
X463873809Y-278709771D01*
X463873809Y-278709771D02*
X464016666Y-278709771D01*
X464016666Y-278709771D02*
X464111904Y-278757390D01*
X464111904Y-278757390D02*
X464159523Y-278805009D01*
X464159523Y-278805009D02*
X464207142Y-278900247D01*
X464207142Y-278900247D02*
X464207142Y-279138342D01*
X464207142Y-279138342D02*
X464159523Y-279233580D01*
X464159523Y-279233580D02*
X464111904Y-279281200D01*
X464111904Y-279281200D02*
X464016666Y-279328819D01*
X464016666Y-279328819D02*
X463730952Y-279328819D01*
X463730952Y-279328819D02*
X463635714Y-279281200D01*
X463635714Y-279281200D02*
X463588095Y-279233580D01*
X464683333Y-279328819D02*
X464873809Y-279328819D01*
X464873809Y-279328819D02*
X464969047Y-279281200D01*
X464969047Y-279281200D02*
X465016666Y-279233580D01*
X465016666Y-279233580D02*
X465111904Y-279090723D01*
X465111904Y-279090723D02*
X465159523Y-278900247D01*
X465159523Y-278900247D02*
X465159523Y-278519295D01*
X465159523Y-278519295D02*
X465111904Y-278424057D01*
X465111904Y-278424057D02*
X465064285Y-278376438D01*
X465064285Y-278376438D02*
X464969047Y-278328819D01*
X464969047Y-278328819D02*
X464778571Y-278328819D01*
X464778571Y-278328819D02*
X464683333Y-278376438D01*
X464683333Y-278376438D02*
X464635714Y-278424057D01*
X464635714Y-278424057D02*
X464588095Y-278519295D01*
X464588095Y-278519295D02*
X464588095Y-278757390D01*
X464588095Y-278757390D02*
X464635714Y-278852628D01*
X464635714Y-278852628D02*
X464683333Y-278900247D01*
X464683333Y-278900247D02*
X464778571Y-278947866D01*
X464778571Y-278947866D02*
X464969047Y-278947866D01*
X464969047Y-278947866D02*
X465064285Y-278900247D01*
X465064285Y-278900247D02*
X465111904Y-278852628D01*
X465111904Y-278852628D02*
X465159523Y-278757390D01*
X394860476Y-250481200D02*
X395003333Y-250528819D01*
X395003333Y-250528819D02*
X395241428Y-250528819D01*
X395241428Y-250528819D02*
X395336666Y-250481200D01*
X395336666Y-250481200D02*
X395384285Y-250433580D01*
X395384285Y-250433580D02*
X395431904Y-250338342D01*
X395431904Y-250338342D02*
X395431904Y-250243104D01*
X395431904Y-250243104D02*
X395384285Y-250147866D01*
X395384285Y-250147866D02*
X395336666Y-250100247D01*
X395336666Y-250100247D02*
X395241428Y-250052628D01*
X395241428Y-250052628D02*
X395050952Y-250005009D01*
X395050952Y-250005009D02*
X394955714Y-249957390D01*
X394955714Y-249957390D02*
X394908095Y-249909771D01*
X394908095Y-249909771D02*
X394860476Y-249814533D01*
X394860476Y-249814533D02*
X394860476Y-249719295D01*
X394860476Y-249719295D02*
X394908095Y-249624057D01*
X394908095Y-249624057D02*
X394955714Y-249576438D01*
X394955714Y-249576438D02*
X395050952Y-249528819D01*
X395050952Y-249528819D02*
X395289047Y-249528819D01*
X395289047Y-249528819D02*
X395431904Y-249576438D01*
X395765238Y-249528819D02*
X396003333Y-250528819D01*
X396003333Y-250528819D02*
X396193809Y-249814533D01*
X396193809Y-249814533D02*
X396384285Y-250528819D01*
X396384285Y-250528819D02*
X396622381Y-249528819D01*
X397527142Y-250528819D02*
X396955714Y-250528819D01*
X397241428Y-250528819D02*
X397241428Y-249528819D01*
X397241428Y-249528819D02*
X397146190Y-249671676D01*
X397146190Y-249671676D02*
X397050952Y-249766914D01*
X397050952Y-249766914D02*
X396955714Y-249814533D01*
X398098571Y-249957390D02*
X398003333Y-249909771D01*
X398003333Y-249909771D02*
X397955714Y-249862152D01*
X397955714Y-249862152D02*
X397908095Y-249766914D01*
X397908095Y-249766914D02*
X397908095Y-249719295D01*
X397908095Y-249719295D02*
X397955714Y-249624057D01*
X397955714Y-249624057D02*
X398003333Y-249576438D01*
X398003333Y-249576438D02*
X398098571Y-249528819D01*
X398098571Y-249528819D02*
X398289047Y-249528819D01*
X398289047Y-249528819D02*
X398384285Y-249576438D01*
X398384285Y-249576438D02*
X398431904Y-249624057D01*
X398431904Y-249624057D02*
X398479523Y-249719295D01*
X398479523Y-249719295D02*
X398479523Y-249766914D01*
X398479523Y-249766914D02*
X398431904Y-249862152D01*
X398431904Y-249862152D02*
X398384285Y-249909771D01*
X398384285Y-249909771D02*
X398289047Y-249957390D01*
X398289047Y-249957390D02*
X398098571Y-249957390D01*
X398098571Y-249957390D02*
X398003333Y-250005009D01*
X398003333Y-250005009D02*
X397955714Y-250052628D01*
X397955714Y-250052628D02*
X397908095Y-250147866D01*
X397908095Y-250147866D02*
X397908095Y-250338342D01*
X397908095Y-250338342D02*
X397955714Y-250433580D01*
X397955714Y-250433580D02*
X398003333Y-250481200D01*
X398003333Y-250481200D02*
X398098571Y-250528819D01*
X398098571Y-250528819D02*
X398289047Y-250528819D01*
X398289047Y-250528819D02*
X398384285Y-250481200D01*
X398384285Y-250481200D02*
X398431904Y-250433580D01*
X398431904Y-250433580D02*
X398479523Y-250338342D01*
X398479523Y-250338342D02*
X398479523Y-250147866D01*
X398479523Y-250147866D02*
X398431904Y-250052628D01*
X398431904Y-250052628D02*
X398384285Y-250005009D01*
X398384285Y-250005009D02*
X398289047Y-249957390D01*
X404866667Y-221681200D02*
X405009524Y-221728819D01*
X405009524Y-221728819D02*
X405247619Y-221728819D01*
X405247619Y-221728819D02*
X405342857Y-221681200D01*
X405342857Y-221681200D02*
X405390476Y-221633580D01*
X405390476Y-221633580D02*
X405438095Y-221538342D01*
X405438095Y-221538342D02*
X405438095Y-221443104D01*
X405438095Y-221443104D02*
X405390476Y-221347866D01*
X405390476Y-221347866D02*
X405342857Y-221300247D01*
X405342857Y-221300247D02*
X405247619Y-221252628D01*
X405247619Y-221252628D02*
X405057143Y-221205009D01*
X405057143Y-221205009D02*
X404961905Y-221157390D01*
X404961905Y-221157390D02*
X404914286Y-221109771D01*
X404914286Y-221109771D02*
X404866667Y-221014533D01*
X404866667Y-221014533D02*
X404866667Y-220919295D01*
X404866667Y-220919295D02*
X404914286Y-220824057D01*
X404914286Y-220824057D02*
X404961905Y-220776438D01*
X404961905Y-220776438D02*
X405057143Y-220728819D01*
X405057143Y-220728819D02*
X405295238Y-220728819D01*
X405295238Y-220728819D02*
X405438095Y-220776438D01*
X405771429Y-220728819D02*
X406009524Y-221728819D01*
X406009524Y-221728819D02*
X406200000Y-221014533D01*
X406200000Y-221014533D02*
X406390476Y-221728819D01*
X406390476Y-221728819D02*
X406628572Y-220728819D01*
X407438095Y-220728819D02*
X407247619Y-220728819D01*
X407247619Y-220728819D02*
X407152381Y-220776438D01*
X407152381Y-220776438D02*
X407104762Y-220824057D01*
X407104762Y-220824057D02*
X407009524Y-220966914D01*
X407009524Y-220966914D02*
X406961905Y-221157390D01*
X406961905Y-221157390D02*
X406961905Y-221538342D01*
X406961905Y-221538342D02*
X407009524Y-221633580D01*
X407009524Y-221633580D02*
X407057143Y-221681200D01*
X407057143Y-221681200D02*
X407152381Y-221728819D01*
X407152381Y-221728819D02*
X407342857Y-221728819D01*
X407342857Y-221728819D02*
X407438095Y-221681200D01*
X407438095Y-221681200D02*
X407485714Y-221633580D01*
X407485714Y-221633580D02*
X407533333Y-221538342D01*
X407533333Y-221538342D02*
X407533333Y-221300247D01*
X407533333Y-221300247D02*
X407485714Y-221205009D01*
X407485714Y-221205009D02*
X407438095Y-221157390D01*
X407438095Y-221157390D02*
X407342857Y-221109771D01*
X407342857Y-221109771D02*
X407152381Y-221109771D01*
X407152381Y-221109771D02*
X407057143Y-221157390D01*
X407057143Y-221157390D02*
X407009524Y-221205009D01*
X407009524Y-221205009D02*
X406961905Y-221300247D01*
X452010476Y-250481200D02*
X452153333Y-250528819D01*
X452153333Y-250528819D02*
X452391428Y-250528819D01*
X452391428Y-250528819D02*
X452486666Y-250481200D01*
X452486666Y-250481200D02*
X452534285Y-250433580D01*
X452534285Y-250433580D02*
X452581904Y-250338342D01*
X452581904Y-250338342D02*
X452581904Y-250243104D01*
X452581904Y-250243104D02*
X452534285Y-250147866D01*
X452534285Y-250147866D02*
X452486666Y-250100247D01*
X452486666Y-250100247D02*
X452391428Y-250052628D01*
X452391428Y-250052628D02*
X452200952Y-250005009D01*
X452200952Y-250005009D02*
X452105714Y-249957390D01*
X452105714Y-249957390D02*
X452058095Y-249909771D01*
X452058095Y-249909771D02*
X452010476Y-249814533D01*
X452010476Y-249814533D02*
X452010476Y-249719295D01*
X452010476Y-249719295D02*
X452058095Y-249624057D01*
X452058095Y-249624057D02*
X452105714Y-249576438D01*
X452105714Y-249576438D02*
X452200952Y-249528819D01*
X452200952Y-249528819D02*
X452439047Y-249528819D01*
X452439047Y-249528819D02*
X452581904Y-249576438D01*
X452915238Y-249528819D02*
X453153333Y-250528819D01*
X453153333Y-250528819D02*
X453343809Y-249814533D01*
X453343809Y-249814533D02*
X453534285Y-250528819D01*
X453534285Y-250528819D02*
X453772381Y-249528819D01*
X454105714Y-249624057D02*
X454153333Y-249576438D01*
X454153333Y-249576438D02*
X454248571Y-249528819D01*
X454248571Y-249528819D02*
X454486666Y-249528819D01*
X454486666Y-249528819D02*
X454581904Y-249576438D01*
X454581904Y-249576438D02*
X454629523Y-249624057D01*
X454629523Y-249624057D02*
X454677142Y-249719295D01*
X454677142Y-249719295D02*
X454677142Y-249814533D01*
X454677142Y-249814533D02*
X454629523Y-249957390D01*
X454629523Y-249957390D02*
X454058095Y-250528819D01*
X454058095Y-250528819D02*
X454677142Y-250528819D01*
X455296190Y-249528819D02*
X455391428Y-249528819D01*
X455391428Y-249528819D02*
X455486666Y-249576438D01*
X455486666Y-249576438D02*
X455534285Y-249624057D01*
X455534285Y-249624057D02*
X455581904Y-249719295D01*
X455581904Y-249719295D02*
X455629523Y-249909771D01*
X455629523Y-249909771D02*
X455629523Y-250147866D01*
X455629523Y-250147866D02*
X455581904Y-250338342D01*
X455581904Y-250338342D02*
X455534285Y-250433580D01*
X455534285Y-250433580D02*
X455486666Y-250481200D01*
X455486666Y-250481200D02*
X455391428Y-250528819D01*
X455391428Y-250528819D02*
X455296190Y-250528819D01*
X455296190Y-250528819D02*
X455200952Y-250481200D01*
X455200952Y-250481200D02*
X455153333Y-250433580D01*
X455153333Y-250433580D02*
X455105714Y-250338342D01*
X455105714Y-250338342D02*
X455058095Y-250147866D01*
X455058095Y-250147866D02*
X455058095Y-249909771D01*
X455058095Y-249909771D02*
X455105714Y-249719295D01*
X455105714Y-249719295D02*
X455153333Y-249624057D01*
X455153333Y-249624057D02*
X455200952Y-249576438D01*
X455200952Y-249576438D02*
X455296190Y-249528819D01*
X153015714Y-250994819D02*
X153015714Y-249994819D01*
X153015714Y-249994819D02*
X153253809Y-249994819D01*
X153253809Y-249994819D02*
X153396666Y-250042438D01*
X153396666Y-250042438D02*
X153491904Y-250137676D01*
X153491904Y-250137676D02*
X153539523Y-250232914D01*
X153539523Y-250232914D02*
X153587142Y-250423390D01*
X153587142Y-250423390D02*
X153587142Y-250566247D01*
X153587142Y-250566247D02*
X153539523Y-250756723D01*
X153539523Y-250756723D02*
X153491904Y-250851961D01*
X153491904Y-250851961D02*
X153396666Y-250947200D01*
X153396666Y-250947200D02*
X153253809Y-250994819D01*
X153253809Y-250994819D02*
X153015714Y-250994819D01*
X154539523Y-250994819D02*
X153968095Y-250994819D01*
X154253809Y-250994819D02*
X154253809Y-249994819D01*
X154253809Y-249994819D02*
X154158571Y-250137676D01*
X154158571Y-250137676D02*
X154063333Y-250232914D01*
X154063333Y-250232914D02*
X153968095Y-250280533D01*
X155396666Y-249994819D02*
X155206190Y-249994819D01*
X155206190Y-249994819D02*
X155110952Y-250042438D01*
X155110952Y-250042438D02*
X155063333Y-250090057D01*
X155063333Y-250090057D02*
X154968095Y-250232914D01*
X154968095Y-250232914D02*
X154920476Y-250423390D01*
X154920476Y-250423390D02*
X154920476Y-250804342D01*
X154920476Y-250804342D02*
X154968095Y-250899580D01*
X154968095Y-250899580D02*
X155015714Y-250947200D01*
X155015714Y-250947200D02*
X155110952Y-250994819D01*
X155110952Y-250994819D02*
X155301428Y-250994819D01*
X155301428Y-250994819D02*
X155396666Y-250947200D01*
X155396666Y-250947200D02*
X155444285Y-250899580D01*
X155444285Y-250899580D02*
X155491904Y-250804342D01*
X155491904Y-250804342D02*
X155491904Y-250566247D01*
X155491904Y-250566247D02*
X155444285Y-250471009D01*
X155444285Y-250471009D02*
X155396666Y-250423390D01*
X155396666Y-250423390D02*
X155301428Y-250375771D01*
X155301428Y-250375771D02*
X155110952Y-250375771D01*
X155110952Y-250375771D02*
X155015714Y-250423390D01*
X155015714Y-250423390D02*
X154968095Y-250471009D01*
X154968095Y-250471009D02*
X154920476Y-250566247D01*
X232940476Y-279281200D02*
X233083333Y-279328819D01*
X233083333Y-279328819D02*
X233321428Y-279328819D01*
X233321428Y-279328819D02*
X233416666Y-279281200D01*
X233416666Y-279281200D02*
X233464285Y-279233580D01*
X233464285Y-279233580D02*
X233511904Y-279138342D01*
X233511904Y-279138342D02*
X233511904Y-279043104D01*
X233511904Y-279043104D02*
X233464285Y-278947866D01*
X233464285Y-278947866D02*
X233416666Y-278900247D01*
X233416666Y-278900247D02*
X233321428Y-278852628D01*
X233321428Y-278852628D02*
X233130952Y-278805009D01*
X233130952Y-278805009D02*
X233035714Y-278757390D01*
X233035714Y-278757390D02*
X232988095Y-278709771D01*
X232988095Y-278709771D02*
X232940476Y-278614533D01*
X232940476Y-278614533D02*
X232940476Y-278519295D01*
X232940476Y-278519295D02*
X232988095Y-278424057D01*
X232988095Y-278424057D02*
X233035714Y-278376438D01*
X233035714Y-278376438D02*
X233130952Y-278328819D01*
X233130952Y-278328819D02*
X233369047Y-278328819D01*
X233369047Y-278328819D02*
X233511904Y-278376438D01*
X233845238Y-278328819D02*
X234083333Y-279328819D01*
X234083333Y-279328819D02*
X234273809Y-278614533D01*
X234273809Y-278614533D02*
X234464285Y-279328819D01*
X234464285Y-279328819D02*
X234702381Y-278328819D01*
X235035714Y-278424057D02*
X235083333Y-278376438D01*
X235083333Y-278376438D02*
X235178571Y-278328819D01*
X235178571Y-278328819D02*
X235416666Y-278328819D01*
X235416666Y-278328819D02*
X235511904Y-278376438D01*
X235511904Y-278376438D02*
X235559523Y-278424057D01*
X235559523Y-278424057D02*
X235607142Y-278519295D01*
X235607142Y-278519295D02*
X235607142Y-278614533D01*
X235607142Y-278614533D02*
X235559523Y-278757390D01*
X235559523Y-278757390D02*
X234988095Y-279328819D01*
X234988095Y-279328819D02*
X235607142Y-279328819D01*
X235940476Y-278328819D02*
X236607142Y-278328819D01*
X236607142Y-278328819D02*
X236178571Y-279328819D01*
X242460476Y-250481200D02*
X242603333Y-250528819D01*
X242603333Y-250528819D02*
X242841428Y-250528819D01*
X242841428Y-250528819D02*
X242936666Y-250481200D01*
X242936666Y-250481200D02*
X242984285Y-250433580D01*
X242984285Y-250433580D02*
X243031904Y-250338342D01*
X243031904Y-250338342D02*
X243031904Y-250243104D01*
X243031904Y-250243104D02*
X242984285Y-250147866D01*
X242984285Y-250147866D02*
X242936666Y-250100247D01*
X242936666Y-250100247D02*
X242841428Y-250052628D01*
X242841428Y-250052628D02*
X242650952Y-250005009D01*
X242650952Y-250005009D02*
X242555714Y-249957390D01*
X242555714Y-249957390D02*
X242508095Y-249909771D01*
X242508095Y-249909771D02*
X242460476Y-249814533D01*
X242460476Y-249814533D02*
X242460476Y-249719295D01*
X242460476Y-249719295D02*
X242508095Y-249624057D01*
X242508095Y-249624057D02*
X242555714Y-249576438D01*
X242555714Y-249576438D02*
X242650952Y-249528819D01*
X242650952Y-249528819D02*
X242889047Y-249528819D01*
X242889047Y-249528819D02*
X243031904Y-249576438D01*
X243365238Y-249528819D02*
X243603333Y-250528819D01*
X243603333Y-250528819D02*
X243793809Y-249814533D01*
X243793809Y-249814533D02*
X243984285Y-250528819D01*
X243984285Y-250528819D02*
X244222381Y-249528819D01*
X245127142Y-250528819D02*
X244555714Y-250528819D01*
X244841428Y-250528819D02*
X244841428Y-249528819D01*
X244841428Y-249528819D02*
X244746190Y-249671676D01*
X244746190Y-249671676D02*
X244650952Y-249766914D01*
X244650952Y-249766914D02*
X244555714Y-249814533D01*
X245508095Y-249624057D02*
X245555714Y-249576438D01*
X245555714Y-249576438D02*
X245650952Y-249528819D01*
X245650952Y-249528819D02*
X245889047Y-249528819D01*
X245889047Y-249528819D02*
X245984285Y-249576438D01*
X245984285Y-249576438D02*
X246031904Y-249624057D01*
X246031904Y-249624057D02*
X246079523Y-249719295D01*
X246079523Y-249719295D02*
X246079523Y-249814533D01*
X246079523Y-249814533D02*
X246031904Y-249957390D01*
X246031904Y-249957390D02*
X245460476Y-250528819D01*
X245460476Y-250528819D02*
X246079523Y-250528819D01*
X404390476Y-279281200D02*
X404533333Y-279328819D01*
X404533333Y-279328819D02*
X404771428Y-279328819D01*
X404771428Y-279328819D02*
X404866666Y-279281200D01*
X404866666Y-279281200D02*
X404914285Y-279233580D01*
X404914285Y-279233580D02*
X404961904Y-279138342D01*
X404961904Y-279138342D02*
X404961904Y-279043104D01*
X404961904Y-279043104D02*
X404914285Y-278947866D01*
X404914285Y-278947866D02*
X404866666Y-278900247D01*
X404866666Y-278900247D02*
X404771428Y-278852628D01*
X404771428Y-278852628D02*
X404580952Y-278805009D01*
X404580952Y-278805009D02*
X404485714Y-278757390D01*
X404485714Y-278757390D02*
X404438095Y-278709771D01*
X404438095Y-278709771D02*
X404390476Y-278614533D01*
X404390476Y-278614533D02*
X404390476Y-278519295D01*
X404390476Y-278519295D02*
X404438095Y-278424057D01*
X404438095Y-278424057D02*
X404485714Y-278376438D01*
X404485714Y-278376438D02*
X404580952Y-278328819D01*
X404580952Y-278328819D02*
X404819047Y-278328819D01*
X404819047Y-278328819D02*
X404961904Y-278376438D01*
X405295238Y-278328819D02*
X405533333Y-279328819D01*
X405533333Y-279328819D02*
X405723809Y-278614533D01*
X405723809Y-278614533D02*
X405914285Y-279328819D01*
X405914285Y-279328819D02*
X406152381Y-278328819D01*
X406438095Y-278328819D02*
X407057142Y-278328819D01*
X407057142Y-278328819D02*
X406723809Y-278709771D01*
X406723809Y-278709771D02*
X406866666Y-278709771D01*
X406866666Y-278709771D02*
X406961904Y-278757390D01*
X406961904Y-278757390D02*
X407009523Y-278805009D01*
X407009523Y-278805009D02*
X407057142Y-278900247D01*
X407057142Y-278900247D02*
X407057142Y-279138342D01*
X407057142Y-279138342D02*
X407009523Y-279233580D01*
X407009523Y-279233580D02*
X406961904Y-279281200D01*
X406961904Y-279281200D02*
X406866666Y-279328819D01*
X406866666Y-279328819D02*
X406580952Y-279328819D01*
X406580952Y-279328819D02*
X406485714Y-279281200D01*
X406485714Y-279281200D02*
X406438095Y-279233580D01*
X407914285Y-278328819D02*
X407723809Y-278328819D01*
X407723809Y-278328819D02*
X407628571Y-278376438D01*
X407628571Y-278376438D02*
X407580952Y-278424057D01*
X407580952Y-278424057D02*
X407485714Y-278566914D01*
X407485714Y-278566914D02*
X407438095Y-278757390D01*
X407438095Y-278757390D02*
X407438095Y-279138342D01*
X407438095Y-279138342D02*
X407485714Y-279233580D01*
X407485714Y-279233580D02*
X407533333Y-279281200D01*
X407533333Y-279281200D02*
X407628571Y-279328819D01*
X407628571Y-279328819D02*
X407819047Y-279328819D01*
X407819047Y-279328819D02*
X407914285Y-279281200D01*
X407914285Y-279281200D02*
X407961904Y-279233580D01*
X407961904Y-279233580D02*
X408009523Y-279138342D01*
X408009523Y-279138342D02*
X408009523Y-278900247D01*
X408009523Y-278900247D02*
X407961904Y-278805009D01*
X407961904Y-278805009D02*
X407914285Y-278757390D01*
X407914285Y-278757390D02*
X407819047Y-278709771D01*
X407819047Y-278709771D02*
X407628571Y-278709771D01*
X407628571Y-278709771D02*
X407533333Y-278757390D01*
X407533333Y-278757390D02*
X407485714Y-278805009D01*
X407485714Y-278805009D02*
X407438095Y-278900247D01*
X442490476Y-279281200D02*
X442633333Y-279328819D01*
X442633333Y-279328819D02*
X442871428Y-279328819D01*
X442871428Y-279328819D02*
X442966666Y-279281200D01*
X442966666Y-279281200D02*
X443014285Y-279233580D01*
X443014285Y-279233580D02*
X443061904Y-279138342D01*
X443061904Y-279138342D02*
X443061904Y-279043104D01*
X443061904Y-279043104D02*
X443014285Y-278947866D01*
X443014285Y-278947866D02*
X442966666Y-278900247D01*
X442966666Y-278900247D02*
X442871428Y-278852628D01*
X442871428Y-278852628D02*
X442680952Y-278805009D01*
X442680952Y-278805009D02*
X442585714Y-278757390D01*
X442585714Y-278757390D02*
X442538095Y-278709771D01*
X442538095Y-278709771D02*
X442490476Y-278614533D01*
X442490476Y-278614533D02*
X442490476Y-278519295D01*
X442490476Y-278519295D02*
X442538095Y-278424057D01*
X442538095Y-278424057D02*
X442585714Y-278376438D01*
X442585714Y-278376438D02*
X442680952Y-278328819D01*
X442680952Y-278328819D02*
X442919047Y-278328819D01*
X442919047Y-278328819D02*
X443061904Y-278376438D01*
X443395238Y-278328819D02*
X443633333Y-279328819D01*
X443633333Y-279328819D02*
X443823809Y-278614533D01*
X443823809Y-278614533D02*
X444014285Y-279328819D01*
X444014285Y-279328819D02*
X444252381Y-278328819D01*
X444538095Y-278328819D02*
X445157142Y-278328819D01*
X445157142Y-278328819D02*
X444823809Y-278709771D01*
X444823809Y-278709771D02*
X444966666Y-278709771D01*
X444966666Y-278709771D02*
X445061904Y-278757390D01*
X445061904Y-278757390D02*
X445109523Y-278805009D01*
X445109523Y-278805009D02*
X445157142Y-278900247D01*
X445157142Y-278900247D02*
X445157142Y-279138342D01*
X445157142Y-279138342D02*
X445109523Y-279233580D01*
X445109523Y-279233580D02*
X445061904Y-279281200D01*
X445061904Y-279281200D02*
X444966666Y-279328819D01*
X444966666Y-279328819D02*
X444680952Y-279328819D01*
X444680952Y-279328819D02*
X444585714Y-279281200D01*
X444585714Y-279281200D02*
X444538095Y-279233580D01*
X445728571Y-278757390D02*
X445633333Y-278709771D01*
X445633333Y-278709771D02*
X445585714Y-278662152D01*
X445585714Y-278662152D02*
X445538095Y-278566914D01*
X445538095Y-278566914D02*
X445538095Y-278519295D01*
X445538095Y-278519295D02*
X445585714Y-278424057D01*
X445585714Y-278424057D02*
X445633333Y-278376438D01*
X445633333Y-278376438D02*
X445728571Y-278328819D01*
X445728571Y-278328819D02*
X445919047Y-278328819D01*
X445919047Y-278328819D02*
X446014285Y-278376438D01*
X446014285Y-278376438D02*
X446061904Y-278424057D01*
X446061904Y-278424057D02*
X446109523Y-278519295D01*
X446109523Y-278519295D02*
X446109523Y-278566914D01*
X446109523Y-278566914D02*
X446061904Y-278662152D01*
X446061904Y-278662152D02*
X446014285Y-278709771D01*
X446014285Y-278709771D02*
X445919047Y-278757390D01*
X445919047Y-278757390D02*
X445728571Y-278757390D01*
X445728571Y-278757390D02*
X445633333Y-278805009D01*
X445633333Y-278805009D02*
X445585714Y-278852628D01*
X445585714Y-278852628D02*
X445538095Y-278947866D01*
X445538095Y-278947866D02*
X445538095Y-279138342D01*
X445538095Y-279138342D02*
X445585714Y-279233580D01*
X445585714Y-279233580D02*
X445633333Y-279281200D01*
X445633333Y-279281200D02*
X445728571Y-279328819D01*
X445728571Y-279328819D02*
X445919047Y-279328819D01*
X445919047Y-279328819D02*
X446014285Y-279281200D01*
X446014285Y-279281200D02*
X446061904Y-279233580D01*
X446061904Y-279233580D02*
X446109523Y-279138342D01*
X446109523Y-279138342D02*
X446109523Y-278947866D01*
X446109523Y-278947866D02*
X446061904Y-278852628D01*
X446061904Y-278852628D02*
X446014285Y-278805009D01*
X446014285Y-278805009D02*
X445919047Y-278757390D01*
X462016667Y-221681200D02*
X462159524Y-221728819D01*
X462159524Y-221728819D02*
X462397619Y-221728819D01*
X462397619Y-221728819D02*
X462492857Y-221681200D01*
X462492857Y-221681200D02*
X462540476Y-221633580D01*
X462540476Y-221633580D02*
X462588095Y-221538342D01*
X462588095Y-221538342D02*
X462588095Y-221443104D01*
X462588095Y-221443104D02*
X462540476Y-221347866D01*
X462540476Y-221347866D02*
X462492857Y-221300247D01*
X462492857Y-221300247D02*
X462397619Y-221252628D01*
X462397619Y-221252628D02*
X462207143Y-221205009D01*
X462207143Y-221205009D02*
X462111905Y-221157390D01*
X462111905Y-221157390D02*
X462064286Y-221109771D01*
X462064286Y-221109771D02*
X462016667Y-221014533D01*
X462016667Y-221014533D02*
X462016667Y-220919295D01*
X462016667Y-220919295D02*
X462064286Y-220824057D01*
X462064286Y-220824057D02*
X462111905Y-220776438D01*
X462111905Y-220776438D02*
X462207143Y-220728819D01*
X462207143Y-220728819D02*
X462445238Y-220728819D01*
X462445238Y-220728819D02*
X462588095Y-220776438D01*
X462921429Y-220728819D02*
X463159524Y-221728819D01*
X463159524Y-221728819D02*
X463350000Y-221014533D01*
X463350000Y-221014533D02*
X463540476Y-221728819D01*
X463540476Y-221728819D02*
X463778572Y-220728819D01*
X464207143Y-221728819D02*
X464397619Y-221728819D01*
X464397619Y-221728819D02*
X464492857Y-221681200D01*
X464492857Y-221681200D02*
X464540476Y-221633580D01*
X464540476Y-221633580D02*
X464635714Y-221490723D01*
X464635714Y-221490723D02*
X464683333Y-221300247D01*
X464683333Y-221300247D02*
X464683333Y-220919295D01*
X464683333Y-220919295D02*
X464635714Y-220824057D01*
X464635714Y-220824057D02*
X464588095Y-220776438D01*
X464588095Y-220776438D02*
X464492857Y-220728819D01*
X464492857Y-220728819D02*
X464302381Y-220728819D01*
X464302381Y-220728819D02*
X464207143Y-220776438D01*
X464207143Y-220776438D02*
X464159524Y-220824057D01*
X464159524Y-220824057D02*
X464111905Y-220919295D01*
X464111905Y-220919295D02*
X464111905Y-221157390D01*
X464111905Y-221157390D02*
X464159524Y-221252628D01*
X464159524Y-221252628D02*
X464207143Y-221300247D01*
X464207143Y-221300247D02*
X464302381Y-221347866D01*
X464302381Y-221347866D02*
X464492857Y-221347866D01*
X464492857Y-221347866D02*
X464588095Y-221300247D01*
X464588095Y-221300247D02*
X464635714Y-221252628D01*
X464635714Y-221252628D02*
X464683333Y-221157390D01*
X251990476Y-279281200D02*
X252133333Y-279328819D01*
X252133333Y-279328819D02*
X252371428Y-279328819D01*
X252371428Y-279328819D02*
X252466666Y-279281200D01*
X252466666Y-279281200D02*
X252514285Y-279233580D01*
X252514285Y-279233580D02*
X252561904Y-279138342D01*
X252561904Y-279138342D02*
X252561904Y-279043104D01*
X252561904Y-279043104D02*
X252514285Y-278947866D01*
X252514285Y-278947866D02*
X252466666Y-278900247D01*
X252466666Y-278900247D02*
X252371428Y-278852628D01*
X252371428Y-278852628D02*
X252180952Y-278805009D01*
X252180952Y-278805009D02*
X252085714Y-278757390D01*
X252085714Y-278757390D02*
X252038095Y-278709771D01*
X252038095Y-278709771D02*
X251990476Y-278614533D01*
X251990476Y-278614533D02*
X251990476Y-278519295D01*
X251990476Y-278519295D02*
X252038095Y-278424057D01*
X252038095Y-278424057D02*
X252085714Y-278376438D01*
X252085714Y-278376438D02*
X252180952Y-278328819D01*
X252180952Y-278328819D02*
X252419047Y-278328819D01*
X252419047Y-278328819D02*
X252561904Y-278376438D01*
X252895238Y-278328819D02*
X253133333Y-279328819D01*
X253133333Y-279328819D02*
X253323809Y-278614533D01*
X253323809Y-278614533D02*
X253514285Y-279328819D01*
X253514285Y-279328819D02*
X253752381Y-278328819D01*
X254085714Y-278424057D02*
X254133333Y-278376438D01*
X254133333Y-278376438D02*
X254228571Y-278328819D01*
X254228571Y-278328819D02*
X254466666Y-278328819D01*
X254466666Y-278328819D02*
X254561904Y-278376438D01*
X254561904Y-278376438D02*
X254609523Y-278424057D01*
X254609523Y-278424057D02*
X254657142Y-278519295D01*
X254657142Y-278519295D02*
X254657142Y-278614533D01*
X254657142Y-278614533D02*
X254609523Y-278757390D01*
X254609523Y-278757390D02*
X254038095Y-279328819D01*
X254038095Y-279328819D02*
X254657142Y-279328819D01*
X255228571Y-278757390D02*
X255133333Y-278709771D01*
X255133333Y-278709771D02*
X255085714Y-278662152D01*
X255085714Y-278662152D02*
X255038095Y-278566914D01*
X255038095Y-278566914D02*
X255038095Y-278519295D01*
X255038095Y-278519295D02*
X255085714Y-278424057D01*
X255085714Y-278424057D02*
X255133333Y-278376438D01*
X255133333Y-278376438D02*
X255228571Y-278328819D01*
X255228571Y-278328819D02*
X255419047Y-278328819D01*
X255419047Y-278328819D02*
X255514285Y-278376438D01*
X255514285Y-278376438D02*
X255561904Y-278424057D01*
X255561904Y-278424057D02*
X255609523Y-278519295D01*
X255609523Y-278519295D02*
X255609523Y-278566914D01*
X255609523Y-278566914D02*
X255561904Y-278662152D01*
X255561904Y-278662152D02*
X255514285Y-278709771D01*
X255514285Y-278709771D02*
X255419047Y-278757390D01*
X255419047Y-278757390D02*
X255228571Y-278757390D01*
X255228571Y-278757390D02*
X255133333Y-278805009D01*
X255133333Y-278805009D02*
X255085714Y-278852628D01*
X255085714Y-278852628D02*
X255038095Y-278947866D01*
X255038095Y-278947866D02*
X255038095Y-279138342D01*
X255038095Y-279138342D02*
X255085714Y-279233580D01*
X255085714Y-279233580D02*
X255133333Y-279281200D01*
X255133333Y-279281200D02*
X255228571Y-279328819D01*
X255228571Y-279328819D02*
X255419047Y-279328819D01*
X255419047Y-279328819D02*
X255514285Y-279281200D01*
X255514285Y-279281200D02*
X255561904Y-279233580D01*
X255561904Y-279233580D02*
X255609523Y-279138342D01*
X255609523Y-279138342D02*
X255609523Y-278947866D01*
X255609523Y-278947866D02*
X255561904Y-278852628D01*
X255561904Y-278852628D02*
X255514285Y-278805009D01*
X255514285Y-278805009D02*
X255419047Y-278757390D01*
X156740476Y-286281200D02*
X156883333Y-286328819D01*
X156883333Y-286328819D02*
X157121428Y-286328819D01*
X157121428Y-286328819D02*
X157216666Y-286281200D01*
X157216666Y-286281200D02*
X157264285Y-286233580D01*
X157264285Y-286233580D02*
X157311904Y-286138342D01*
X157311904Y-286138342D02*
X157311904Y-286043104D01*
X157311904Y-286043104D02*
X157264285Y-285947866D01*
X157264285Y-285947866D02*
X157216666Y-285900247D01*
X157216666Y-285900247D02*
X157121428Y-285852628D01*
X157121428Y-285852628D02*
X156930952Y-285805009D01*
X156930952Y-285805009D02*
X156835714Y-285757390D01*
X156835714Y-285757390D02*
X156788095Y-285709771D01*
X156788095Y-285709771D02*
X156740476Y-285614533D01*
X156740476Y-285614533D02*
X156740476Y-285519295D01*
X156740476Y-285519295D02*
X156788095Y-285424057D01*
X156788095Y-285424057D02*
X156835714Y-285376438D01*
X156835714Y-285376438D02*
X156930952Y-285328819D01*
X156930952Y-285328819D02*
X157169047Y-285328819D01*
X157169047Y-285328819D02*
X157311904Y-285376438D01*
X157645238Y-285328819D02*
X157883333Y-286328819D01*
X157883333Y-286328819D02*
X158073809Y-285614533D01*
X158073809Y-285614533D02*
X158264285Y-286328819D01*
X158264285Y-286328819D02*
X158502381Y-285328819D01*
X158835714Y-285424057D02*
X158883333Y-285376438D01*
X158883333Y-285376438D02*
X158978571Y-285328819D01*
X158978571Y-285328819D02*
X159216666Y-285328819D01*
X159216666Y-285328819D02*
X159311904Y-285376438D01*
X159311904Y-285376438D02*
X159359523Y-285424057D01*
X159359523Y-285424057D02*
X159407142Y-285519295D01*
X159407142Y-285519295D02*
X159407142Y-285614533D01*
X159407142Y-285614533D02*
X159359523Y-285757390D01*
X159359523Y-285757390D02*
X158788095Y-286328819D01*
X158788095Y-286328819D02*
X159407142Y-286328819D01*
X159740476Y-285328819D02*
X160359523Y-285328819D01*
X160359523Y-285328819D02*
X160026190Y-285709771D01*
X160026190Y-285709771D02*
X160169047Y-285709771D01*
X160169047Y-285709771D02*
X160264285Y-285757390D01*
X160264285Y-285757390D02*
X160311904Y-285805009D01*
X160311904Y-285805009D02*
X160359523Y-285900247D01*
X160359523Y-285900247D02*
X160359523Y-286138342D01*
X160359523Y-286138342D02*
X160311904Y-286233580D01*
X160311904Y-286233580D02*
X160264285Y-286281200D01*
X160264285Y-286281200D02*
X160169047Y-286328819D01*
X160169047Y-286328819D02*
X159883333Y-286328819D01*
X159883333Y-286328819D02*
X159788095Y-286281200D01*
X159788095Y-286281200D02*
X159740476Y-286233580D01*
X204360476Y-250481200D02*
X204503333Y-250528819D01*
X204503333Y-250528819D02*
X204741428Y-250528819D01*
X204741428Y-250528819D02*
X204836666Y-250481200D01*
X204836666Y-250481200D02*
X204884285Y-250433580D01*
X204884285Y-250433580D02*
X204931904Y-250338342D01*
X204931904Y-250338342D02*
X204931904Y-250243104D01*
X204931904Y-250243104D02*
X204884285Y-250147866D01*
X204884285Y-250147866D02*
X204836666Y-250100247D01*
X204836666Y-250100247D02*
X204741428Y-250052628D01*
X204741428Y-250052628D02*
X204550952Y-250005009D01*
X204550952Y-250005009D02*
X204455714Y-249957390D01*
X204455714Y-249957390D02*
X204408095Y-249909771D01*
X204408095Y-249909771D02*
X204360476Y-249814533D01*
X204360476Y-249814533D02*
X204360476Y-249719295D01*
X204360476Y-249719295D02*
X204408095Y-249624057D01*
X204408095Y-249624057D02*
X204455714Y-249576438D01*
X204455714Y-249576438D02*
X204550952Y-249528819D01*
X204550952Y-249528819D02*
X204789047Y-249528819D01*
X204789047Y-249528819D02*
X204931904Y-249576438D01*
X205265238Y-249528819D02*
X205503333Y-250528819D01*
X205503333Y-250528819D02*
X205693809Y-249814533D01*
X205693809Y-249814533D02*
X205884285Y-250528819D01*
X205884285Y-250528819D02*
X206122381Y-249528819D01*
X207027142Y-250528819D02*
X206455714Y-250528819D01*
X206741428Y-250528819D02*
X206741428Y-249528819D01*
X206741428Y-249528819D02*
X206646190Y-249671676D01*
X206646190Y-249671676D02*
X206550952Y-249766914D01*
X206550952Y-249766914D02*
X206455714Y-249814533D01*
X207979523Y-250528819D02*
X207408095Y-250528819D01*
X207693809Y-250528819D02*
X207693809Y-249528819D01*
X207693809Y-249528819D02*
X207598571Y-249671676D01*
X207598571Y-249671676D02*
X207503333Y-249766914D01*
X207503333Y-249766914D02*
X207408095Y-249814533D01*
X185310476Y-250481200D02*
X185453333Y-250528819D01*
X185453333Y-250528819D02*
X185691428Y-250528819D01*
X185691428Y-250528819D02*
X185786666Y-250481200D01*
X185786666Y-250481200D02*
X185834285Y-250433580D01*
X185834285Y-250433580D02*
X185881904Y-250338342D01*
X185881904Y-250338342D02*
X185881904Y-250243104D01*
X185881904Y-250243104D02*
X185834285Y-250147866D01*
X185834285Y-250147866D02*
X185786666Y-250100247D01*
X185786666Y-250100247D02*
X185691428Y-250052628D01*
X185691428Y-250052628D02*
X185500952Y-250005009D01*
X185500952Y-250005009D02*
X185405714Y-249957390D01*
X185405714Y-249957390D02*
X185358095Y-249909771D01*
X185358095Y-249909771D02*
X185310476Y-249814533D01*
X185310476Y-249814533D02*
X185310476Y-249719295D01*
X185310476Y-249719295D02*
X185358095Y-249624057D01*
X185358095Y-249624057D02*
X185405714Y-249576438D01*
X185405714Y-249576438D02*
X185500952Y-249528819D01*
X185500952Y-249528819D02*
X185739047Y-249528819D01*
X185739047Y-249528819D02*
X185881904Y-249576438D01*
X186215238Y-249528819D02*
X186453333Y-250528819D01*
X186453333Y-250528819D02*
X186643809Y-249814533D01*
X186643809Y-249814533D02*
X186834285Y-250528819D01*
X186834285Y-250528819D02*
X187072381Y-249528819D01*
X187977142Y-250528819D02*
X187405714Y-250528819D01*
X187691428Y-250528819D02*
X187691428Y-249528819D01*
X187691428Y-249528819D02*
X187596190Y-249671676D01*
X187596190Y-249671676D02*
X187500952Y-249766914D01*
X187500952Y-249766914D02*
X187405714Y-249814533D01*
X188596190Y-249528819D02*
X188691428Y-249528819D01*
X188691428Y-249528819D02*
X188786666Y-249576438D01*
X188786666Y-249576438D02*
X188834285Y-249624057D01*
X188834285Y-249624057D02*
X188881904Y-249719295D01*
X188881904Y-249719295D02*
X188929523Y-249909771D01*
X188929523Y-249909771D02*
X188929523Y-250147866D01*
X188929523Y-250147866D02*
X188881904Y-250338342D01*
X188881904Y-250338342D02*
X188834285Y-250433580D01*
X188834285Y-250433580D02*
X188786666Y-250481200D01*
X188786666Y-250481200D02*
X188691428Y-250528819D01*
X188691428Y-250528819D02*
X188596190Y-250528819D01*
X188596190Y-250528819D02*
X188500952Y-250481200D01*
X188500952Y-250481200D02*
X188453333Y-250433580D01*
X188453333Y-250433580D02*
X188405714Y-250338342D01*
X188405714Y-250338342D02*
X188358095Y-250147866D01*
X188358095Y-250147866D02*
X188358095Y-249909771D01*
X188358095Y-249909771D02*
X188405714Y-249719295D01*
X188405714Y-249719295D02*
X188453333Y-249624057D01*
X188453333Y-249624057D02*
X188500952Y-249576438D01*
X188500952Y-249576438D02*
X188596190Y-249528819D01*
X347716667Y-221681200D02*
X347859524Y-221728819D01*
X347859524Y-221728819D02*
X348097619Y-221728819D01*
X348097619Y-221728819D02*
X348192857Y-221681200D01*
X348192857Y-221681200D02*
X348240476Y-221633580D01*
X348240476Y-221633580D02*
X348288095Y-221538342D01*
X348288095Y-221538342D02*
X348288095Y-221443104D01*
X348288095Y-221443104D02*
X348240476Y-221347866D01*
X348240476Y-221347866D02*
X348192857Y-221300247D01*
X348192857Y-221300247D02*
X348097619Y-221252628D01*
X348097619Y-221252628D02*
X347907143Y-221205009D01*
X347907143Y-221205009D02*
X347811905Y-221157390D01*
X347811905Y-221157390D02*
X347764286Y-221109771D01*
X347764286Y-221109771D02*
X347716667Y-221014533D01*
X347716667Y-221014533D02*
X347716667Y-220919295D01*
X347716667Y-220919295D02*
X347764286Y-220824057D01*
X347764286Y-220824057D02*
X347811905Y-220776438D01*
X347811905Y-220776438D02*
X347907143Y-220728819D01*
X347907143Y-220728819D02*
X348145238Y-220728819D01*
X348145238Y-220728819D02*
X348288095Y-220776438D01*
X348621429Y-220728819D02*
X348859524Y-221728819D01*
X348859524Y-221728819D02*
X349050000Y-221014533D01*
X349050000Y-221014533D02*
X349240476Y-221728819D01*
X349240476Y-221728819D02*
X349478572Y-220728819D01*
X350288095Y-221062152D02*
X350288095Y-221728819D01*
X350050000Y-220681200D02*
X349811905Y-221395485D01*
X349811905Y-221395485D02*
X350430952Y-221395485D01*
X366290476Y-279281200D02*
X366433333Y-279328819D01*
X366433333Y-279328819D02*
X366671428Y-279328819D01*
X366671428Y-279328819D02*
X366766666Y-279281200D01*
X366766666Y-279281200D02*
X366814285Y-279233580D01*
X366814285Y-279233580D02*
X366861904Y-279138342D01*
X366861904Y-279138342D02*
X366861904Y-279043104D01*
X366861904Y-279043104D02*
X366814285Y-278947866D01*
X366814285Y-278947866D02*
X366766666Y-278900247D01*
X366766666Y-278900247D02*
X366671428Y-278852628D01*
X366671428Y-278852628D02*
X366480952Y-278805009D01*
X366480952Y-278805009D02*
X366385714Y-278757390D01*
X366385714Y-278757390D02*
X366338095Y-278709771D01*
X366338095Y-278709771D02*
X366290476Y-278614533D01*
X366290476Y-278614533D02*
X366290476Y-278519295D01*
X366290476Y-278519295D02*
X366338095Y-278424057D01*
X366338095Y-278424057D02*
X366385714Y-278376438D01*
X366385714Y-278376438D02*
X366480952Y-278328819D01*
X366480952Y-278328819D02*
X366719047Y-278328819D01*
X366719047Y-278328819D02*
X366861904Y-278376438D01*
X367195238Y-278328819D02*
X367433333Y-279328819D01*
X367433333Y-279328819D02*
X367623809Y-278614533D01*
X367623809Y-278614533D02*
X367814285Y-279328819D01*
X367814285Y-279328819D02*
X368052381Y-278328819D01*
X368338095Y-278328819D02*
X368957142Y-278328819D01*
X368957142Y-278328819D02*
X368623809Y-278709771D01*
X368623809Y-278709771D02*
X368766666Y-278709771D01*
X368766666Y-278709771D02*
X368861904Y-278757390D01*
X368861904Y-278757390D02*
X368909523Y-278805009D01*
X368909523Y-278805009D02*
X368957142Y-278900247D01*
X368957142Y-278900247D02*
X368957142Y-279138342D01*
X368957142Y-279138342D02*
X368909523Y-279233580D01*
X368909523Y-279233580D02*
X368861904Y-279281200D01*
X368861904Y-279281200D02*
X368766666Y-279328819D01*
X368766666Y-279328819D02*
X368480952Y-279328819D01*
X368480952Y-279328819D02*
X368385714Y-279281200D01*
X368385714Y-279281200D02*
X368338095Y-279233580D01*
X369290476Y-278328819D02*
X369909523Y-278328819D01*
X369909523Y-278328819D02*
X369576190Y-278709771D01*
X369576190Y-278709771D02*
X369719047Y-278709771D01*
X369719047Y-278709771D02*
X369814285Y-278757390D01*
X369814285Y-278757390D02*
X369861904Y-278805009D01*
X369861904Y-278805009D02*
X369909523Y-278900247D01*
X369909523Y-278900247D02*
X369909523Y-279138342D01*
X369909523Y-279138342D02*
X369861904Y-279233580D01*
X369861904Y-279233580D02*
X369814285Y-279281200D01*
X369814285Y-279281200D02*
X369719047Y-279328819D01*
X369719047Y-279328819D02*
X369433333Y-279328819D01*
X369433333Y-279328819D02*
X369338095Y-279281200D01*
X369338095Y-279281200D02*
X369290476Y-279233580D01*
X480590476Y-279281200D02*
X480733333Y-279328819D01*
X480733333Y-279328819D02*
X480971428Y-279328819D01*
X480971428Y-279328819D02*
X481066666Y-279281200D01*
X481066666Y-279281200D02*
X481114285Y-279233580D01*
X481114285Y-279233580D02*
X481161904Y-279138342D01*
X481161904Y-279138342D02*
X481161904Y-279043104D01*
X481161904Y-279043104D02*
X481114285Y-278947866D01*
X481114285Y-278947866D02*
X481066666Y-278900247D01*
X481066666Y-278900247D02*
X480971428Y-278852628D01*
X480971428Y-278852628D02*
X480780952Y-278805009D01*
X480780952Y-278805009D02*
X480685714Y-278757390D01*
X480685714Y-278757390D02*
X480638095Y-278709771D01*
X480638095Y-278709771D02*
X480590476Y-278614533D01*
X480590476Y-278614533D02*
X480590476Y-278519295D01*
X480590476Y-278519295D02*
X480638095Y-278424057D01*
X480638095Y-278424057D02*
X480685714Y-278376438D01*
X480685714Y-278376438D02*
X480780952Y-278328819D01*
X480780952Y-278328819D02*
X481019047Y-278328819D01*
X481019047Y-278328819D02*
X481161904Y-278376438D01*
X481495238Y-278328819D02*
X481733333Y-279328819D01*
X481733333Y-279328819D02*
X481923809Y-278614533D01*
X481923809Y-278614533D02*
X482114285Y-279328819D01*
X482114285Y-279328819D02*
X482352381Y-278328819D01*
X483161904Y-278662152D02*
X483161904Y-279328819D01*
X482923809Y-278281200D02*
X482685714Y-278995485D01*
X482685714Y-278995485D02*
X483304761Y-278995485D01*
X483876190Y-278328819D02*
X483971428Y-278328819D01*
X483971428Y-278328819D02*
X484066666Y-278376438D01*
X484066666Y-278376438D02*
X484114285Y-278424057D01*
X484114285Y-278424057D02*
X484161904Y-278519295D01*
X484161904Y-278519295D02*
X484209523Y-278709771D01*
X484209523Y-278709771D02*
X484209523Y-278947866D01*
X484209523Y-278947866D02*
X484161904Y-279138342D01*
X484161904Y-279138342D02*
X484114285Y-279233580D01*
X484114285Y-279233580D02*
X484066666Y-279281200D01*
X484066666Y-279281200D02*
X483971428Y-279328819D01*
X483971428Y-279328819D02*
X483876190Y-279328819D01*
X483876190Y-279328819D02*
X483780952Y-279281200D01*
X483780952Y-279281200D02*
X483733333Y-279233580D01*
X483733333Y-279233580D02*
X483685714Y-279138342D01*
X483685714Y-279138342D02*
X483638095Y-278947866D01*
X483638095Y-278947866D02*
X483638095Y-278709771D01*
X483638095Y-278709771D02*
X483685714Y-278519295D01*
X483685714Y-278519295D02*
X483733333Y-278424057D01*
X483733333Y-278424057D02*
X483780952Y-278376438D01*
X483780952Y-278376438D02*
X483876190Y-278328819D01*
X423916667Y-221681200D02*
X424059524Y-221728819D01*
X424059524Y-221728819D02*
X424297619Y-221728819D01*
X424297619Y-221728819D02*
X424392857Y-221681200D01*
X424392857Y-221681200D02*
X424440476Y-221633580D01*
X424440476Y-221633580D02*
X424488095Y-221538342D01*
X424488095Y-221538342D02*
X424488095Y-221443104D01*
X424488095Y-221443104D02*
X424440476Y-221347866D01*
X424440476Y-221347866D02*
X424392857Y-221300247D01*
X424392857Y-221300247D02*
X424297619Y-221252628D01*
X424297619Y-221252628D02*
X424107143Y-221205009D01*
X424107143Y-221205009D02*
X424011905Y-221157390D01*
X424011905Y-221157390D02*
X423964286Y-221109771D01*
X423964286Y-221109771D02*
X423916667Y-221014533D01*
X423916667Y-221014533D02*
X423916667Y-220919295D01*
X423916667Y-220919295D02*
X423964286Y-220824057D01*
X423964286Y-220824057D02*
X424011905Y-220776438D01*
X424011905Y-220776438D02*
X424107143Y-220728819D01*
X424107143Y-220728819D02*
X424345238Y-220728819D01*
X424345238Y-220728819D02*
X424488095Y-220776438D01*
X424821429Y-220728819D02*
X425059524Y-221728819D01*
X425059524Y-221728819D02*
X425250000Y-221014533D01*
X425250000Y-221014533D02*
X425440476Y-221728819D01*
X425440476Y-221728819D02*
X425678572Y-220728819D01*
X425964286Y-220728819D02*
X426630952Y-220728819D01*
X426630952Y-220728819D02*
X426202381Y-221728819D01*
X137690476Y-286281200D02*
X137833333Y-286328819D01*
X137833333Y-286328819D02*
X138071428Y-286328819D01*
X138071428Y-286328819D02*
X138166666Y-286281200D01*
X138166666Y-286281200D02*
X138214285Y-286233580D01*
X138214285Y-286233580D02*
X138261904Y-286138342D01*
X138261904Y-286138342D02*
X138261904Y-286043104D01*
X138261904Y-286043104D02*
X138214285Y-285947866D01*
X138214285Y-285947866D02*
X138166666Y-285900247D01*
X138166666Y-285900247D02*
X138071428Y-285852628D01*
X138071428Y-285852628D02*
X137880952Y-285805009D01*
X137880952Y-285805009D02*
X137785714Y-285757390D01*
X137785714Y-285757390D02*
X137738095Y-285709771D01*
X137738095Y-285709771D02*
X137690476Y-285614533D01*
X137690476Y-285614533D02*
X137690476Y-285519295D01*
X137690476Y-285519295D02*
X137738095Y-285424057D01*
X137738095Y-285424057D02*
X137785714Y-285376438D01*
X137785714Y-285376438D02*
X137880952Y-285328819D01*
X137880952Y-285328819D02*
X138119047Y-285328819D01*
X138119047Y-285328819D02*
X138261904Y-285376438D01*
X138595238Y-285328819D02*
X138833333Y-286328819D01*
X138833333Y-286328819D02*
X139023809Y-285614533D01*
X139023809Y-285614533D02*
X139214285Y-286328819D01*
X139214285Y-286328819D02*
X139452381Y-285328819D01*
X139785714Y-285424057D02*
X139833333Y-285376438D01*
X139833333Y-285376438D02*
X139928571Y-285328819D01*
X139928571Y-285328819D02*
X140166666Y-285328819D01*
X140166666Y-285328819D02*
X140261904Y-285376438D01*
X140261904Y-285376438D02*
X140309523Y-285424057D01*
X140309523Y-285424057D02*
X140357142Y-285519295D01*
X140357142Y-285519295D02*
X140357142Y-285614533D01*
X140357142Y-285614533D02*
X140309523Y-285757390D01*
X140309523Y-285757390D02*
X139738095Y-286328819D01*
X139738095Y-286328819D02*
X140357142Y-286328819D01*
X140738095Y-285424057D02*
X140785714Y-285376438D01*
X140785714Y-285376438D02*
X140880952Y-285328819D01*
X140880952Y-285328819D02*
X141119047Y-285328819D01*
X141119047Y-285328819D02*
X141214285Y-285376438D01*
X141214285Y-285376438D02*
X141261904Y-285424057D01*
X141261904Y-285424057D02*
X141309523Y-285519295D01*
X141309523Y-285519295D02*
X141309523Y-285614533D01*
X141309523Y-285614533D02*
X141261904Y-285757390D01*
X141261904Y-285757390D02*
X140690476Y-286328819D01*
X140690476Y-286328819D02*
X141309523Y-286328819D01*
X366766667Y-221681200D02*
X366909524Y-221728819D01*
X366909524Y-221728819D02*
X367147619Y-221728819D01*
X367147619Y-221728819D02*
X367242857Y-221681200D01*
X367242857Y-221681200D02*
X367290476Y-221633580D01*
X367290476Y-221633580D02*
X367338095Y-221538342D01*
X367338095Y-221538342D02*
X367338095Y-221443104D01*
X367338095Y-221443104D02*
X367290476Y-221347866D01*
X367290476Y-221347866D02*
X367242857Y-221300247D01*
X367242857Y-221300247D02*
X367147619Y-221252628D01*
X367147619Y-221252628D02*
X366957143Y-221205009D01*
X366957143Y-221205009D02*
X366861905Y-221157390D01*
X366861905Y-221157390D02*
X366814286Y-221109771D01*
X366814286Y-221109771D02*
X366766667Y-221014533D01*
X366766667Y-221014533D02*
X366766667Y-220919295D01*
X366766667Y-220919295D02*
X366814286Y-220824057D01*
X366814286Y-220824057D02*
X366861905Y-220776438D01*
X366861905Y-220776438D02*
X366957143Y-220728819D01*
X366957143Y-220728819D02*
X367195238Y-220728819D01*
X367195238Y-220728819D02*
X367338095Y-220776438D01*
X367671429Y-220728819D02*
X367909524Y-221728819D01*
X367909524Y-221728819D02*
X368100000Y-221014533D01*
X368100000Y-221014533D02*
X368290476Y-221728819D01*
X368290476Y-221728819D02*
X368528572Y-220728819D01*
X368814286Y-220728819D02*
X369433333Y-220728819D01*
X369433333Y-220728819D02*
X369100000Y-221109771D01*
X369100000Y-221109771D02*
X369242857Y-221109771D01*
X369242857Y-221109771D02*
X369338095Y-221157390D01*
X369338095Y-221157390D02*
X369385714Y-221205009D01*
X369385714Y-221205009D02*
X369433333Y-221300247D01*
X369433333Y-221300247D02*
X369433333Y-221538342D01*
X369433333Y-221538342D02*
X369385714Y-221633580D01*
X369385714Y-221633580D02*
X369338095Y-221681200D01*
X369338095Y-221681200D02*
X369242857Y-221728819D01*
X369242857Y-221728819D02*
X368957143Y-221728819D01*
X368957143Y-221728819D02*
X368861905Y-221681200D01*
X368861905Y-221681200D02*
X368814286Y-221633580D01*
X423440476Y-279281200D02*
X423583333Y-279328819D01*
X423583333Y-279328819D02*
X423821428Y-279328819D01*
X423821428Y-279328819D02*
X423916666Y-279281200D01*
X423916666Y-279281200D02*
X423964285Y-279233580D01*
X423964285Y-279233580D02*
X424011904Y-279138342D01*
X424011904Y-279138342D02*
X424011904Y-279043104D01*
X424011904Y-279043104D02*
X423964285Y-278947866D01*
X423964285Y-278947866D02*
X423916666Y-278900247D01*
X423916666Y-278900247D02*
X423821428Y-278852628D01*
X423821428Y-278852628D02*
X423630952Y-278805009D01*
X423630952Y-278805009D02*
X423535714Y-278757390D01*
X423535714Y-278757390D02*
X423488095Y-278709771D01*
X423488095Y-278709771D02*
X423440476Y-278614533D01*
X423440476Y-278614533D02*
X423440476Y-278519295D01*
X423440476Y-278519295D02*
X423488095Y-278424057D01*
X423488095Y-278424057D02*
X423535714Y-278376438D01*
X423535714Y-278376438D02*
X423630952Y-278328819D01*
X423630952Y-278328819D02*
X423869047Y-278328819D01*
X423869047Y-278328819D02*
X424011904Y-278376438D01*
X424345238Y-278328819D02*
X424583333Y-279328819D01*
X424583333Y-279328819D02*
X424773809Y-278614533D01*
X424773809Y-278614533D02*
X424964285Y-279328819D01*
X424964285Y-279328819D02*
X425202381Y-278328819D01*
X425488095Y-278328819D02*
X426107142Y-278328819D01*
X426107142Y-278328819D02*
X425773809Y-278709771D01*
X425773809Y-278709771D02*
X425916666Y-278709771D01*
X425916666Y-278709771D02*
X426011904Y-278757390D01*
X426011904Y-278757390D02*
X426059523Y-278805009D01*
X426059523Y-278805009D02*
X426107142Y-278900247D01*
X426107142Y-278900247D02*
X426107142Y-279138342D01*
X426107142Y-279138342D02*
X426059523Y-279233580D01*
X426059523Y-279233580D02*
X426011904Y-279281200D01*
X426011904Y-279281200D02*
X425916666Y-279328819D01*
X425916666Y-279328819D02*
X425630952Y-279328819D01*
X425630952Y-279328819D02*
X425535714Y-279281200D01*
X425535714Y-279281200D02*
X425488095Y-279233580D01*
X426440476Y-278328819D02*
X427107142Y-278328819D01*
X427107142Y-278328819D02*
X426678571Y-279328819D01*
X271040476Y-279281200D02*
X271183333Y-279328819D01*
X271183333Y-279328819D02*
X271421428Y-279328819D01*
X271421428Y-279328819D02*
X271516666Y-279281200D01*
X271516666Y-279281200D02*
X271564285Y-279233580D01*
X271564285Y-279233580D02*
X271611904Y-279138342D01*
X271611904Y-279138342D02*
X271611904Y-279043104D01*
X271611904Y-279043104D02*
X271564285Y-278947866D01*
X271564285Y-278947866D02*
X271516666Y-278900247D01*
X271516666Y-278900247D02*
X271421428Y-278852628D01*
X271421428Y-278852628D02*
X271230952Y-278805009D01*
X271230952Y-278805009D02*
X271135714Y-278757390D01*
X271135714Y-278757390D02*
X271088095Y-278709771D01*
X271088095Y-278709771D02*
X271040476Y-278614533D01*
X271040476Y-278614533D02*
X271040476Y-278519295D01*
X271040476Y-278519295D02*
X271088095Y-278424057D01*
X271088095Y-278424057D02*
X271135714Y-278376438D01*
X271135714Y-278376438D02*
X271230952Y-278328819D01*
X271230952Y-278328819D02*
X271469047Y-278328819D01*
X271469047Y-278328819D02*
X271611904Y-278376438D01*
X271945238Y-278328819D02*
X272183333Y-279328819D01*
X272183333Y-279328819D02*
X272373809Y-278614533D01*
X272373809Y-278614533D02*
X272564285Y-279328819D01*
X272564285Y-279328819D02*
X272802381Y-278328819D01*
X273088095Y-278328819D02*
X273707142Y-278328819D01*
X273707142Y-278328819D02*
X273373809Y-278709771D01*
X273373809Y-278709771D02*
X273516666Y-278709771D01*
X273516666Y-278709771D02*
X273611904Y-278757390D01*
X273611904Y-278757390D02*
X273659523Y-278805009D01*
X273659523Y-278805009D02*
X273707142Y-278900247D01*
X273707142Y-278900247D02*
X273707142Y-279138342D01*
X273707142Y-279138342D02*
X273659523Y-279233580D01*
X273659523Y-279233580D02*
X273611904Y-279281200D01*
X273611904Y-279281200D02*
X273516666Y-279328819D01*
X273516666Y-279328819D02*
X273230952Y-279328819D01*
X273230952Y-279328819D02*
X273135714Y-279281200D01*
X273135714Y-279281200D02*
X273088095Y-279233580D01*
X274326190Y-278328819D02*
X274421428Y-278328819D01*
X274421428Y-278328819D02*
X274516666Y-278376438D01*
X274516666Y-278376438D02*
X274564285Y-278424057D01*
X274564285Y-278424057D02*
X274611904Y-278519295D01*
X274611904Y-278519295D02*
X274659523Y-278709771D01*
X274659523Y-278709771D02*
X274659523Y-278947866D01*
X274659523Y-278947866D02*
X274611904Y-279138342D01*
X274611904Y-279138342D02*
X274564285Y-279233580D01*
X274564285Y-279233580D02*
X274516666Y-279281200D01*
X274516666Y-279281200D02*
X274421428Y-279328819D01*
X274421428Y-279328819D02*
X274326190Y-279328819D01*
X274326190Y-279328819D02*
X274230952Y-279281200D01*
X274230952Y-279281200D02*
X274183333Y-279233580D01*
X274183333Y-279233580D02*
X274135714Y-279138342D01*
X274135714Y-279138342D02*
X274088095Y-278947866D01*
X274088095Y-278947866D02*
X274088095Y-278709771D01*
X274088095Y-278709771D02*
X274135714Y-278519295D01*
X274135714Y-278519295D02*
X274183333Y-278424057D01*
X274183333Y-278424057D02*
X274230952Y-278376438D01*
X274230952Y-278376438D02*
X274326190Y-278328819D01*
X163815714Y-250994819D02*
X163815714Y-249994819D01*
X163815714Y-249994819D02*
X164053809Y-249994819D01*
X164053809Y-249994819D02*
X164196666Y-250042438D01*
X164196666Y-250042438D02*
X164291904Y-250137676D01*
X164291904Y-250137676D02*
X164339523Y-250232914D01*
X164339523Y-250232914D02*
X164387142Y-250423390D01*
X164387142Y-250423390D02*
X164387142Y-250566247D01*
X164387142Y-250566247D02*
X164339523Y-250756723D01*
X164339523Y-250756723D02*
X164291904Y-250851961D01*
X164291904Y-250851961D02*
X164196666Y-250947200D01*
X164196666Y-250947200D02*
X164053809Y-250994819D01*
X164053809Y-250994819D02*
X163815714Y-250994819D01*
X165339523Y-250994819D02*
X164768095Y-250994819D01*
X165053809Y-250994819D02*
X165053809Y-249994819D01*
X165053809Y-249994819D02*
X164958571Y-250137676D01*
X164958571Y-250137676D02*
X164863333Y-250232914D01*
X164863333Y-250232914D02*
X164768095Y-250280533D01*
X165672857Y-249994819D02*
X166339523Y-249994819D01*
X166339523Y-249994819D02*
X165910952Y-250994819D01*
X347240476Y-279281200D02*
X347383333Y-279328819D01*
X347383333Y-279328819D02*
X347621428Y-279328819D01*
X347621428Y-279328819D02*
X347716666Y-279281200D01*
X347716666Y-279281200D02*
X347764285Y-279233580D01*
X347764285Y-279233580D02*
X347811904Y-279138342D01*
X347811904Y-279138342D02*
X347811904Y-279043104D01*
X347811904Y-279043104D02*
X347764285Y-278947866D01*
X347764285Y-278947866D02*
X347716666Y-278900247D01*
X347716666Y-278900247D02*
X347621428Y-278852628D01*
X347621428Y-278852628D02*
X347430952Y-278805009D01*
X347430952Y-278805009D02*
X347335714Y-278757390D01*
X347335714Y-278757390D02*
X347288095Y-278709771D01*
X347288095Y-278709771D02*
X347240476Y-278614533D01*
X347240476Y-278614533D02*
X347240476Y-278519295D01*
X347240476Y-278519295D02*
X347288095Y-278424057D01*
X347288095Y-278424057D02*
X347335714Y-278376438D01*
X347335714Y-278376438D02*
X347430952Y-278328819D01*
X347430952Y-278328819D02*
X347669047Y-278328819D01*
X347669047Y-278328819D02*
X347811904Y-278376438D01*
X348145238Y-278328819D02*
X348383333Y-279328819D01*
X348383333Y-279328819D02*
X348573809Y-278614533D01*
X348573809Y-278614533D02*
X348764285Y-279328819D01*
X348764285Y-279328819D02*
X349002381Y-278328819D01*
X349288095Y-278328819D02*
X349907142Y-278328819D01*
X349907142Y-278328819D02*
X349573809Y-278709771D01*
X349573809Y-278709771D02*
X349716666Y-278709771D01*
X349716666Y-278709771D02*
X349811904Y-278757390D01*
X349811904Y-278757390D02*
X349859523Y-278805009D01*
X349859523Y-278805009D02*
X349907142Y-278900247D01*
X349907142Y-278900247D02*
X349907142Y-279138342D01*
X349907142Y-279138342D02*
X349859523Y-279233580D01*
X349859523Y-279233580D02*
X349811904Y-279281200D01*
X349811904Y-279281200D02*
X349716666Y-279328819D01*
X349716666Y-279328819D02*
X349430952Y-279328819D01*
X349430952Y-279328819D02*
X349335714Y-279281200D01*
X349335714Y-279281200D02*
X349288095Y-279233580D01*
X350764285Y-278662152D02*
X350764285Y-279328819D01*
X350526190Y-278281200D02*
X350288095Y-278995485D01*
X350288095Y-278995485D02*
X350907142Y-278995485D01*
X248111905Y-210894819D02*
X248111905Y-209894819D01*
X248111905Y-209894819D02*
X248350000Y-209894819D01*
X248350000Y-209894819D02*
X248492857Y-209942438D01*
X248492857Y-209942438D02*
X248588095Y-210037676D01*
X248588095Y-210037676D02*
X248635714Y-210132914D01*
X248635714Y-210132914D02*
X248683333Y-210323390D01*
X248683333Y-210323390D02*
X248683333Y-210466247D01*
X248683333Y-210466247D02*
X248635714Y-210656723D01*
X248635714Y-210656723D02*
X248588095Y-210751961D01*
X248588095Y-210751961D02*
X248492857Y-210847200D01*
X248492857Y-210847200D02*
X248350000Y-210894819D01*
X248350000Y-210894819D02*
X248111905Y-210894819D01*
X249540476Y-210228152D02*
X249540476Y-210894819D01*
X249302381Y-209847200D02*
X249064286Y-210561485D01*
X249064286Y-210561485D02*
X249683333Y-210561485D01*
X328666667Y-221681200D02*
X328809524Y-221728819D01*
X328809524Y-221728819D02*
X329047619Y-221728819D01*
X329047619Y-221728819D02*
X329142857Y-221681200D01*
X329142857Y-221681200D02*
X329190476Y-221633580D01*
X329190476Y-221633580D02*
X329238095Y-221538342D01*
X329238095Y-221538342D02*
X329238095Y-221443104D01*
X329238095Y-221443104D02*
X329190476Y-221347866D01*
X329190476Y-221347866D02*
X329142857Y-221300247D01*
X329142857Y-221300247D02*
X329047619Y-221252628D01*
X329047619Y-221252628D02*
X328857143Y-221205009D01*
X328857143Y-221205009D02*
X328761905Y-221157390D01*
X328761905Y-221157390D02*
X328714286Y-221109771D01*
X328714286Y-221109771D02*
X328666667Y-221014533D01*
X328666667Y-221014533D02*
X328666667Y-220919295D01*
X328666667Y-220919295D02*
X328714286Y-220824057D01*
X328714286Y-220824057D02*
X328761905Y-220776438D01*
X328761905Y-220776438D02*
X328857143Y-220728819D01*
X328857143Y-220728819D02*
X329095238Y-220728819D01*
X329095238Y-220728819D02*
X329238095Y-220776438D01*
X329571429Y-220728819D02*
X329809524Y-221728819D01*
X329809524Y-221728819D02*
X330000000Y-221014533D01*
X330000000Y-221014533D02*
X330190476Y-221728819D01*
X330190476Y-221728819D02*
X330428572Y-220728819D01*
X330761905Y-220824057D02*
X330809524Y-220776438D01*
X330809524Y-220776438D02*
X330904762Y-220728819D01*
X330904762Y-220728819D02*
X331142857Y-220728819D01*
X331142857Y-220728819D02*
X331238095Y-220776438D01*
X331238095Y-220776438D02*
X331285714Y-220824057D01*
X331285714Y-220824057D02*
X331333333Y-220919295D01*
X331333333Y-220919295D02*
X331333333Y-221014533D01*
X331333333Y-221014533D02*
X331285714Y-221157390D01*
X331285714Y-221157390D02*
X330714286Y-221728819D01*
X330714286Y-221728819D02*
X331333333Y-221728819D01*
X442966667Y-221681200D02*
X443109524Y-221728819D01*
X443109524Y-221728819D02*
X443347619Y-221728819D01*
X443347619Y-221728819D02*
X443442857Y-221681200D01*
X443442857Y-221681200D02*
X443490476Y-221633580D01*
X443490476Y-221633580D02*
X443538095Y-221538342D01*
X443538095Y-221538342D02*
X443538095Y-221443104D01*
X443538095Y-221443104D02*
X443490476Y-221347866D01*
X443490476Y-221347866D02*
X443442857Y-221300247D01*
X443442857Y-221300247D02*
X443347619Y-221252628D01*
X443347619Y-221252628D02*
X443157143Y-221205009D01*
X443157143Y-221205009D02*
X443061905Y-221157390D01*
X443061905Y-221157390D02*
X443014286Y-221109771D01*
X443014286Y-221109771D02*
X442966667Y-221014533D01*
X442966667Y-221014533D02*
X442966667Y-220919295D01*
X442966667Y-220919295D02*
X443014286Y-220824057D01*
X443014286Y-220824057D02*
X443061905Y-220776438D01*
X443061905Y-220776438D02*
X443157143Y-220728819D01*
X443157143Y-220728819D02*
X443395238Y-220728819D01*
X443395238Y-220728819D02*
X443538095Y-220776438D01*
X443871429Y-220728819D02*
X444109524Y-221728819D01*
X444109524Y-221728819D02*
X444300000Y-221014533D01*
X444300000Y-221014533D02*
X444490476Y-221728819D01*
X444490476Y-221728819D02*
X444728572Y-220728819D01*
X445252381Y-221157390D02*
X445157143Y-221109771D01*
X445157143Y-221109771D02*
X445109524Y-221062152D01*
X445109524Y-221062152D02*
X445061905Y-220966914D01*
X445061905Y-220966914D02*
X445061905Y-220919295D01*
X445061905Y-220919295D02*
X445109524Y-220824057D01*
X445109524Y-220824057D02*
X445157143Y-220776438D01*
X445157143Y-220776438D02*
X445252381Y-220728819D01*
X445252381Y-220728819D02*
X445442857Y-220728819D01*
X445442857Y-220728819D02*
X445538095Y-220776438D01*
X445538095Y-220776438D02*
X445585714Y-220824057D01*
X445585714Y-220824057D02*
X445633333Y-220919295D01*
X445633333Y-220919295D02*
X445633333Y-220966914D01*
X445633333Y-220966914D02*
X445585714Y-221062152D01*
X445585714Y-221062152D02*
X445538095Y-221109771D01*
X445538095Y-221109771D02*
X445442857Y-221157390D01*
X445442857Y-221157390D02*
X445252381Y-221157390D01*
X445252381Y-221157390D02*
X445157143Y-221205009D01*
X445157143Y-221205009D02*
X445109524Y-221252628D01*
X445109524Y-221252628D02*
X445061905Y-221347866D01*
X445061905Y-221347866D02*
X445061905Y-221538342D01*
X445061905Y-221538342D02*
X445109524Y-221633580D01*
X445109524Y-221633580D02*
X445157143Y-221681200D01*
X445157143Y-221681200D02*
X445252381Y-221728819D01*
X445252381Y-221728819D02*
X445442857Y-221728819D01*
X445442857Y-221728819D02*
X445538095Y-221681200D01*
X445538095Y-221681200D02*
X445585714Y-221633580D01*
X445585714Y-221633580D02*
X445633333Y-221538342D01*
X445633333Y-221538342D02*
X445633333Y-221347866D01*
X445633333Y-221347866D02*
X445585714Y-221252628D01*
X445585714Y-221252628D02*
X445538095Y-221205009D01*
X445538095Y-221205009D02*
X445442857Y-221157390D01*
X142415714Y-250994819D02*
X142415714Y-249994819D01*
X142415714Y-249994819D02*
X142653809Y-249994819D01*
X142653809Y-249994819D02*
X142796666Y-250042438D01*
X142796666Y-250042438D02*
X142891904Y-250137676D01*
X142891904Y-250137676D02*
X142939523Y-250232914D01*
X142939523Y-250232914D02*
X142987142Y-250423390D01*
X142987142Y-250423390D02*
X142987142Y-250566247D01*
X142987142Y-250566247D02*
X142939523Y-250756723D01*
X142939523Y-250756723D02*
X142891904Y-250851961D01*
X142891904Y-250851961D02*
X142796666Y-250947200D01*
X142796666Y-250947200D02*
X142653809Y-250994819D01*
X142653809Y-250994819D02*
X142415714Y-250994819D01*
X143939523Y-250994819D02*
X143368095Y-250994819D01*
X143653809Y-250994819D02*
X143653809Y-249994819D01*
X143653809Y-249994819D02*
X143558571Y-250137676D01*
X143558571Y-250137676D02*
X143463333Y-250232914D01*
X143463333Y-250232914D02*
X143368095Y-250280533D01*
X144844285Y-249994819D02*
X144368095Y-249994819D01*
X144368095Y-249994819D02*
X144320476Y-250471009D01*
X144320476Y-250471009D02*
X144368095Y-250423390D01*
X144368095Y-250423390D02*
X144463333Y-250375771D01*
X144463333Y-250375771D02*
X144701428Y-250375771D01*
X144701428Y-250375771D02*
X144796666Y-250423390D01*
X144796666Y-250423390D02*
X144844285Y-250471009D01*
X144844285Y-250471009D02*
X144891904Y-250566247D01*
X144891904Y-250566247D02*
X144891904Y-250804342D01*
X144891904Y-250804342D02*
X144844285Y-250899580D01*
X144844285Y-250899580D02*
X144796666Y-250947200D01*
X144796666Y-250947200D02*
X144701428Y-250994819D01*
X144701428Y-250994819D02*
X144463333Y-250994819D01*
X144463333Y-250994819D02*
X144368095Y-250947200D01*
X144368095Y-250947200D02*
X144320476Y-250899580D01*
X261510476Y-250481200D02*
X261653333Y-250528819D01*
X261653333Y-250528819D02*
X261891428Y-250528819D01*
X261891428Y-250528819D02*
X261986666Y-250481200D01*
X261986666Y-250481200D02*
X262034285Y-250433580D01*
X262034285Y-250433580D02*
X262081904Y-250338342D01*
X262081904Y-250338342D02*
X262081904Y-250243104D01*
X262081904Y-250243104D02*
X262034285Y-250147866D01*
X262034285Y-250147866D02*
X261986666Y-250100247D01*
X261986666Y-250100247D02*
X261891428Y-250052628D01*
X261891428Y-250052628D02*
X261700952Y-250005009D01*
X261700952Y-250005009D02*
X261605714Y-249957390D01*
X261605714Y-249957390D02*
X261558095Y-249909771D01*
X261558095Y-249909771D02*
X261510476Y-249814533D01*
X261510476Y-249814533D02*
X261510476Y-249719295D01*
X261510476Y-249719295D02*
X261558095Y-249624057D01*
X261558095Y-249624057D02*
X261605714Y-249576438D01*
X261605714Y-249576438D02*
X261700952Y-249528819D01*
X261700952Y-249528819D02*
X261939047Y-249528819D01*
X261939047Y-249528819D02*
X262081904Y-249576438D01*
X262415238Y-249528819D02*
X262653333Y-250528819D01*
X262653333Y-250528819D02*
X262843809Y-249814533D01*
X262843809Y-249814533D02*
X263034285Y-250528819D01*
X263034285Y-250528819D02*
X263272381Y-249528819D01*
X264177142Y-250528819D02*
X263605714Y-250528819D01*
X263891428Y-250528819D02*
X263891428Y-249528819D01*
X263891428Y-249528819D02*
X263796190Y-249671676D01*
X263796190Y-249671676D02*
X263700952Y-249766914D01*
X263700952Y-249766914D02*
X263605714Y-249814533D01*
X264510476Y-249528819D02*
X265129523Y-249528819D01*
X265129523Y-249528819D02*
X264796190Y-249909771D01*
X264796190Y-249909771D02*
X264939047Y-249909771D01*
X264939047Y-249909771D02*
X265034285Y-249957390D01*
X265034285Y-249957390D02*
X265081904Y-250005009D01*
X265081904Y-250005009D02*
X265129523Y-250100247D01*
X265129523Y-250100247D02*
X265129523Y-250338342D01*
X265129523Y-250338342D02*
X265081904Y-250433580D01*
X265081904Y-250433580D02*
X265034285Y-250481200D01*
X265034285Y-250481200D02*
X264939047Y-250528819D01*
X264939047Y-250528819D02*
X264653333Y-250528819D01*
X264653333Y-250528819D02*
X264558095Y-250481200D01*
X264558095Y-250481200D02*
X264510476Y-250433580D01*
X131815714Y-250994819D02*
X131815714Y-249994819D01*
X131815714Y-249994819D02*
X132053809Y-249994819D01*
X132053809Y-249994819D02*
X132196666Y-250042438D01*
X132196666Y-250042438D02*
X132291904Y-250137676D01*
X132291904Y-250137676D02*
X132339523Y-250232914D01*
X132339523Y-250232914D02*
X132387142Y-250423390D01*
X132387142Y-250423390D02*
X132387142Y-250566247D01*
X132387142Y-250566247D02*
X132339523Y-250756723D01*
X132339523Y-250756723D02*
X132291904Y-250851961D01*
X132291904Y-250851961D02*
X132196666Y-250947200D01*
X132196666Y-250947200D02*
X132053809Y-250994819D01*
X132053809Y-250994819D02*
X131815714Y-250994819D01*
X133339523Y-250994819D02*
X132768095Y-250994819D01*
X133053809Y-250994819D02*
X133053809Y-249994819D01*
X133053809Y-249994819D02*
X132958571Y-250137676D01*
X132958571Y-250137676D02*
X132863333Y-250232914D01*
X132863333Y-250232914D02*
X132768095Y-250280533D01*
X134196666Y-250328152D02*
X134196666Y-250994819D01*
X133958571Y-249947200D02*
X133720476Y-250661485D01*
X133720476Y-250661485D02*
X134339523Y-250661485D01*
X226911905Y-210894819D02*
X226911905Y-209894819D01*
X226911905Y-209894819D02*
X227150000Y-209894819D01*
X227150000Y-209894819D02*
X227292857Y-209942438D01*
X227292857Y-209942438D02*
X227388095Y-210037676D01*
X227388095Y-210037676D02*
X227435714Y-210132914D01*
X227435714Y-210132914D02*
X227483333Y-210323390D01*
X227483333Y-210323390D02*
X227483333Y-210466247D01*
X227483333Y-210466247D02*
X227435714Y-210656723D01*
X227435714Y-210656723D02*
X227388095Y-210751961D01*
X227388095Y-210751961D02*
X227292857Y-210847200D01*
X227292857Y-210847200D02*
X227150000Y-210894819D01*
X227150000Y-210894819D02*
X226911905Y-210894819D01*
X227864286Y-209990057D02*
X227911905Y-209942438D01*
X227911905Y-209942438D02*
X228007143Y-209894819D01*
X228007143Y-209894819D02*
X228245238Y-209894819D01*
X228245238Y-209894819D02*
X228340476Y-209942438D01*
X228340476Y-209942438D02*
X228388095Y-209990057D01*
X228388095Y-209990057D02*
X228435714Y-210085295D01*
X228435714Y-210085295D02*
X228435714Y-210180533D01*
X228435714Y-210180533D02*
X228388095Y-210323390D01*
X228388095Y-210323390D02*
X227816667Y-210894819D01*
X227816667Y-210894819D02*
X228435714Y-210894819D01*
X213890476Y-279281200D02*
X214033333Y-279328819D01*
X214033333Y-279328819D02*
X214271428Y-279328819D01*
X214271428Y-279328819D02*
X214366666Y-279281200D01*
X214366666Y-279281200D02*
X214414285Y-279233580D01*
X214414285Y-279233580D02*
X214461904Y-279138342D01*
X214461904Y-279138342D02*
X214461904Y-279043104D01*
X214461904Y-279043104D02*
X214414285Y-278947866D01*
X214414285Y-278947866D02*
X214366666Y-278900247D01*
X214366666Y-278900247D02*
X214271428Y-278852628D01*
X214271428Y-278852628D02*
X214080952Y-278805009D01*
X214080952Y-278805009D02*
X213985714Y-278757390D01*
X213985714Y-278757390D02*
X213938095Y-278709771D01*
X213938095Y-278709771D02*
X213890476Y-278614533D01*
X213890476Y-278614533D02*
X213890476Y-278519295D01*
X213890476Y-278519295D02*
X213938095Y-278424057D01*
X213938095Y-278424057D02*
X213985714Y-278376438D01*
X213985714Y-278376438D02*
X214080952Y-278328819D01*
X214080952Y-278328819D02*
X214319047Y-278328819D01*
X214319047Y-278328819D02*
X214461904Y-278376438D01*
X214795238Y-278328819D02*
X215033333Y-279328819D01*
X215033333Y-279328819D02*
X215223809Y-278614533D01*
X215223809Y-278614533D02*
X215414285Y-279328819D01*
X215414285Y-279328819D02*
X215652381Y-278328819D01*
X215985714Y-278424057D02*
X216033333Y-278376438D01*
X216033333Y-278376438D02*
X216128571Y-278328819D01*
X216128571Y-278328819D02*
X216366666Y-278328819D01*
X216366666Y-278328819D02*
X216461904Y-278376438D01*
X216461904Y-278376438D02*
X216509523Y-278424057D01*
X216509523Y-278424057D02*
X216557142Y-278519295D01*
X216557142Y-278519295D02*
X216557142Y-278614533D01*
X216557142Y-278614533D02*
X216509523Y-278757390D01*
X216509523Y-278757390D02*
X215938095Y-279328819D01*
X215938095Y-279328819D02*
X216557142Y-279328819D01*
X217414285Y-278328819D02*
X217223809Y-278328819D01*
X217223809Y-278328819D02*
X217128571Y-278376438D01*
X217128571Y-278376438D02*
X217080952Y-278424057D01*
X217080952Y-278424057D02*
X216985714Y-278566914D01*
X216985714Y-278566914D02*
X216938095Y-278757390D01*
X216938095Y-278757390D02*
X216938095Y-279138342D01*
X216938095Y-279138342D02*
X216985714Y-279233580D01*
X216985714Y-279233580D02*
X217033333Y-279281200D01*
X217033333Y-279281200D02*
X217128571Y-279328819D01*
X217128571Y-279328819D02*
X217319047Y-279328819D01*
X217319047Y-279328819D02*
X217414285Y-279281200D01*
X217414285Y-279281200D02*
X217461904Y-279233580D01*
X217461904Y-279233580D02*
X217509523Y-279138342D01*
X217509523Y-279138342D02*
X217509523Y-278900247D01*
X217509523Y-278900247D02*
X217461904Y-278805009D01*
X217461904Y-278805009D02*
X217414285Y-278757390D01*
X217414285Y-278757390D02*
X217319047Y-278709771D01*
X217319047Y-278709771D02*
X217128571Y-278709771D01*
X217128571Y-278709771D02*
X217033333Y-278757390D01*
X217033333Y-278757390D02*
X216985714Y-278805009D01*
X216985714Y-278805009D02*
X216938095Y-278900247D01*
X195316667Y-221681200D02*
X195459524Y-221728819D01*
X195459524Y-221728819D02*
X195697619Y-221728819D01*
X195697619Y-221728819D02*
X195792857Y-221681200D01*
X195792857Y-221681200D02*
X195840476Y-221633580D01*
X195840476Y-221633580D02*
X195888095Y-221538342D01*
X195888095Y-221538342D02*
X195888095Y-221443104D01*
X195888095Y-221443104D02*
X195840476Y-221347866D01*
X195840476Y-221347866D02*
X195792857Y-221300247D01*
X195792857Y-221300247D02*
X195697619Y-221252628D01*
X195697619Y-221252628D02*
X195507143Y-221205009D01*
X195507143Y-221205009D02*
X195411905Y-221157390D01*
X195411905Y-221157390D02*
X195364286Y-221109771D01*
X195364286Y-221109771D02*
X195316667Y-221014533D01*
X195316667Y-221014533D02*
X195316667Y-220919295D01*
X195316667Y-220919295D02*
X195364286Y-220824057D01*
X195364286Y-220824057D02*
X195411905Y-220776438D01*
X195411905Y-220776438D02*
X195507143Y-220728819D01*
X195507143Y-220728819D02*
X195745238Y-220728819D01*
X195745238Y-220728819D02*
X195888095Y-220776438D01*
X196221429Y-220728819D02*
X196459524Y-221728819D01*
X196459524Y-221728819D02*
X196650000Y-221014533D01*
X196650000Y-221014533D02*
X196840476Y-221728819D01*
X196840476Y-221728819D02*
X197078572Y-220728819D01*
X197983333Y-221728819D02*
X197411905Y-221728819D01*
X197697619Y-221728819D02*
X197697619Y-220728819D01*
X197697619Y-220728819D02*
X197602381Y-220871676D01*
X197602381Y-220871676D02*
X197507143Y-220966914D01*
X197507143Y-220966914D02*
X197411905Y-221014533D01*
D12*
%TO.C,SW5*%
X380165000Y-206415000D02*
X394135000Y-206415000D01*
X380165000Y-220385000D02*
X380165000Y-206415000D01*
X394135000Y-206415000D02*
X394135000Y-220385000D01*
X394135000Y-220385000D02*
X380165000Y-220385000D01*
%TO.C,SW24*%
X170615000Y-264015000D02*
X184585000Y-264015000D01*
X170615000Y-277985000D02*
X170615000Y-264015000D01*
X184585000Y-264015000D02*
X184585000Y-277985000D01*
X184585000Y-277985000D02*
X170615000Y-277985000D01*
%TO.C,SW32*%
X323015000Y-264015000D02*
X336985000Y-264015000D01*
X323015000Y-277985000D02*
X323015000Y-264015000D01*
X336985000Y-264015000D02*
X336985000Y-277985000D01*
X336985000Y-277985000D02*
X323015000Y-277985000D01*
%TO.C,SW31*%
X303965000Y-264015000D02*
X317935000Y-264015000D01*
X303965000Y-277985000D02*
X303965000Y-264015000D01*
X317935000Y-264015000D02*
X317935000Y-277985000D01*
X317935000Y-277985000D02*
X303965000Y-277985000D01*
%TO.C,D3*%
X258090000Y-212164000D02*
X258090000Y-212320000D01*
X258090000Y-214480000D02*
X258090000Y-214636000D01*
X258090000Y-212164484D02*
G75*
G02*
X261321437Y-212320000I1560000J-1235516D01*
G01*
X258609039Y-212320000D02*
G75*
G02*
X260690961Y-212320000I1040961J-1080000D01*
G01*
X260690961Y-214480000D02*
G75*
G02*
X258609039Y-214480000I-1040961J1080000D01*
G01*
X261321437Y-214480000D02*
G75*
G02*
X258090000Y-214635516I-1671437J1080000D01*
G01*
%TO.C,SW17*%
X370635000Y-235215000D02*
X384605000Y-235215000D01*
X370635000Y-249185000D02*
X370635000Y-235215000D01*
X384605000Y-235215000D02*
X384605000Y-249185000D01*
X384605000Y-249185000D02*
X370635000Y-249185000D01*
%TO.C,SW25*%
X189665000Y-264015000D02*
X203635000Y-264015000D01*
X189665000Y-277985000D02*
X189665000Y-264015000D01*
X203635000Y-264015000D02*
X203635000Y-277985000D01*
X203635000Y-277985000D02*
X189665000Y-277985000D01*
%TO.C,SW35*%
X380165000Y-264015000D02*
X394135000Y-264015000D01*
X380165000Y-277985000D02*
X380165000Y-264015000D01*
X394135000Y-264015000D02*
X394135000Y-277985000D01*
X394135000Y-277985000D02*
X380165000Y-277985000D01*
%TO.C,SW29*%
X284915000Y-264015000D02*
X298885000Y-264015000D01*
X284915000Y-277985000D02*
X284915000Y-264015000D01*
X298885000Y-264015000D02*
X298885000Y-277985000D01*
X298885000Y-277985000D02*
X284915000Y-277985000D01*
%TO.C,SW14*%
X275385000Y-235215000D02*
X289355000Y-235215000D01*
X275385000Y-249185000D02*
X275385000Y-235215000D01*
X289355000Y-235215000D02*
X289355000Y-249185000D01*
X289355000Y-249185000D02*
X275385000Y-249185000D01*
%TO.C,SW19*%
X408735000Y-235215000D02*
X422705000Y-235215000D01*
X408735000Y-249185000D02*
X408735000Y-235215000D01*
X422705000Y-235215000D02*
X422705000Y-249185000D01*
X422705000Y-249185000D02*
X408735000Y-249185000D01*
%TO.C,SW16*%
X332535000Y-235215000D02*
X346505000Y-235215000D01*
X332535000Y-249185000D02*
X332535000Y-235215000D01*
X346505000Y-235215000D02*
X346505000Y-249185000D01*
X346505000Y-249185000D02*
X332535000Y-249185000D01*
%TO.C,SW21*%
X465885000Y-235215000D02*
X479855000Y-235215000D01*
X465885000Y-249185000D02*
X465885000Y-235215000D01*
X479855000Y-235215000D02*
X479855000Y-249185000D01*
X479855000Y-249185000D02*
X465885000Y-249185000D01*
%TO.C,SW15*%
X313485000Y-235215000D02*
X327455000Y-235215000D01*
X313485000Y-249185000D02*
X313485000Y-235215000D01*
X327455000Y-235215000D02*
X327455000Y-249185000D01*
X327455000Y-249185000D02*
X313485000Y-249185000D01*
%TO.C,D1*%
X236690000Y-212164000D02*
X236690000Y-212320000D01*
X236690000Y-214480000D02*
X236690000Y-214636000D01*
X236690000Y-212164484D02*
G75*
G02*
X239921437Y-212320000I1560000J-1235516D01*
G01*
X237209039Y-212320000D02*
G75*
G02*
X239290961Y-212320000I1040961J-1080000D01*
G01*
X239290961Y-214480000D02*
G75*
G02*
X237209039Y-214480000I-1040961J1080000D01*
G01*
X239921437Y-214480000D02*
G75*
G02*
X236690000Y-214635516I-1671437J1080000D01*
G01*
%TO.C,SW39*%
X456365000Y-264015000D02*
X470335000Y-264015000D01*
X456365000Y-277985000D02*
X456365000Y-264015000D01*
X470335000Y-264015000D02*
X470335000Y-277985000D01*
X470335000Y-277985000D02*
X456365000Y-277985000D01*
%TO.C,SW18*%
X389685000Y-235215000D02*
X403655000Y-235215000D01*
X389685000Y-249185000D02*
X389685000Y-235215000D01*
X403655000Y-235215000D02*
X403655000Y-249185000D01*
X403655000Y-249185000D02*
X389685000Y-249185000D01*
%TO.C,SW6*%
X399215000Y-206415000D02*
X413185000Y-206415000D01*
X399215000Y-220385000D02*
X399215000Y-206415000D01*
X413185000Y-206415000D02*
X413185000Y-220385000D01*
X413185000Y-220385000D02*
X399215000Y-220385000D01*
%TO.C,SW20*%
X446835000Y-235215000D02*
X460805000Y-235215000D01*
X446835000Y-249185000D02*
X446835000Y-235215000D01*
X460805000Y-235215000D02*
X460805000Y-249185000D01*
X460805000Y-249185000D02*
X446835000Y-249185000D01*
%TO.C,D16*%
X152670000Y-252264000D02*
X152670000Y-252420000D01*
X152670000Y-254580000D02*
X152670000Y-254736000D01*
X152670000Y-252264484D02*
G75*
G02*
X155901437Y-252420000I1560000J-1235516D01*
G01*
X153189039Y-252420000D02*
G75*
G02*
X155270961Y-252420000I1040961J-1080000D01*
G01*
X155270961Y-254580000D02*
G75*
G02*
X153189039Y-254580000I-1040961J1080000D01*
G01*
X155901437Y-254580000D02*
G75*
G02*
X152670000Y-254735516I-1671437J1080000D01*
G01*
%TO.C,SW27*%
X227765000Y-264015000D02*
X241735000Y-264015000D01*
X227765000Y-277985000D02*
X227765000Y-264015000D01*
X241735000Y-264015000D02*
X241735000Y-277985000D01*
X241735000Y-277985000D02*
X227765000Y-277985000D01*
%TO.C,SW12*%
X237285000Y-235215000D02*
X251255000Y-235215000D01*
X237285000Y-249185000D02*
X237285000Y-235215000D01*
X251255000Y-235215000D02*
X251255000Y-249185000D01*
X251255000Y-249185000D02*
X237285000Y-249185000D01*
%TO.C,SW36*%
X399215000Y-264015000D02*
X413185000Y-264015000D01*
X399215000Y-277985000D02*
X399215000Y-264015000D01*
X413185000Y-264015000D02*
X413185000Y-277985000D01*
X413185000Y-277985000D02*
X399215000Y-277985000D01*
%TO.C,SW38*%
X437315000Y-264015000D02*
X451285000Y-264015000D01*
X437315000Y-277985000D02*
X437315000Y-264015000D01*
X451285000Y-264015000D02*
X451285000Y-277985000D01*
X451285000Y-277985000D02*
X437315000Y-277985000D01*
%TO.C,SW9*%
X456365000Y-206415000D02*
X470335000Y-206415000D01*
X456365000Y-220385000D02*
X456365000Y-206415000D01*
X470335000Y-206415000D02*
X470335000Y-220385000D01*
X470335000Y-220385000D02*
X456365000Y-220385000D01*
%TO.C,SW28*%
X246815000Y-264015000D02*
X260785000Y-264015000D01*
X246815000Y-277985000D02*
X246815000Y-264015000D01*
X260785000Y-264015000D02*
X260785000Y-277985000D01*
X260785000Y-277985000D02*
X246815000Y-277985000D01*
%TO.C,SW23*%
X151565000Y-271015000D02*
X165535000Y-271015000D01*
X151565000Y-284985000D02*
X151565000Y-271015000D01*
X165535000Y-271015000D02*
X165535000Y-284985000D01*
X165535000Y-284985000D02*
X151565000Y-284985000D01*
%TO.C,SW11*%
X199185000Y-235215000D02*
X213155000Y-235215000D01*
X199185000Y-249185000D02*
X199185000Y-235215000D01*
X213155000Y-235215000D02*
X213155000Y-249185000D01*
X213155000Y-249185000D02*
X199185000Y-249185000D01*
%TO.C,SW10*%
X180135000Y-235215000D02*
X194105000Y-235215000D01*
X180135000Y-249185000D02*
X180135000Y-235215000D01*
X194105000Y-235215000D02*
X194105000Y-249185000D01*
X194105000Y-249185000D02*
X180135000Y-249185000D01*
%TO.C,SW4*%
X342065000Y-206415000D02*
X356035000Y-206415000D01*
X342065000Y-220385000D02*
X342065000Y-206415000D01*
X356035000Y-206415000D02*
X356035000Y-220385000D01*
X356035000Y-220385000D02*
X342065000Y-220385000D01*
%TO.C,SW33*%
X361115000Y-264015000D02*
X375085000Y-264015000D01*
X361115000Y-277985000D02*
X361115000Y-264015000D01*
X375085000Y-264015000D02*
X375085000Y-277985000D01*
X375085000Y-277985000D02*
X361115000Y-277985000D01*
%TO.C,SW40*%
X475415000Y-264015000D02*
X489385000Y-264015000D01*
X475415000Y-277985000D02*
X475415000Y-264015000D01*
X489385000Y-264015000D02*
X489385000Y-277985000D01*
X489385000Y-277985000D02*
X475415000Y-277985000D01*
%TO.C,SW7*%
X418265000Y-206415000D02*
X432235000Y-206415000D01*
X418265000Y-220385000D02*
X418265000Y-206415000D01*
X432235000Y-206415000D02*
X432235000Y-220385000D01*
X432235000Y-220385000D02*
X418265000Y-220385000D01*
%TO.C,SW22*%
X132515000Y-271015000D02*
X146485000Y-271015000D01*
X132515000Y-284985000D02*
X132515000Y-271015000D01*
X146485000Y-271015000D02*
X146485000Y-284985000D01*
X146485000Y-284985000D02*
X132515000Y-284985000D01*
%TO.C,SW3*%
X361115000Y-206415000D02*
X375085000Y-206415000D01*
X361115000Y-220385000D02*
X361115000Y-206415000D01*
X375085000Y-206415000D02*
X375085000Y-220385000D01*
X375085000Y-220385000D02*
X361115000Y-220385000D01*
%TO.C,SW37*%
X418265000Y-264015000D02*
X432235000Y-264015000D01*
X418265000Y-277985000D02*
X418265000Y-264015000D01*
X432235000Y-264015000D02*
X432235000Y-277985000D01*
X432235000Y-277985000D02*
X418265000Y-277985000D01*
%TO.C,SW30*%
X265865000Y-264015000D02*
X279835000Y-264015000D01*
X265865000Y-277985000D02*
X265865000Y-264015000D01*
X279835000Y-264015000D02*
X279835000Y-277985000D01*
X279835000Y-277985000D02*
X265865000Y-277985000D01*
%TO.C,D17*%
X163470000Y-252264000D02*
X163470000Y-252420000D01*
X163470000Y-254580000D02*
X163470000Y-254736000D01*
X163470000Y-252264484D02*
G75*
G02*
X166701437Y-252420000I1560000J-1235516D01*
G01*
X163989039Y-252420000D02*
G75*
G02*
X166070961Y-252420000I1040961J-1080000D01*
G01*
X166070961Y-254580000D02*
G75*
G02*
X163989039Y-254580000I-1040961J1080000D01*
G01*
X166701437Y-254580000D02*
G75*
G02*
X163470000Y-254735516I-1671437J1080000D01*
G01*
%TO.C,SW34*%
X342065000Y-264015000D02*
X356035000Y-264015000D01*
X342065000Y-277985000D02*
X342065000Y-264015000D01*
X356035000Y-264015000D02*
X356035000Y-277985000D01*
X356035000Y-277985000D02*
X342065000Y-277985000D01*
%TO.C,D4*%
X247290000Y-212164000D02*
X247290000Y-212320000D01*
X247290000Y-214480000D02*
X247290000Y-214636000D01*
X247290000Y-212164484D02*
G75*
G02*
X250521437Y-212320000I1560000J-1235516D01*
G01*
X247809039Y-212320000D02*
G75*
G02*
X249890961Y-212320000I1040961J-1080000D01*
G01*
X249890961Y-214480000D02*
G75*
G02*
X247809039Y-214480000I-1040961J1080000D01*
G01*
X250521437Y-214480000D02*
G75*
G02*
X247290000Y-214635516I-1671437J1080000D01*
G01*
%TO.C,SW2*%
X323015000Y-206415000D02*
X336985000Y-206415000D01*
X323015000Y-220385000D02*
X323015000Y-206415000D01*
X336985000Y-206415000D02*
X336985000Y-220385000D01*
X336985000Y-220385000D02*
X323015000Y-220385000D01*
%TO.C,SW8*%
X437315000Y-206415000D02*
X451285000Y-206415000D01*
X437315000Y-220385000D02*
X437315000Y-206415000D01*
X451285000Y-206415000D02*
X451285000Y-220385000D01*
X451285000Y-220385000D02*
X437315000Y-220385000D01*
%TO.C,D15*%
X142070000Y-252264000D02*
X142070000Y-252420000D01*
X142070000Y-254580000D02*
X142070000Y-254736000D01*
X142070000Y-252264484D02*
G75*
G02*
X145301437Y-252420000I1560000J-1235516D01*
G01*
X142589039Y-252420000D02*
G75*
G02*
X144670961Y-252420000I1040961J-1080000D01*
G01*
X144670961Y-254580000D02*
G75*
G02*
X142589039Y-254580000I-1040961J1080000D01*
G01*
X145301437Y-254580000D02*
G75*
G02*
X142070000Y-254735516I-1671437J1080000D01*
G01*
%TO.C,SW13*%
X256335000Y-235215000D02*
X270305000Y-235215000D01*
X256335000Y-249185000D02*
X256335000Y-235215000D01*
X270305000Y-235215000D02*
X270305000Y-249185000D01*
X270305000Y-249185000D02*
X256335000Y-249185000D01*
%TO.C,D14*%
X131470000Y-252264000D02*
X131470000Y-252420000D01*
X131470000Y-254580000D02*
X131470000Y-254736000D01*
X131470000Y-252264484D02*
G75*
G02*
X134701437Y-252420000I1560000J-1235516D01*
G01*
X131989039Y-252420000D02*
G75*
G02*
X134070961Y-252420000I1040961J-1080000D01*
G01*
X134070961Y-254580000D02*
G75*
G02*
X131989039Y-254580000I-1040961J1080000D01*
G01*
X134701437Y-254580000D02*
G75*
G02*
X131470000Y-254735516I-1671437J1080000D01*
G01*
%TO.C,D2*%
X226090000Y-212164000D02*
X226090000Y-212320000D01*
X226090000Y-214480000D02*
X226090000Y-214636000D01*
X226090000Y-212164484D02*
G75*
G02*
X229321437Y-212320000I1560000J-1235516D01*
G01*
X226609039Y-212320000D02*
G75*
G02*
X228690961Y-212320000I1040961J-1080000D01*
G01*
X228690961Y-214480000D02*
G75*
G02*
X226609039Y-214480000I-1040961J1080000D01*
G01*
X229321437Y-214480000D02*
G75*
G02*
X226090000Y-214635516I-1671437J1080000D01*
G01*
%TO.C,SW26*%
X208715000Y-264015000D02*
X222685000Y-264015000D01*
X208715000Y-277985000D02*
X208715000Y-264015000D01*
X222685000Y-264015000D02*
X222685000Y-277985000D01*
X222685000Y-277985000D02*
X208715000Y-277985000D01*
%TO.C,SW1*%
X189665000Y-206415000D02*
X203635000Y-206415000D01*
X189665000Y-220385000D02*
X189665000Y-206415000D01*
X203635000Y-206415000D02*
X203635000Y-220385000D01*
X203635000Y-220385000D02*
X189665000Y-220385000D01*
%TD*%
M02*
