M48
; DRILL file {KiCad 9.0.6} date 2026-02-23T17:21:22+0100
; FORMAT={-:-/ absolute / metric / decimal}
; #@! TF.CreationDate,2026-02-23T17:21:22+01:00
; #@! TF.GenerationSoftware,Kicad,Pcbnew,9.0.6
; #@! TF.FileFunction,Plated,1,2,PTH
FMAT,2
METRIC
; #@! TA.AperFunction,Plated,PTH,ViaDrill
T1C0.300
; #@! TA.AperFunction,Plated,PTH,ComponentDrill
T2C0.800
; #@! TA.AperFunction,Plated,PTH,ComponentDrill
T3C0.900
; #@! TA.AperFunction,Plated,PTH,ComponentDrill
T4C1.200
; #@! TA.AperFunction,Plated,PTH,ComponentDrill
T5C1.500
%
G90
G05
T1
X207.0Y-269.0
X226.0Y-232.0
X226.0Y-235.0
X230.0Y-235.0
X240.0Y-240.0
X241.0Y-240.0
X253.0Y-238.0
X297.0Y-219.0
X304.0Y-232.0
X306.0Y-205.599
X306.0Y-207.0
X336.0Y-232.0
X367.0Y-228.802
X370.0Y-260.0
X375.0Y-260.0
X375.0Y-261.0
X375.0Y-262.0
X375.0Y-263.0
X379.0Y-260.0
X379.0Y-261.0
X379.0Y-262.0
X382.0Y-261.0
X382.0Y-262.0
X459.0Y-209.0
X495.0Y-209.0
X495.0Y-210.0
X496.401Y-209.0
T2
X135.69Y-290.0
X143.31Y-290.0
X154.74Y-290.0
X162.36Y-290.0
X173.79Y-283.0
X181.41Y-283.0
X183.31Y-254.2
X190.93Y-254.2
X192.84Y-225.4
X192.84Y-283.0
X200.46Y-225.4
X200.46Y-283.0
X202.36Y-254.2
X209.98Y-254.2
X211.89Y-283.0
X219.51Y-283.0
X230.94Y-283.0
X238.56Y-283.0
X240.46Y-254.2
X248.08Y-254.2
X249.99Y-283.0
X257.61Y-283.0
X259.51Y-254.2
X267.13Y-254.2
X269.04Y-283.0
X276.66Y-283.0
X278.56Y-254.2
X286.18Y-254.2
X288.09Y-283.0
X295.71Y-283.0
X307.14Y-283.0
X314.76Y-283.0
X316.66Y-254.2
X324.28Y-254.2
X326.19Y-225.4
X326.19Y-283.0
X333.81Y-225.4
X333.81Y-283.0
X335.71Y-254.2
X343.33Y-254.2
X345.24Y-225.4
X345.24Y-283.0
X352.86Y-225.4
X352.86Y-283.0
X364.29Y-225.4
X364.29Y-283.0
X371.91Y-225.4
X371.91Y-283.0
X373.81Y-254.2
X381.43Y-254.2
X383.34Y-225.4
X383.34Y-283.0
X390.96Y-225.4
X390.96Y-283.0
X392.86Y-254.2
X400.48Y-254.2
X402.39Y-225.4
X402.39Y-283.0
X410.01Y-225.4
X410.01Y-283.0
X411.91Y-254.2
X419.53Y-254.2
X421.44Y-225.4
X421.44Y-283.0
X429.06Y-225.4
X429.06Y-283.0
X440.49Y-225.4
X440.49Y-283.0
X448.11Y-225.4
X448.11Y-283.0
X450.01Y-254.2
X457.63Y-254.2
X459.54Y-225.4
X459.54Y-283.0
X467.16Y-225.4
X467.16Y-283.0
X469.06Y-254.2
X476.68Y-254.2
X478.59Y-283.0
X486.21Y-283.0
T3
X131.76Y-253.5
X134.3Y-253.5
X142.36Y-253.5
X144.9Y-253.5
X152.96Y-253.5
X155.5Y-253.5
X163.76Y-253.5
X166.3Y-253.5
X226.38Y-213.4
X228.92Y-213.4
X236.98Y-213.4
X239.52Y-213.4
X247.58Y-213.4
X250.12Y-213.4
X258.38Y-213.4
X260.92Y-213.4
T4
X130.49Y-225.45
X133.03Y-225.45
X135.57Y-225.45
X146.49Y-225.45
X149.03Y-225.45
X151.57Y-225.45
X152.0Y-210.86
X152.0Y-213.4
X152.0Y-215.94
X162.49Y-225.45
X165.03Y-225.45
X167.57Y-225.45
X221.94Y-225.0
X224.48Y-225.0
X227.02Y-225.0
X236.01Y-225.0
X238.55Y-225.0
X241.09Y-225.0
X250.08Y-225.0
X252.62Y-225.0
X255.16Y-225.0
X264.15Y-225.0
X266.69Y-225.0
X269.23Y-225.0
X271.18Y-213.4
X273.72Y-213.4
X276.26Y-213.4
X278.22Y-225.45
X280.76Y-225.45
X283.3Y-225.45
X285.25Y-213.4
X287.79Y-213.4
X290.33Y-213.4
X292.29Y-225.45
X294.83Y-225.45
X297.37Y-225.45
X299.32Y-213.4
X301.86Y-213.4
X304.4Y-213.4
X307.63Y-225.45
X310.17Y-225.45
X313.39Y-213.4
X315.93Y-213.4
X318.47Y-213.4
X485.63Y-225.45
X488.17Y-225.45
T5
X136.96Y-283.08
X143.31Y-280.54
X156.01Y-283.08
X162.36Y-280.54
X175.06Y-276.08
X181.41Y-273.54
X184.58Y-247.28
X190.93Y-244.74
X194.11Y-218.48
X194.11Y-276.08
X200.46Y-215.94
X200.46Y-273.54
X203.63Y-247.28
X209.98Y-244.74
X213.16Y-276.08
X219.51Y-273.54
X232.21Y-276.08
X238.56Y-273.54
X241.73Y-247.28
X248.08Y-244.74
X251.26Y-276.08
X257.61Y-273.54
X260.78Y-247.28
X267.13Y-244.74
X270.31Y-276.08
X276.66Y-273.54
X279.83Y-247.28
X286.18Y-244.74
X289.36Y-276.08
X295.71Y-273.54
X308.41Y-276.08
X314.76Y-273.54
X317.93Y-247.28
X324.28Y-244.74
X327.46Y-218.48
X327.46Y-276.08
X333.81Y-215.94
X333.81Y-273.54
X336.98Y-247.28
X343.33Y-244.74
X346.51Y-218.48
X346.51Y-276.08
X352.86Y-215.94
X352.86Y-273.54
X365.56Y-218.48
X365.56Y-276.08
X371.91Y-215.94
X371.91Y-273.54
X375.08Y-247.28
X381.43Y-244.74
X384.61Y-218.48
X384.61Y-276.08
X390.96Y-215.94
X390.96Y-273.54
X394.13Y-247.28
X400.48Y-244.74
X403.66Y-218.48
X403.66Y-276.08
X410.01Y-215.94
X410.01Y-273.54
X413.18Y-247.28
X419.53Y-244.74
X422.71Y-218.48
X422.71Y-276.08
X429.06Y-215.94
X429.06Y-273.54
X441.76Y-218.48
X441.76Y-276.08
X448.11Y-215.94
X448.11Y-273.54
X451.28Y-247.28
X457.63Y-244.74
X460.81Y-218.48
X460.81Y-276.08
X467.16Y-215.94
X467.16Y-273.54
X470.33Y-247.28
X476.68Y-244.74
X479.86Y-276.08
X486.21Y-273.54
M30
