M48
; DRILL file {KiCad 9.0.6} date 2026-02-23T17:21:22+0100
; FORMAT={-:-/ absolute / metric / decimal}
; #@! TF.CreationDate,2026-02-23T17:21:22+01:00
; #@! TF.GenerationSoftware,Kicad,Pcbnew,9.0.6
; #@! TF.FileFunction,NonPlated,1,2,NPTH
FMAT,2
METRIC
; #@! TA.AperFunction,NonPlated,NPTH,ComponentDrill
T1C4.000
%
G90
G05
T1
X139.5Y-278.0
X158.55Y-278.0
X177.6Y-271.0
X187.12Y-242.2
X196.65Y-213.4
X196.65Y-271.0
X206.17Y-242.2
X215.7Y-271.0
X234.75Y-271.0
X244.27Y-242.2
X253.8Y-271.0
X263.32Y-242.2
X272.85Y-271.0
X282.37Y-242.2
X291.9Y-271.0
X310.95Y-271.0
X320.47Y-242.2
X330.0Y-213.4
X330.0Y-271.0
X339.52Y-242.2
X349.05Y-213.4
X349.05Y-271.0
X368.1Y-213.4
X368.1Y-271.0
X377.62Y-242.2
X387.15Y-213.4
X387.15Y-271.0
X396.67Y-242.2
X406.2Y-213.4
X406.2Y-271.0
X415.72Y-242.2
X425.25Y-213.4
X425.25Y-271.0
X444.3Y-213.4
X444.3Y-271.0
X453.82Y-242.2
X463.35Y-213.4
X463.35Y-271.0
X472.87Y-242.2
X482.4Y-271.0
M30
